<svg id="Layer_1" data-name="Layer 1" xmlns="http://www.w3.org/2000/svg" viewBox="0 0 8645.88 912.86"><defs><style>.cls-1{fill:#007a6c;}</style></defs><title>bergen-2</title><polygon class="cls-1" points="8631.84 0 8387.25 116.54 8211.68 188.69 7841.05 324.42 7643.64 405.13 7623.32 404.21 7199.27 238.64 6933.76 158.17 6818.14 83.24 6651.62 0 6407.03 116.54 6231.46 188.69 5860.83 324.42 4781.92 789.84 3872.36 454.83 3318.66 238.64 3053.15 158.17 2937.53 83.24 2771.01 0 2526.42 116.54 2350.85 188.69 1980.22 324.42 1782.33 411.96 1338.44 238.64 1072.93 158.17 957.31 83.24 790.79 0 546.2 116.54 370.63 188.69 0 324.42 1.43 459.26 2.94 912.86 2715 912.86 5115.94 912.86 8645.88 912.86 8645.88 704.75 8645.88 621.09 8645.88 7.02 8631.84 0"/></svg>