<svg id="Layer_1" data-name="Layer 1" xmlns="http://www.w3.org/2000/svg" viewBox="0 0 8641.51 803.06"><defs><style>.cls-1{fill:#00897b;}</style></defs><title>bergen-1</title><polygon class="cls-1" points="1111.98 349.46 834.6 241.16 569.1 160.69 453.48 85.77 286.96 2.52 42.37 119.07 0 136.47 0 349.46 1111.98 349.46"/><polygon class="cls-1" points="2713.57 490.06 2467.57 349.46 2053.99 116.54 1809.4 0 1642.88 83.24 1527.26 158.17 1261.76 238.64 977.93 349.46 2713.57 490.06"/><polygon class="cls-1" points="6972.81 349.46 6695.43 241.16 6429.93 160.69 6314.31 85.77 6147.79 2.52 5903.2 119.07 5491.81 349.46 5860.83 349.46 6972.81 349.46"/><polygon class="cls-1" points="8574.4 490.06 8328.4 349.46 7914.82 116.54 7670.23 0 7503.71 83.24 7388.09 158.17 7122.59 238.64 6838.76 349.46 8574.4 490.06"/><polygon class="cls-1" points="2713.57 490.06 3474.51 803.06 1.51 803.06 0 349.46 2118.51 329.06 2713.57 490.06"/><polygon class="cls-1" points="5491.81 349.46 4458.51 803.06 8641.51 803.06 8641.51 490.06 8574.4 490.06 6898.51 349.06 5491.81 349.46"/></svg>