<svg id="Layer_1" data-name="Layer 1" xmlns="http://www.w3.org/2000/svg" viewBox="0 0 1822.65 1910"><defs><style>.cls-1{fill:#835831;}.cls-2{fill:#5e3f25;}.cls-3{fill:#599e4a;}.cls-4{fill:#60b451;}.cls-5{fill:#b8d479;}.cls-6{fill:#ccdb79;}.cls-7{fill:none;stroke:#adcf7a;stroke-linecap:round;stroke-miterlimit:10;stroke-width:4px;}</style></defs><title>boom-insect</title><path class="cls-1" d="M1174.07,1275.14c0,581.43,157.75,634.86,157.75,634.86H621.31s157.75-127.9,157.75-634.86" transform="translate(-84.99)"/><path class="cls-1" d="M1680.37,1040.74h-474a32.33,32.33,0,0,1-32.33-32.33V0h-395V1902.26h395V1171.38l0.87-3a113.69,113.69,0,0,1,81.15-78.4l10.1-2.57h414.19a23.34,23.34,0,0,0,23.34-23.34h0A23.34,23.34,0,0,0,1680.37,1040.74Z" transform="translate(-84.99)"/><ellipse class="cls-2" cx="895.13" cy="1290.28" rx="104.01" ry="172.78"/><path class="cls-3" d="M1907.64,8.69q0-3.92-.13-7.82H106.43a232.36,232.36,0,0,0,20,63.79A232.87,232.87,0,0,0,85,197.52c0,129.22,104.76,234,234,234a233.46,233.46,0,0,0,77.38-13.16,233.88,233.88,0,0,0,333.27,17.24,424.56,424.56,0,0,0,470.81-29.48,233.8,233.8,0,0,0,337.34-2.69A232.84,232.84,0,0,0,1649,431.51c129.22,0,234-104.76,234-234a233.82,233.82,0,0,0-9.72-66.76A232.92,232.92,0,0,0,1907.64,8.69Z" transform="translate(-84.99)"/><path class="cls-4" d="M1723,143.15a193.88,193.88,0,0,1,8.05,55.32c0,107.08-86.81,193.89-193.89,193.89A193.11,193.11,0,0,1,1445,369.1a193.74,193.74,0,0,1-279.53,2.22,351.83,351.83,0,0,1-390.14,24.44,193.79,193.79,0,0,1-276.16-14.29A193.48,193.48,0,0,1,435,392.37c-107.09,0-193.9-86.81-193.9-193.89A193,193,0,0,1,275.46,88.39a193.12,193.12,0,0,1-19-83.8q0-1.86,0-3.72H1747.1A194.22,194.22,0,0,1,1723,143.15Z" transform="translate(-84.99)"/><path class="cls-3" d="M1906.41,1087.27a39.59,39.59,0,0,0-5.7-20.53,39.77,39.77,0,0,0-25.27-48.47,58.64,58.64,0,0,0-53.55-44.64,58.66,58.66,0,0,0-76.55-30.35,39.78,39.78,0,0,0-68.46,19.1l-0.74,0a58.65,58.65,0,0,0-54,81.45,39.81,39.81,0,0,0-18.51,53,39.78,39.78,0,0,0,45.89,60.12,39.76,39.76,0,0,0,56.65,2.93,72.17,72.17,0,0,0,80-5,39.74,39.74,0,0,0,57.35-.46,39.78,39.78,0,0,0,57-46.35A39.59,39.59,0,0,0,1906.41,1087.27Z" transform="translate(-84.99)"/><path class="cls-4" d="M1894.86,1075.56a36.64,36.64,0,0,0-5.28-19,36.8,36.8,0,0,0-23.39-44.85,54.26,54.26,0,0,0-49.56-41.31,54.28,54.28,0,0,0-70.84-28.09A36.81,36.81,0,0,0,1682.43,960l-0.69,0a54.28,54.28,0,0,0-50,75.37,36.84,36.84,0,0,0-17.13,49,36.81,36.81,0,0,0,42.47,55.64,36.79,36.79,0,0,0,52.43,2.71,66.79,66.79,0,0,0,74.07-4.64,36.78,36.78,0,0,0,53.07-.42,36.82,36.82,0,0,0,52.78-42.89A36.63,36.63,0,0,0,1894.86,1075.56Z" transform="translate(-84.99)"/><circle class="cls-5" cx="1554.64" cy="1015.27" r="30.1" transform="matrix(0.05, -1, 1, 0.05, 379.07, 2518.04)"/><circle class="cls-6" cx="1521.01" cy="1006.6" r="33.61" transform="translate(355.74 2476.21) rotate(-87.18)"/><circle class="cls-5" cx="1497.8" cy="994.61" r="36.41" transform="translate(345.66 2441.62) rotate(-87.18)"/><circle class="cls-6" cx="1462.34" cy="974.55" r="39.06" transform="translate(331.98 2387.13) rotate(-87.18)"/><circle class="cls-5" cx="1423.5" cy="969.14" r="39.06" transform="translate(300.45 2343.19) rotate(-87.18)"/><circle class="cls-6" cx="1383.65" cy="984.07" r="39.06" transform="translate(247.66 2317.59) rotate(-87.18)"/><circle class="cls-5" cx="1338.7" cy="998.06" r="44.21" transform="translate(190.94 2286) rotate(-87.18)"/><circle class="cls-6" cx="1308.08" cy="993.06" r="44.21" transform="translate(166.83 2250.66) rotate(-87.18)"/><path class="cls-7" d="M1321,956.54c1.32-26.86,17.17-47.86,35.43-47" transform="translate(-84.99)"/><path class="cls-7" d="M1289.93,953.77c1.32-26.86-10.26-49.22-25.89-50" transform="translate(-84.99)"/></svg>