<svg id="Layer_1" data-name="Layer 1" xmlns="http://www.w3.org/2000/svg" viewBox="0 0 1822.64 1910"><defs><style>.cls-1{fill:#835831;}.cls-2{fill:#5e3f25;}.cls-3{fill:#599e4a;}.cls-4{fill:#60b451;}.cls-5{fill:#b8d479;}.cls-6{fill:#ccdb79;}.cls-7{fill:none;stroke:#adcf7a;stroke-linecap:round;stroke-miterlimit:10;stroke-width:4px;}.cls-8{fill:#003;opacity:0.55;}</style></defs><title>boom-insect</title><path class="cls-1" d="M1246.83,1910H536.32S692.23,1783.59,694,1284q0-4.41,0-8.87h395C1089.08,1856.57,1246.83,1910,1246.83,1910Z" transform="translate(-0.01)"/><path class="cls-1" d="M1618.7,1064.07a23.34,23.34,0,0,1-23.34,23.34H1181.17l-10.1,2.57a113.7,113.7,0,0,0-81.15,78.4l-0.87,3v730.88H694V0h395V1008.41a32.32,32.32,0,0,0,32.33,32.33h474A23.34,23.34,0,0,1,1618.7,1064.07Z" transform="translate(-0.01)"/><ellipse class="cls-2" cx="895.12" cy="1290.28" rx="104.01" ry="172.78"/><path class="cls-3" d="M1821.42,32.85a232.89,232.89,0,0,1-33.13,97.9,234,234,0,0,1,9.72,66.76c0,129.24-104.78,234-234,234a232.77,232.77,0,0,1-111.2-28.08c-2.19,2.32-4.44,4.6-6.72,6.83-92.44,90.15-240.47,88.3-330.62-4.14q-12.93,9.85-26.42,18.61a424.6,424.6,0,0,1-395,35.44,425.86,425.86,0,0,1-49.39-24.57q-1.54,1.43-3.12,2.82C544.83,524,397,515.07,311.39,418.36A233.59,233.59,0,0,1,234,431.52c-129.24,0-234-104.78-234-234A232.85,232.85,0,0,1,41.44,64.66,232.32,232.32,0,0,1,21.44.87H1822.52q0.13,3.9.13,7.82A231.44,231.44,0,0,1,1821.42,32.85Z" transform="translate(-0.01)"/><path class="cls-4" d="M1638,143.15a194,194,0,0,1,8.05,55.32c0,107.08-86.81,193.89-193.89,193.89A193.06,193.06,0,0,1,1360,369.1c-72.57,76.81-193.06,81.16-271,10.48-1-.89-2-1.79-2.92-2.7-1.92-1.81-3.8-3.67-5.65-5.56A351.81,351.81,0,0,1,694,397.88c-1.24-.7-2.48-1.4-3.71-2.12-78.84,72.38-201.43,67.15-273.81-11.68-0.79-.87-1.57-1.73-2.35-2.61A193.42,193.42,0,0,1,350,392.37c-107.09,0-193.9-86.81-193.9-193.89A193,193,0,0,1,190.47,88.39a193,193,0,0,1-19-83.8V0.87H1662.11A194.2,194.2,0,0,1,1638,143.15Z" transform="translate(-0.01)"/><path class="cls-3" d="M1821.42,1087.27a39.56,39.56,0,0,1-5.89,20.8,39.78,39.78,0,0,1-57,46.35c-0.38.4-.76,0.79-1.15,1.17a39.75,39.75,0,0,1-56.2-.71,72.17,72.17,0,0,1-80,5l-0.52.47a39.76,39.76,0,0,1-56.13-3.4,39.78,39.78,0,0,1-45.89-60.12,39.75,39.75,0,0,1,15.46-51.35c1-.59,2-1.14,3.05-1.65-0.17-.41-0.34-0.81-0.5-1.22h0c-0.25-.61-0.48-1.24-0.7-1.86a58.66,58.66,0,0,1,38.35-75.88h0a58.11,58.11,0,0,1,16.83-2.47h0.74c0.15-.74.31-1.47,0.51-2.2h0a39.76,39.76,0,0,1,39.82-29.88h0a39.66,39.66,0,0,1,28.1,13,58.4,58.4,0,0,1,39.28-2.3,0.12,0.12,0,0,1,.08,0,58.53,58.53,0,0,1,35.83,29.77c0.48,0.93.93,1.89,1.36,2.86a58.65,58.65,0,0,1,20.3,4.9l0,0a58.67,58.67,0,0,1,32.62,37.5c0.21,0.74.41,1.48,0.59,2.22a39.75,39.75,0,0,1,25.27,48.47,39.58,39.58,0,0,1,5.7,20.48v0.05Z" transform="translate(-0.01)"/><path class="cls-4" d="M1804.44,1094.77a36.82,36.82,0,0,1-52.78,42.89c-0.35.37-.7,0.72-1.06,1.08a36.78,36.78,0,0,1-52-.66,66.79,66.79,0,0,1-74.07,4.64l-0.5.45a36.79,36.79,0,0,1-51.93-3.16,36.81,36.81,0,0,1-44.35-52.6c0.57-1,1.2-2,1.88-3a36.83,36.83,0,0,1,4.48-38.89,32.9,32.9,0,0,1,2.55-2.87h0c0.64-.64,1.29-1.26,2-1.86a37,37,0,0,1,8.12-5.37,54.3,54.3,0,0,1,27.55-70.51h0a53.48,53.48,0,0,1,18.08-4.67h0c1.44-.11,2.89-0.17,4.35-0.17h0.69a36.81,36.81,0,0,1,34.78-29.71h0a36.74,36.74,0,0,1,28.55,12,54,54,0,0,1,38.83-1.33,0.12,0.12,0,0,1,.08,0,54.09,54.09,0,0,1,31.93,29.4c1.31,0.08,2.61.2,3.9,0.37a54.15,54.15,0,0,1,21.66,7.76l0,0a54.28,54.28,0,0,1,24,33.16,36.58,36.58,0,0,1,8.66,4.34,35.62,35.62,0,0,1,5,4,36.81,36.81,0,0,1,9.78,36.49A36.76,36.76,0,0,1,1804.44,1094.77Z" transform="translate(-0.01)"/><circle class="cls-5" cx="1472.07" cy="1014.16" r="30.14" transform="translate(385.65 2433.75) rotate(-87.14)"/><circle class="cls-6" cx="1435.95" cy="1006.56" r="33.61" transform="translate(359.95 2391.26) rotate(-87.18)"/><circle class="cls-5" cx="1412.75" cy="994.57" r="36.41" transform="translate(349.88 2356.68) rotate(-87.18)"/><circle class="cls-6" cx="1377.29" cy="974.51" r="39.06" transform="translate(336.2 2302.19) rotate(-87.18)"/><circle class="cls-5" cx="1338.45" cy="969.09" r="39.06" transform="translate(304.67 2258.25) rotate(-87.18)"/><circle class="cls-6" cx="1298.61" cy="984.03" r="39.06" transform="translate(251.87 2232.66) rotate(-87.18)"/><circle class="cls-5" cx="1253.65" cy="998.02" r="44.21" transform="translate(195.15 2201.06) rotate(-87.18)"/><circle class="cls-6" cx="1223.04" cy="993.02" r="44.21" transform="translate(171.04 2165.73) rotate(-87.18)"/><path class="cls-7" d="M1236,956.54c1.32-26.86,17.17-47.86,35.43-47" transform="translate(-0.01)"/><path class="cls-7" d="M1204.94,953.77c1.32-26.86-10.26-49.22-25.89-50" transform="translate(-0.01)"/><path class="cls-8" d="M1821.42,0V32.85a232.89,232.89,0,0,1-33.13,97.9,234,234,0,0,1,9.72,66.76c0,129.24-104.78,234-234,234a232.77,232.77,0,0,1-111.2-28.08c-2.19,2.32-4.44,4.6-6.72,6.83-92.44,90.15-240.47,88.3-330.62-4.14q-12.93,9.85-26.42,18.61v583.68a32.32,32.32,0,0,0,32.33,32.33h414.57a58.66,58.66,0,0,1,38.35-75.88h0a53.48,53.48,0,0,1,18.08-4.67h0a39.76,39.76,0,0,1,39.82-29.88h0a36.74,36.74,0,0,1,28.55,12,54,54,0,0,1,38.83-1.33,0.12,0.12,0,0,1,.08,0,58.53,58.53,0,0,1,35.83,29.77,54.15,54.15,0,0,1,21.66,7.76l0,0a58.67,58.67,0,0,1,32.62,37.5,35.62,35.62,0,0,1,5,4,39.78,39.78,0,0,1,20.91,46.67,39.58,39.58,0,0,1,5.7,20.48v0.05a39.56,39.56,0,0,1-5.89,20.8,39.78,39.78,0,0,1-57,46.35c-0.38.4-.76,0.79-1.15,1.17a39.75,39.75,0,0,1-56.2-.71,72.17,72.17,0,0,1-80,5l-0.52.47a39.76,39.76,0,0,1-56.13-3.4,39.78,39.78,0,0,1-45.89-60.12,40,40,0,0,1-3.15-9.42H1181.17l-10.1,2.57a113.7,113.7,0,0,0-81.15,78.4l-0.87,3v103.76h0c0,581.43,157.75,634.86,157.75,634.86H536.32S692.23,1783.59,694,1284V460.17a425.86,425.86,0,0,1-49.39-24.57q-1.54,1.43-3.12,2.82C544.83,524,397,515.07,311.39,418.36A233.59,233.59,0,0,1,234,431.52c-129.24,0-234-104.78-234-234A232.85,232.85,0,0,1,41.44,64.66,232.32,232.32,0,0,1,21.44.87H694V0H1821.42Z" transform="translate(-0.01)"/></svg>