<?xml version="1.0" encoding="UTF-8"?>
<svg width="244px" height="156px" viewBox="0 0 244 156" version="1.1" xmlns="http://www.w3.org/2000/svg" xmlns:xlink="http://www.w3.org/1999/xlink">
    <!-- Generator: Sketch 43.2 (39069) - http://www.bohemiancoding.com/sketch -->
    <title>Group 16</title>
    <desc>Created with Sketch.</desc>
    <defs></defs>
    <g id="Welcome" stroke="none" stroke-width="1" fill="none" fill-rule="evenodd">
        <g id="Artboard" transform="translate(-1637.000000, -1163.000000)" fill-rule="nonzero">
            <g id="Group-3" transform="translate(1794.765380, 1280.611693) rotate(3.000000) translate(-1794.765380, -1280.611693) translate(1473.265380, 1120.111693)">
                <g id="Group-16" transform="translate(157.000000, 0.000000)">
                    <g id="paper-boat-" transform="translate(136.781698, 128.443096) rotate(-33.000000) translate(-136.781698, -128.443096) translate(26.781698, 47.443096)">
                        <polygon id="Shape" fill="#AFAFAF" points="0.087965852 8.03421448 114.648827 58.9957647 219.00565 116.584076 103.682418 87.6726325"></polygon>
                        <g id="Group" transform="translate(56.298145, 0.000000)">
                            <path d="M0.175931704,72.0147108 C0.175931704,72.0147108 77.1167302,2.58033166 81.5736667,0.234575605 L34.5705798,120.454573 L0.175931704,72.0147108 Z" id="Shape" fill="#FFFFFF"></path>
                            <polygon id="Shape" fill="#CECECE" points="93.0092275 116.906617 81.5443448 0.205253655 34.5999018 119.193729"></polygon>
                        </g>
                        <g id="Group" transform="translate(0.000000, 7.916927)">
                            <path d="M0.087965852,0.117287803 L111.68731,69.6103109 L45.3903796,113.651881 C45.3903796,113.651881 15.6285997,91.2792324 13.8986046,89.9597446 C12.1686095,88.6402569 0.087965852,0.117287803 0.087965852,0.117287803 Z" id="Shape" fill="#FFFFFF"></path>
                            <path d="M98.2871786,140.041636 C99.6946323,139.895027 111.68731,69.6103109 111.68731,69.6103109 L45.3903796,113.651881 C45.3903796,113.651881 95.8827787,140.276212 98.2871786,140.041636 Z" id="Shape" fill="#CECECE"></path>
                            <polygon id="Shape" fill="#F2F2F2" points="219.00565 108.667149 111.68731 69.6103109 98.2871786 140.041636 129.866919 152.298212"></polygon>
                            <path d="M132.623183,150.949402 C135.965885,152.532787 134.147924,153.998885 129.837598,152.298212 C126.700149,151.06669 113.241373,148.075851 107.142408,146.023314 C101.043442,144.0001 96.9676908,144.997046 90.8687251,141.947563 C84.7697594,138.89808 78.0550327,133.884027 72.9530133,131.655558 C67.8509938,129.42709 54.1283209,123.445412 45.9181747,117.786276 C37.7080286,112.127139 31.8729604,102.304286 26.8295849,101.952422 C21.7862093,101.600559 18.2089314,94.2700714 14.0158924,91.2205885 C10.67319,88.7868666 12.7843705,87.350091 16.7721558,89.9304227 C20.7599411,92.5107543 31.6383848,101.923101 34.6585457,101.952422 C37.6787066,101.981744 43.8363162,106.87851 46.1820723,108.667149 C48.5278283,110.455788 54.8320477,115.645773 60.637794,117.815598 C66.4728622,119.9561 80.9872277,130.512002 83.7141691,131.68488 C86.4411106,132.857758 92.1882129,138.399607 97.1143006,137.930456 C102.06971,137.461305 127.960993,148.720934 132.623183,150.949402 Z" id="Shape" fill="#FFFFFF"></path>
                        </g>
                    </g>
                </g>
            </g>
        </g>
    </g>
</svg>