<svg id="Layer_1" data-name="Layer 1" xmlns="http://www.w3.org/2000/svg" viewBox="0 0 727.08 761.93"><defs><style>.cls-1{fill:#3e4754;}.cls-2{fill:#f0eee8;}.cls-3{fill:#ea2e49;}.cls-4{fill:#374557;}</style></defs><title>boot</title><polygon class="cls-1" points="184.06 267.86 184.06 295.43 188.89 295.43 188.89 273.05 210.04 273.05 210.04 296.15 214.87 296.15 214.87 273.05 236.02 273.05 236.02 296.15 240.86 296.15 240.86 273.05 262.02 273.05 262.02 296.15 266.86 296.15 266.86 273.05 288 273.05 288 296.15 292.83 296.15 292.83 273.05 313.99 273.05 313.99 296.15 318.83 296.15 318.83 273.05 339.98 273.05 339.98 296.15 344.8 296.15 344.8 273.05 368.58 273.05 368.58 295.43 373.41 295.43 373.41 267.86 184.06 267.86"/><rect class="cls-2" x="184.06" y="293.56" width="189.35" height="114.93"/><path class="cls-2" d="M64.39,392.95h251.4l20.56,24.63H662.7l-43.51,76.49H181.63S64.39,443.52,64.39,392.95Z"/><polygon class="cls-1" points="64.39 392.95 64.39 367.03 321.83 367.03 338.76 386.47 662.7 387.12 662.7 417.58 336.35 417.58 315.79 392.95 64.39 392.95"/><path class="cls-3" d="M637.62,461.65H121.78c2.73,1.8,5.47,3.53,8.2,5.21H634.67Z"/><path class="cls-3" d="M158.76,483.05h466.7l4.79-8.42H143.17C148.71,477.77,154,480.59,158.76,483.05Z"/><rect class="cls-4" x="205.8" y="311.72" width="40.29" height="32.84"/><rect class="cls-4" x="262.22" y="311.72" width="40.28" height="32.84"/><rect class="cls-4" x="318.63" y="311.72" width="40.28" height="32.84"/><polygon class="cls-1" points="474.23 361.41 473.56 361.41 473.33 361.68 450.9 387.96 454.46 391.47 473.33 369.37 473.33 389 478.15 389 478.15 366.59 499.32 366.59 499.32 389.72 504.15 389.72 504.15 366.59 525.31 366.59 525.31 389.72 530.15 389.72 530.15 366.59 551.3 366.59 551.3 389.72 556.13 389.72 556.13 366.59 577.27 366.59 577.27 389.72 582.11 389.72 582.11 366.59 603.27 366.59 603.27 389.72 608.1 389.72 608.1 366.59 629.25 366.59 629.25 389.72 634.08 389.72 634.08 366.59 657.87 366.59 657.87 389 662.7 389 662.7 361.41 474.23 361.41"/><path class="cls-1" d="M101.06,413.7a4.85,4.85,0,1,1-4.84-5.21A5,5,0,0,1,101.06,413.7Z"/><path class="cls-1" d="M126.62,413.7a4.85,4.85,0,1,1-4.84-5.21A5,5,0,0,1,126.62,413.7Z"/><path class="cls-1" d="M152.18,413.7a4.85,4.85,0,1,1-4.84-5.21A5,5,0,0,1,152.18,413.7Z"/><path class="cls-1" d="M642.46,433.59a4.85,4.85,0,1,1-4.85-5.19A5,5,0,0,1,642.46,433.59Z"/></svg>