<?xml version="1.0" encoding="UTF-8"?>
<svg width="507px" height="883px" viewBox="0 0 507 883" version="1.1" xmlns="http://www.w3.org/2000/svg" xmlns:xlink="http://www.w3.org/1999/xlink">
    <!-- Generator: Sketch 43.2 (39069) - http://www.bohemiancoding.com/sketch -->
    <title>Group 4</title>
    <desc>Created with Sketch.</desc>
    <defs></defs>
    <g id="Welcome" stroke="none" stroke-width="1" fill="none" fill-rule="evenodd">
        <g id="Artboard" transform="translate(-3487.000000, -648.000000)">
            <g id="Group-4" transform="translate(3735.316963, 1074.110547) rotate(-6.000000) translate(-3735.316963, -1074.110547) translate(3515.316963, 638.610547)">
                <g id="Group-3">
                    <polygon id="Rectangle-4-Copy-4" fill="#D8D8D8" points="150 0 360.995434 27.5620719 360.995434 493.361087 150 465.799015"></polygon>
                    <polyline id="Rectangle-4-Copy-5" fill="#C7C7C7" points="150.004566 0 57 82.6862158 57 520.923159 150.004566 465.799015"></polyline>
                    <polygon id="Rectangle-4" fill="#D8D8D8" points="134 36 438 76 438 752 134 712"></polygon>
                    <polygon id="Rectangle-4-Copy-2" fill="#676B82" points="134 115 438 155 438 831 134 791"></polygon>
                    <path d="M213.5,126.5 L213.5,632.503953" id="Line" stroke="#4A4A4A" stroke-width="3" fill="#D8D8D8" stroke-linecap="square"></path>
                    <path d="M134,174 L437,215" id="Line-Copy-3" stroke="#4A4A4A" fill="#D8D8D8" stroke-linecap="square"></path>
                    <path d="M134,240 L437,281" id="Line-Copy-4" stroke="#4A4A4A" fill="#D8D8D8" stroke-linecap="square"></path>
                    <path d="M134,306 L437,347" id="Line-Copy-5" stroke="#4A4A4A" fill="#D8D8D8" stroke-linecap="square"></path>
                    <path d="M134,373 L437,414" id="Line-Copy-6" stroke="#4A4A4A" fill="#D8D8D8" stroke-linecap="square"></path>
                    <path d="M134,432 L437,473" id="Line-Copy-7" stroke="#4A4A4A" fill="#D8D8D8" stroke-linecap="square"></path>
                    <path d="M293.5,137.5 L293.5,643.503953" id="Line-Copy" stroke="#4A4A4A" stroke-width="3" fill="#D8D8D8" stroke-linecap="square"></path>
                    <path d="M373.5,148.5 L373.5,654.503953" id="Line-Copy-2" stroke="#4A4A4A" stroke-width="3" fill="#D8D8D8" stroke-linecap="square"></path>
                    <polygon id="Rectangle-4-Copy" fill="#C7C7C7" transform="translate(67.000000, 414.000000) scale(-1, 1) translate(-67.000000, -414.000000) " points="0 36 134 156 134 792 0 712"></polygon>
                    <polygon id="Rectangle-4-Copy-3" fill="#494D62" transform="translate(67.000000, 493.000000) scale(-1, 1) translate(-67.000000, -493.000000) " points="0 115 134 235 134 871 0 791"></polygon>
                    <polygon id="Rectangle-4-Copy-6" fill="#D8D8D8" points="246.799998 512.822758 376.929688 527.810994 376.929688 781.112166 246.799998 766.123931"></polygon>
                    <polyline id="Rectangle-4-Copy-7" fill="#C7C7C7" points="246.802815 512.822758 212.829748 539.787464 212.829748 778.100401 246.802815 766.123931"></polyline>
                </g>
                <text id="Twentse-welle" transform="translate(286.477926, 103.694612) rotate(7.000000) translate(-286.477926, -103.694612) " font-family="Galindo-Regular, Galindo" font-size="35" font-weight="normal" fill="#4A4A4A">
                    <tspan x="159.047506" y="113.194612">Twentse welle</tspan>
                </text>
            </g>
        </g>
    </g>
</svg>