<svg id="Layer_1" data-name="Layer 1" xmlns="http://www.w3.org/2000/svg" viewBox="0 0 7489.95 762.14"><defs><style>.cls-1{fill:#f0eee8;}</style></defs><title>cloud-2</title><path class="cls-1" d="M6856.76,588.92H7347.4s-21.59-82.43-80.47-41.21c0,0-47.1-47.1-98.13-19.63,0,0-25.51-56.91-111.87-56.91S6954.89,530,6954.89,530s-15.7-33.36-64.76-19.63S6856.76,588.92,6856.76,588.92Z" transform="translate(-941.56 -324.43)"/><path class="cls-1" d="M941.56,503.89H1432.2s7.6-78.26-74.82-78.26c-56.67,0-70.65,47.1-70.65,47.1s-35.33-24-76.54-8c0,0-30.17-19.75-69.92,0,0,0-69.18-26.62-97.88,25.64,0,0-11-37.53-45.63-36.06S941.56,480.58,941.56,503.89Z" transform="translate(-941.56 -324.43)"/><path class="cls-1" d="M6363.54,862.85h490.64s7.6-78.26-74.82-78.26c-56.67,0-70.65,47.1-70.65,47.1s-35.33-24-76.54-8c0,0-30.17-19.75-69.92,0,0,0-69.18-26.62-97.88,25.64,0,0-11-37.53-45.63-36.06S6363.54,839.54,6363.54,862.85Z" transform="translate(-941.56 -324.43)"/><path class="cls-1" d="M2002.94,454.74h588.77s12.51-64-61.09-64c0,0-23.55-42.69-78-24.29,0,0-58.14-52.25-112.6,1.47,0,0-22.08-9.57-33.85-4.42-8.43-30.17-132.47-80.22-170,22.81C2136.15,386.3,2023.55,336.25,2002.94,454.74Z" transform="translate(-941.56 -324.43)"/><path class="cls-1" d="M5333.36,999.12h588.77s12.51-64-61.09-64c0,0-23.55-42.69-78-24.29,0,0-58.14-52.25-112.6,1.47,0,0-22.08-9.57-33.85-4.42-8.43-30.17-132.47-80.22-170,22.81C5466.57,930.67,5354,880.63,5333.36,999.12Z" transform="translate(-941.56 -324.43)"/><path class="cls-1" d="M7841.93,454.74H8430.7s12.51-64-61.09-64c0,0-23.55-42.69-78-24.29,0,0-58.14-52.25-112.6,1.47,0,0-22.08-9.57-33.85-4.42-8.43-30.17-132.47-80.22-170,22.81C7975.14,386.3,7862.54,336.25,7841.93,454.74Z" transform="translate(-941.56 -324.43)"/><path class="cls-1" d="M4671.18,448.47H4180.53S4202.12,366,4261,407.25c0,0,47.1-47.1,98.13-19.63,0,0,25.51-56.91,111.87-56.91S4573,389.59,4573,389.59s15.7-33.36,64.76-19.63S4671.18,448.47,4671.18,448.47Z" transform="translate(-941.56 -324.43)"/><path class="cls-1" d="M4248.48,1086.57h490.27s7.6-78.26-74.77-78.26c-56.63,0-70.6,47.1-70.6,47.1s-35.3-24-76.48-8c0,0-30.15-19.75-69.86,0,0,0-69.13-26.62-97.81,25.64,0,0-11-37.53-45.6-36.06S4248.48,1063.26,4248.48,1086.57Z" transform="translate(-941.56 -324.43)"/><path class="cls-1" d="M4248.48,795.86H3659.71s-12.51-64,61.09-64c0,0,23.55-42.69,78-24.29,0,0,58.14-52.25,112.6,1.47,0,0,22.08-9.57,33.85-4.42,8.43-30.17,132.47-80.22,170,22.81C4115.27,727.42,4227.88,677.37,4248.48,795.86Z" transform="translate(-941.56 -324.43)"/></svg>