<svg id="Layer_1" data-name="Layer 1" xmlns="http://www.w3.org/2000/svg" viewBox="0 0 7641.64 569.71"><defs><style>.cls-1{fill:#f0eee8;}</style></defs><title>clouds-3</title><path class="cls-1" d="M1483.58,705.74h153.08s-5.89-78.5-90.77-43.18C1545.89,662.56,1488.48,646.37,1483.58,705.74Z" transform="translate(-292.2 -380.7)"/><path class="cls-1" d="M835,931.15h346.88s-5.89-113.83-120.21-75.56c0,0-102.54-56.42-160.44,27C901.22,882.57,839.4,868.35,835,931.15Z" transform="translate(-292.2 -380.7)"/><path class="cls-1" d="M4776,726.69h346.88s-5.89-113.83-120.21-75.56c0,0-102.54-56.42-160.44,27C4842.19,678.11,4780.37,663.89,4776,726.69Z" transform="translate(-292.2 -380.7)"/><path class="cls-1" d="M7587,675.58h346.88s-5.89-113.83-120.21-75.56c0,0-102.54-56.42-160.44,27C7653.19,627,7591.37,612.78,7587,675.58Z" transform="translate(-292.2 -380.7)"/><path class="cls-1" d="M2868.08,758.05H2715s5.89-78.5,90.77-43.18C2805.77,714.87,2863.18,698.68,2868.08,758.05Z" transform="translate(-292.2 -380.7)"/><path class="cls-1" d="M5388.47,433H5235.39s5.89-78.5,90.77-43.18C5326.16,389.84,5383.56,373.64,5388.47,433Z" transform="translate(-292.2 -380.7)"/><path class="cls-1" d="M445.28,907.46H292.2S298.09,829,383,864.28C383,864.28,440.37,848.09,445.28,907.46Z" transform="translate(-292.2 -380.7)"/><path class="cls-1" d="M7438.24,863.09H7285.16s5.89-78.5,90.77-43.18C7375.93,819.91,7433.33,803.72,7438.24,863.09Z" transform="translate(-292.2 -380.7)"/><path class="cls-1" d="M3551.13,950.41H3204.25s5.89-113.83,120.21-75.56c0,0,102.54-56.42,160.44,27C3484.9,901.84,3546.72,887.61,3551.13,950.41Z" transform="translate(-292.2 -380.7)"/></svg>