<svg id="Layer_1" data-name="Layer 1" xmlns="http://www.w3.org/2000/svg" viewBox="0 0 8560.44 819.9"><defs><style>.cls-1{fill:#f0eee8;}</style></defs><title>clouds-1</title><path class="cls-1" d="M1872.05,955h690.34s-19.87-86.11-110.39-69.18c0,0-36.8-133.21-174.42-133.21s-167.06,97.88-167.06,97.88-83.9-42-136.15,46.37C1974.35,896.86,1888.24,855.64,1872.05,955Z" transform="translate(-40.57 -135.1)"/><path class="cls-1" d="M40.57,536.3H730.91S711,450.2,620.51,467.12c0,0-36.8-133.21-174.42-133.21S279,431.8,279,431.8s-83.9-42-136.15,46.37C142.87,478.16,56.76,436.95,40.57,536.3Z" transform="translate(-40.57 -135.1)"/><path class="cls-1" d="M3596.39,337.49H2906.06s19.87-86.11,110.39-69.18c0,0,36.8-133.21,174.42-133.21S3357.94,233,3357.94,233s83.9-42,136.15,46.37C3494.09,279.35,3580.2,238.14,3596.39,337.49Z" transform="translate(-40.57 -135.1)"/><path class="cls-1" d="M7910.68,907.89H8601s-19.87-86.11-110.39-69.18c0,0-36.8-133.21-174.42-133.21s-167.06,97.88-167.06,97.88-83.9-42-136.15,46.37C8013,849.75,7926.87,808.54,7910.68,907.89Z" transform="translate(-40.57 -135.1)"/><path class="cls-1" d="M6372.39,451.66H5682.06s19.87-86.11,110.39-69.18c0,0,36.8-133.21,174.42-133.21s167.06,97.88,167.06,97.88,83.9-42,136.15,46.37C6270.09,393.52,6356.2,352.3,6372.39,451.66Z" transform="translate(-40.57 -135.1)"/></svg>