<?xml version="1.0" encoding="UTF-8"?>
<svg width="1080px" height="239px" viewBox="0 0 1080 239" version="1.1" xmlns="http://www.w3.org/2000/svg" xmlns:xlink="http://www.w3.org/1999/xlink">
    <!-- Generator: Sketch 43.2 (39069) - http://www.bohemiancoding.com/sketch -->
    <title>Group 8</title>
    <desc>Created with Sketch.</desc>
    <defs></defs>
    <g id="Welcome" stroke="none" stroke-width="1" fill="none" fill-rule="evenodd">
        <g id="Day-start" transform="translate(0.000000, -1412.000000)" stroke-width="7" stroke="#000000">
            <g id="Group-6" transform="translate(-30.000000, 1125.000000)">
                <g id="Group-5">
                    <g id="Group-8" transform="translate(0.000000, 288.000000)">
                        <path d="M28,4 C121.601562,29.03125 246.851562,23.71875 271.898438,8.375 C296.945313,-6.96875 381.523438,33.5317727 447.609375,29.4223977 C513.695312,25.3130227 569.789062,3.6328125 569.789062,3.6328125 C569.789062,3.6328125 678.414062,54.859375 721.328125,46.515625 C764.242188,38.171875 801.914062,6.2421875 801.914062,6.2421875 C801.914062,6.2421875 896.898438,72.4634783 1005.23438,56.3046875 C1113.57031,40.1458967 1129.55469,0 1129.55469,0 L1132.21875,15.234375" id="Path-2"></path>
                        <path d="M0.87254984,206.482449 C47.8013863,219.032319 113.809898,214.339216 160.032564,214.194033 C206.255229,214.04885 259.615621,179.078572 272.104792,171.427689 C297.151667,156.083939 387.038963,200.768351 453.1249,196.658976 C519.210838,192.549601 569.995417,166.685501 569.995417,166.685501 C569.995417,166.685501 672.882633,215.76431 715.796696,207.42056 C758.710758,199.07681 802.120417,169.294876 802.120417,169.294876 C802.120417,169.294876 903.708161,218.684763 1012.0441,202.525972 C1120.38004,186.367181 1129.76104,163.052689 1129.76104,163.052689 L1132.4251,178.287064" id="Path-2-Copy" transform="translate(566.648827, 189.112163) rotate(4.000000) translate(-566.648827, -189.112163) "></path>
                    </g>
                </g>
            </g>
        </g>
    </g>
</svg>