<?xml version="1.0" encoding="UTF-8"?>
<svg width="8000px" height="806px" viewBox="0 0 8000 806" version="1.1" xmlns="http://www.w3.org/2000/svg" xmlns:xlink="http://www.w3.org/1999/xlink">
    <!-- Generator: Sketch 43.2 (39069) - http://www.bohemiancoding.com/sketch -->
    <title>Group 15</title>
    <desc>Created with Sketch.</desc>
    <defs>
        <linearGradient x1="52.572453%" y1="0%" x2="52.572453%" y2="39.8301561%" id="linearGradient-1">
            <stop stop-color="#6FD500" offset="0%"></stop>
            <stop stop-color="#55960D" offset="100%"></stop>
        </linearGradient>
    </defs>
    <g id="Welcome" stroke="none" stroke-width="1" fill="none" fill-rule="evenodd">
        <g id="Artboard" transform="translate(0.000000, -1114.000000)">
            <g id="Group-15" transform="translate(-1.000000, 1102.000000)">
                <path d="M1,152.953125 C1,152.953125 253.9375,-9.5 644.3125,14.578125 C1034.6875,38.65625 1529.85937,229.78125 1972.4375,229.78125 C2033.70273,229.78125 2686.59248,170.54187 2958.1875,183.40625 C3229.78252,196.27063 3692.9872,275.793313 4148.28867,271.15625 C4498.33245,267.591195 5068.17344,117.28439 5917.75,86.46875 C6325.23185,71.6886647 6622.22348,217.743296 7133.34375,229.78125 C7299.12043,233.685638 7507.9322,118.231176 7707.92187,86.46875 C7907.91155,54.7063241 8001,50.34375 8001,50.34375 L8001,818 C8001,818 2.296875,879.132813 1,818 C-0.296875,756.867188 1,152.953125 1,152.953125 Z" id="Path-Copy-7" fill="url(#linearGradient-1)"></path>
                <path d="M7581.51793,124.799844 L7594.24126,127.096319 C7594.24126,127.096319 7666.52305,158.992355 7715.1303,233.197421 C7763.73754,307.402486 7787.4373,418.91358 7787.4373,418.91358 L7730.17319,413.125044 C7730.17319,413.125044 7718.44482,308.454315 7678.0597,232.215879 C7637.67458,155.977443 7581.51793,124.799844 7581.51793,124.799844 Z" id="Rectangle-3-Copy-2" fill="#D8D8D8" transform="translate(7684.477615, 271.856712) rotate(9.000000) translate(-7684.477615, -271.856712) "></path>
                <path d="M335.37342,16.2819535 L345.085381,18.0348974 C345.085381,18.0348974 400.259463,42.381755 437.362305,99.0239083 C474.465148,155.666062 492.555628,240.784623 492.555628,240.784623 L448.844839,236.366122 C448.844839,236.366122 439.892344,156.468943 409.065605,98.2746786 C378.238866,40.0804145 335.37342,16.2819535 335.37342,16.2819535 Z" id="Rectangle-3-Copy-2" fill="#D8D8D8" transform="translate(413.964524, 128.533288) rotate(-14.000000) translate(-413.964524, -128.533288) "></path>
            </g>
        </g>
    </g>
</svg>