<svg id="Layer_1" data-name="Layer 1" xmlns="http://www.w3.org/2000/svg" viewBox="0 0 8639.99 533.32"><defs><style>.cls-1{fill:#60b451;}</style></defs><title>gras-1</title><path class="cls-1" d="M8640,1528.1V1910H0V1440.12c407.55-88.34,856.77-71.26,1283.83-28,145.63,14.75,290.69,32.43,435.8,49.75,0,7,.07,14.62.13,16.66C1724.95,1660.93,1858,1807,2021.3,1807h837c83.32,0,158.74-38,213.34-99.44,42.3-47.6,72.09-109.26,83.37-178.22,0.53-3.22,1-6.46,1.46-9.72,238.43-16.4,475.87-42.56,711.94-68.82,224.41-25,450.8-50.17,678.9-46.33,339.92,5.71,668.28,75.57,1006.76,95.31,599,34.92,1196.54-88.14,1797.7-72.17C7784.76,1439.12,8206.7,1522.51,8640,1528.1Z" transform="translate(0 -1376.68)"/></svg>