<?xml version="1.0" encoding="UTF-8"?>
<svg width="8000px" height="806px" viewBox="0 0 8000 806" version="1.1" xmlns="http://www.w3.org/2000/svg" xmlns:xlink="http://www.w3.org/1999/xlink">
    <!-- Generator: Sketch 43.2 (39069) - http://www.bohemiancoding.com/sketch -->
    <title>Path Copy 7</title>
    <desc>Created with Sketch.</desc>
    <defs>
        <linearGradient x1="52.572453%" y1="0%" x2="52.572453%" y2="39.8301561%" id="linearGradient-1">
            <stop stop-color="#6FD500" offset="0%"></stop>
            <stop stop-color="#55960D" offset="100%"></stop>
        </linearGradient>
    </defs>
    <g id="Welcome" stroke="none" stroke-width="1" fill="none" fill-rule="evenodd">
        <g id="Artboard" transform="translate(0.000000, -1114.000000)" fill="url(#linearGradient-1)">
            <path d="M-3.77475828e-14,1254.95313 C-3.77475828e-14,1254.95313 252.9375,1092.5 643.3125,1116.57812 C1033.6875,1140.65625 1528.85937,1331.78125 1971.4375,1331.78125 C2032.70273,1331.78125 2685.59248,1272.54187 2957.1875,1285.40625 C3228.78252,1298.27063 3691.9872,1377.79331 4147.28867,1373.15625 C4497.33245,1369.59119 5067.17344,1219.28439 5916.75,1188.46875 C6324.23185,1173.68866 6621.22348,1319.7433 7132.34375,1331.78125 C7298.12043,1335.68564 7506.9322,1220.23118 7706.92187,1188.46875 C7906.91155,1156.70632 8000,1152.34375 8000,1152.34375 L8000,1920 C8000,1920 1.296875,1981.13281 -1.04394271e-12,1920 C-1.296875,1858.86719 -3.77475828e-14,1254.95313 -3.77475828e-14,1254.95313 Z" id="Path-Copy-7"></path>
        </g>
    </g>
</svg>