<?xml version="1.0" encoding="UTF-8"?>
<svg width="8000px" height="1183px" viewBox="0 0 8000 1183" version="1.1" xmlns="http://www.w3.org/2000/svg" xmlns:xlink="http://www.w3.org/1999/xlink">
    <!-- Generator: Sketch 43.2 (39069) - http://www.bohemiancoding.com/sketch -->
    <title>Group 15</title>
    <desc>Created with Sketch.</desc>
    <defs>
        <path d="M54.4562601,72.9083348 L52.5772137,72.9533557 L52.5772137,41.5285068 L559.585039,40.8972659 L559.585039,59.6095698 L574.576003,345.058602 L535.683353,348.096548 L372.152348,357.339302 L454.685991,639.542176 L416.171841,649.224879 L347.77414,358.953828 L275.826435,363.696403 L207.252234,684.12789 L168.738085,687.02734 L251.632815,365.283658 L78.1284326,376.555803 L77.9633644,383.849534 L54.4562601,385.685698 L54.4562601,378.078642 L54.1091247,351.8724 L54.4562601,72.9083348 Z M85.0302747,72.184438 L78.7076554,350.967425 L535.683353,332.20698 L535.683353,63.4027267 L85.0302747,72.184438 Z" id="path-1"></path>
        <filter x="-0.6%" y="-0.3%" width="100.8%" height="100.5%" filterUnits="objectBoundingBox" id="filter-2">
            <feOffset dx="-2" dy="-1" in="SourceAlpha" result="shadowOffsetOuter1"></feOffset>
            <feComposite in="shadowOffsetOuter1" in2="SourceAlpha" operator="out" result="shadowOffsetOuter1"></feComposite>
            <feColorMatrix values="0 0 0 0 0   0 0 0 0 0   0 0 0 0 0  0 0 0 0.5 0" type="matrix" in="shadowOffsetOuter1"></feColorMatrix>
        </filter>
        <path d="M15.6382437,17.452709 L15.275816,17.4655518 L15.275816,8.50121149 L113.06674,8.32114195 L113.06674,13.6590661 L115.958176,95.0870557 L108.456618,95.9536686 L76.9149984,98.5902826 L92.8339662,179.092264 L85.4054136,181.854379 L72.2129654,99.0508467 L58.3357977,100.403727 L45.1093067,191.81091 L37.6807542,192.638015 L53.669368,100.856512 L20.2040976,104.072035 L20.1722595,106.152665 L15.6382437,106.676455 L15.6382437,104.506445 L15.5712888,97.0307787 L15.6382437,17.452709 Z M21.5353147,17.2462082 L20.3158172,96.7726231 L108.456618,91.420966 L108.456618,14.7411127 L21.5353147,17.2462082 Z" id="path-3"></path>
        <path d="M15.6382437,17.452709 L15.275816,17.4655518 L15.275816,8.50121149 L113.06674,8.32114195 L113.06674,13.6590661 L115.958176,95.0870557 L108.456618,95.9536686 L76.9149984,98.5902826 L92.8339662,179.092264 L85.4054136,181.854379 L72.2129654,99.0508467 L58.3357977,100.403727 L45.1093067,191.81091 L37.6807542,192.638015 L53.669368,100.856512 L20.2040976,104.072035 L20.1722595,106.152665 L15.6382437,106.676455 L15.6382437,104.506445 L15.5712888,97.0307787 L15.6382437,17.452709 Z M21.5353147,17.2462082 L20.3158172,96.7726231 L108.456618,91.420966 L108.456618,14.7411127 L21.5353147,17.2462082 Z" id="path-4"></path>
        <path d="M11.224997,12.5965673 L10.9648495,12.6057704 L10.9648495,6.18193142 L81.1583352,6.05289373 L81.1583352,9.87804588 L83.2337825,68.2292773 L77.8492292,68.8502913 L55.2089252,70.7396868 L66.6354236,128.427342 L61.3032723,130.406671 L51.8338463,71.0697267 L41.8729346,72.0391997 L32.3790729,137.541513 L27.0469217,138.134215 L38.5234114,72.3636648 L14.5023277,74.6679064 L14.4794746,76.1588843 L11.224997,76.5342314 L11.224997,74.9792038 L11.1769373,69.6221476 L11.224997,12.5965673 Z M15.457864,12.448589 L14.5825191,69.4371535 L77.8492292,65.6021604 L77.8492292,10.6534396 L15.457864,12.448589 Z" id="path-5"></path>
        <linearGradient x1="61.2868845%" y1="11.2576102%" x2="61.2868845%" y2="91.7145291%" id="linearGradient-6">
            <stop stop-color="#59AB00" offset="0%"></stop>
            <stop stop-color="#227301" offset="100%"></stop>
        </linearGradient>
    </defs>
    <g id="Welcome" stroke="none" stroke-width="1" fill="none" fill-rule="evenodd">
        <g id="Artboard" transform="translate(0.000000, -737.000000)">
            <g id="Group-15" transform="translate(-235.000000, 685.000000)">
                <g id="boom-copy" transform="translate(3415.000000, 325.000000)">
                    <path d="M171.061525,294.866066 C171.061525,288.787988 177.980036,283.81982 186.48294,283.81982 C189.704537,283.81982 192.714882,284.55976 195.197096,285.775375 C203.647187,285.828228 210.460073,290.743544 210.460073,296.821622 C210.460073,302.8997 203.541561,307.867868 195.038657,307.867868 C191.81706,307.867868 188.806715,307.127928 186.324501,305.912312 C177.927223,305.806607 171.061525,300.944144 171.061525,294.866066 Z" id="Shape" fill="#477831" fill-rule="nonzero"></path>
                    <path d="M180.567877,299.517117 C180.567877,299.517117 160.287659,317.434234 158.227949,321.133934 C155.904174,325.309309 156.221053,328.639039 156.221053,328.639039 L155.164791,318.596997 L179.670054,298.248649 L180.567877,299.517117 Z" id="Shape" fill="#624213" fill-rule="nonzero"></path>
                    <g id="Group" transform="translate(17.956443, 56.024024)" fill-rule="nonzero" fill="#477831">
                        <path d="M213.047913,157.818619 C221.233938,157.818619 227.888385,164.478078 227.888385,172.67027 C227.888385,180.862462 221.233938,187.521922 213.047913,187.521922 C204.861887,187.521922 198.207441,180.862462 198.207441,172.67027 C198.207441,164.425225 204.861887,157.818619 213.047913,157.818619 Z" id="Shape"></path>
                        <path d="M0.475317604,137.364565 C0.475317604,129.172372 7.12976407,122.512913 15.3157895,122.512913 C23.5018149,122.512913 30.1562613,129.172372 30.1562613,137.364565 C30.1562613,139.954354 29.5225045,142.332733 28.3606171,144.446847 C31.8990926,147.142342 34.1700544,151.423423 34.1700544,156.18018 C34.1700544,164.372372 27.515608,171.031832 19.3295826,171.031832 C11.1435572,171.031832 4.48911071,164.372372 4.48911071,156.18018 C4.48911071,153.59039 5.12286751,151.212012 6.28475499,149.097898 C2.74627949,146.402402 0.475317604,142.174174 0.475317604,137.364565 Z" id="Shape"></path>
                        <path d="M61.8441016,166.803604 C73.1989111,166.803604 82.599637,175.101502 84.3424682,185.936336 C86.0852995,179.646847 91.7891107,175.048649 98.6019964,175.048649 C101.665154,175.048649 104.51706,176 106.840835,177.585586 C109.534301,173.674474 114.023412,171.084685 119.146279,171.084685 C120.889111,171.084685 122.579129,171.401802 124.163521,171.983183 C132.93049,168.917718 160.815789,156.603003 162.822686,157.818619 C164.882396,152.057658 167.206171,169.816216 173.649365,169.816216 C181.83539,169.816216 188.489837,176.475676 188.489837,184.667868 C188.489837,192.86006 181.83539,199.51952 173.649365,199.51952 C170.797459,199.51952 168.209619,198.726727 165.938657,197.352553 C163.878947,203.113514 158.439201,207.236036 151.943194,207.236036 C143.757169,207.236036 137.102722,200.576577 137.102722,192.384384 C137.102722,190.481682 135.835209,188.367568 133.933938,186.306306 C133.775499,194.33994 127.173866,200.840841 119.093466,200.840841 C116.030309,200.840841 113.178403,199.889489 110.801815,198.303904 C108.108348,202.215015 103.619238,204.804805 98.5491833,204.804805 C97.2288566,204.804805 96.0141561,204.646246 94.7994555,204.329129 C93.584755,209.35015 89.0956443,213.102703 83.7087114,213.102703 C80.0117967,213.102703 76.6845735,211.305706 74.6248639,208.557357 C70.9807623,211.041441 66.5444646,212.521321 61.7384755,212.521321 C49.1161525,212.521321 38.9232305,202.267868 38.9232305,189.688889 C38.9760436,177.004204 49.2217786,166.803604 61.8441016,166.803604 Z" id="Shape"></path>
                        <ellipse id="Oval" cx="240.72196" cy="125.948348" rx="22.815245" ry="22.8324324"></ellipse>
                        <ellipse id="Oval" cx="225.089292" cy="12.8432432" rx="12.622323" ry="12.6318318"></ellipse>
                        <path d="M13.7313975,27.8006006 C13.7313975,20.824024 19.3823956,15.1687688 26.3537205,15.1687688 C33.3250454,15.1687688 38.9760436,20.824024 38.9760436,27.8006006 C38.9760436,34.7771772 33.3250454,40.4324324 26.3537205,40.4324324 C19.3823956,40.4324324 13.7313975,34.7771772 13.7313975,27.8006006 Z" id="Shape"></path>
                    </g>
                    <path d="M150.517241,287.360961 C151.890381,278.957357 154.161343,269.443844 163.456443,260.934535 C169.846824,255.067868 199.950272,237.996396 199.950272,237.996396 L196.358984,233.662462 L152.418512,260.67027 C152.418512,260.617417 152.154446,266.536937 150.517241,287.360961 Z" id="Shape" fill="#624213" fill-rule="nonzero"></path>
                    <path d="M201.851543,349.568769 L88.4090744,351.63003 C88.4090744,351.63003 101.717967,348.775976 113.389655,344.653453 C126.698548,339.94955 129.233575,339.738138 134.145191,325.467868 C140.060254,308.502102 134.726134,293.491892 132.983303,285.933934 C131.293285,278.375976 116.558439,261.515916 116.558439,261.515916 L81.9130672,248.408408 L86.6134301,244.708709 C86.6134301,244.708709 110.168058,253.852252 112.703085,253.112312 C115.290926,252.425225 106.735209,241.696096 106.735209,241.696096 L112.174955,237.415015 C112.174955,237.415015 131.504537,270.500901 132.296733,271.399399 C133.088929,272.297898 135.148639,275.099099 138.000544,273.672072 C140.85245,272.245045 140.113067,227.848649 140.113067,227.848649 L154.953539,230.966967 C154.953539,230.966967 153.686025,250.0997 155.217604,251.262462 C156.801996,252.425225 174.916878,242.858859 176.025953,240.956156 C177.18784,239.106306 174.335935,226.104505 174.335935,226.104505 L178.032849,224.836036 C178.032849,224.836036 179.036298,236.833634 180.62069,237.996396 C182.205082,239.159159 193.771143,231.548348 193.771143,231.548348 L196.887114,236.675075 C196.887114,236.675075 172.645917,250.522523 163.350817,258.239039 C154.055717,265.955556 151.467877,274.676276 151.52069,282.815616 C151.573503,290.954955 151.256624,310.510511 153.791652,311.091892 C156.379492,311.673273 176.606897,297.244444 176.606897,297.244444 L178.613793,299.411411 C178.613793,299.411411 158.492015,316.112913 156.907623,318.702703 C155.32323,321.292492 154.055717,333.818619 169.318693,341.112312 C184.634483,348.353153 201.851543,349.568769 201.851543,349.568769 Z" id="Shape" fill="#815719" fill-rule="nonzero"></path>
                    <path d="M173.860617,269.655255 C175.709074,269.655255 177.399093,270.130931 178.930672,270.923724 C178.930672,270.923724 178.930672,270.923724 178.930672,270.870871 C178.930672,264.845646 183.842287,259.93033 189.862976,259.93033 C192.292377,259.93033 194.563339,260.723123 196.358984,262.097297 C198.36588,259.401802 201.534664,257.657658 205.125953,257.657658 C211.146642,257.657658 216.058258,262.572973 216.058258,268.598198 C216.058258,269.972372 215.794192,271.293694 215.318875,272.509309 C220.969873,275.204805 224.87804,280.912913 224.87804,287.625225 C224.87804,296.874474 217.378584,304.326727 208.189111,304.326727 C204.069691,304.326727 200.319964,302.846847 197.415245,300.362763 C195.038657,302.371171 191.975499,303.533934 188.648276,303.533934 C181.624138,303.533934 175.867514,298.248649 175.075318,291.483483 C174.705626,291.536336 174.283122,291.536336 173.91343,291.536336 C167.89274,291.536336 162.981125,286.621021 162.981125,280.595796 C162.928312,274.517718 167.839927,269.655255 173.860617,269.655255 Z" id="Shape" fill="#619700" fill-rule="nonzero"></path>
                    <path d="M198.471506,18.1285285 C195.672414,19.766967 193.084574,21.7753754 190.813612,24.1009009 C190.760799,23.9951952 190.655172,23.9423423 190.602359,23.8366366 L190.602359,17.6 C190.549546,17.6528529 193.559891,17.6528529 198.471506,18.1285285 Z" id="Shape"></path>
                    <path d="M43.5707804,83.0318318 C42.5673321,83.0318318 41.5110708,83.0846847 40.5076225,83.1903904 C39.2401089,79.0678679 38.6591652,74.6810811 38.4479129,70.7171171 C39.2401089,75.2624625 41.0357532,79.4378378 43.5707804,83.0318318 Z" id="Shape"></path>
                    <path d="M38.7647913,58.560961 C38.7119782,59.0366366 38.1310345,64.2690691 38.500726,70.76997 C38.1838475,69.0258258 38.0254083,67.175976 38.0254083,65.3261261 C37.9725953,63.0006006 38.2366606,60.7279279 38.7647913,58.560961 Z" id="Shape" fill="#FCFCFC" fill-rule="nonzero"></path>
                    <path d="M17.9036298,132.660661 C18.2733212,132.502102 18.6430127,132.290691 19.0127042,132.132132 C16.0551724,128.115315 14.0482759,123.411411 13.361706,118.231832 C13.1504537,116.804805 13.0448276,115.324925 13.0448276,113.845045 C13.0448276,97.9363363 25.0862069,84.8288288 40.5604356,83.1903904 C41.5638838,83.0846847 42.5673321,83.0318318 43.6235935,83.0318318 C41.0885662,79.4378378 39.292922,75.2624625 38.500726,70.76997 C38.1310345,64.2690691 38.7119782,59.0366366 38.7647913,58.560961 C39.292922,56.2882883 40.0323049,54.1213213 40.9829401,52.1129129 C45.9473684,41.7009009 56.5099819,34.5129129 68.8154265,34.5129129 C75.3114338,34.5129129 81.3849365,36.5213213 86.3493648,40.0096096 C89.7822142,31.5531532 98.0210526,25.5279279 107.685844,25.3693694 C112.069328,10.8348348 125.536661,0.264264264 141.486207,0.264264264 C149.144102,0.264264264 156.221053,2.6954955 161.977677,6.81801802 C165.727405,9.51351351 168.896189,12.8432432 171.378403,16.7543544 C172.117786,16.7015015 172.909982,16.6486486 173.649365,16.6486486 C180.303811,16.6486486 186.271688,19.4498498 190.549546,23.8894895 C190.602359,23.9951952 190.707985,24.048048 190.760799,24.1537538 C193.03176,21.8282282 195.619601,19.8198198 198.418693,18.1813814 C203.647187,15.1687688 209.667877,13.4246246 216.111071,13.4246246 C235.651906,13.4246246 251.443013,29.2804805 251.443013,48.7831832 C251.443013,51.372973 251.178947,53.8570571 250.650817,56.2882883 C250.01706,59.1951952 249.066425,61.9435435 247.746098,64.5333333 C246.901089,66.2246246 245.950454,67.8630631 244.841379,69.3957958 C244.68294,69.6600601 244.471688,69.8714715 244.313249,70.1357357 C244.630127,70.0828829 244.999819,70.0828829 245.316697,70.03003 C246.74265,69.8714715 248.168603,69.7657658 249.647368,69.7657658 C271.142287,69.7657658 288.834664,86.3087087 290.683122,107.344144 C290.788748,108.55976 290.841561,109.775375 290.841561,110.990991 C290.841561,124.67988 284.187114,136.783183 273.941379,144.288288 C277.05735,148.252252 278.905808,153.273273 278.905808,158.664264 C278.905808,162.681081 277.902359,166.486486 276.106715,169.763363 C273.888566,173.833033 270.50853,177.215616 266.389111,179.382583 C269.980399,184.984985 272.040109,191.644444 272.040109,198.77958 C272.040109,202.690691 271.406352,206.496096 270.244465,210.037237 C265.544102,224.413213 252.023956,234.772372 236.127223,234.772372 C234.014701,234.772372 232.007804,234.560961 230.000907,234.243844 C225.723049,239.106306 219.438294,242.224625 212.414156,242.224625 C204.38657,242.224625 197.309619,238.207808 193.084574,232.024024 C192.662069,232.076877 192.292377,232.076877 191.869873,232.076877 C186.271688,232.076877 181.465699,228.588589 179.511615,223.673273 C173.860617,231.01982 165.040835,235.776577 155.059165,235.776577 C147.031579,235.776577 139.743376,232.711111 134.250817,227.69009 C132.032668,231.918318 127.59637,234.825225 122.526316,234.825225 C119.67441,234.825225 117.033757,233.926727 114.868421,232.341141 C113.548094,239.581982 107.210526,245.078679 99.6054446,245.078679 C95.8557169,245.078679 92.3700544,243.757357 89.676588,241.537538 C84.131216,249.782583 74.73049,255.226426 64.0622505,255.226426 C47.0564428,255.226426 33.2722323,241.431832 33.2722323,224.413213 C33.2722323,219.180781 34.592559,214.265465 36.8635209,209.931532 C34.5397459,205.597598 33.2722323,200.682282 33.2722323,195.44985 C33.2722323,194.128529 33.3778584,192.754354 33.5362976,191.485886 C32.6912886,191.538739 31.8462795,191.591592 31.0012704,191.591592 C19.4880218,191.591592 9.45353902,185.249249 4.1722323,175.894294 C1.63720508,171.401802 0.211252269,166.275075 0.211252269,160.778378 C0.158439201,148.199399 7.44664247,137.575976 17.9036298,132.660661 Z" id="Shape" fill="#619700" fill-rule="nonzero"></path>
                    <g id="Group" opacity="0.6" transform="translate(0.000000, 6.342342)" fill-rule="nonzero" fill="#F6F8F7">
                        <path d="M290.683122,100.896096 C285.877132,94.2366366 273.360436,77.5351351 268.660073,77.4822823 C272.885118,80.1249249 275.314519,91.7525526 274.892015,94.6066066 C268.237568,78.9093093 255.139927,70.1357357 255.139927,70.1357357 C255.139927,70.1357357 258.519964,77.6408408 255.139927,78.3279279 C253.344283,71.4570571 247.165154,65.2204204 245.36951,63.581982 C246.795463,63.4234234 248.221416,63.3177177 249.700181,63.3177177 C271.1951,63.3177177 288.834664,79.8606607 290.683122,100.896096 Z" id="Shape" opacity="0.2"></path>
                        <path d="M216.163884,7.02942943 C235.704719,7.02942943 251.495826,22.8852853 251.495826,42.387988 C251.495826,44.9777778 251.23176,47.4618619 250.70363,49.8930931 C249.541742,45.4006006 243.204174,23.6252252 226.09274,17.7585586 C215.266062,14.0588589 205.125953,12.4732733 198.471506,11.839039 C203.647187,8.77357357 209.72069,7.02942943 216.163884,7.02942943 Z" id="Shape" opacity="0.2"></path>
                        <path d="M171.32559,10.412012 C172.064973,10.3591592 172.857169,10.3063063 173.596552,10.3063063 C180.250998,10.3063063 186.218875,13.1075075 190.496733,17.5471471 L190.496733,23.5195195 C190.496733,23.5195195 214.473866,30.8132132 211.041016,40.8552553 C192.186751,25.4222222 169.794011,28.9633634 169.794011,28.9633634 C169.794011,28.9633634 174.811252,15.1159159 161.872051,0.475675676 C165.674592,3.17117117 168.896189,6.5009009 171.32559,10.412012 Z" id="Shape" opacity="0.2"></path>
                        <path d="M12.9920145,107.555556 C12.9920145,91.6468468 25.0333938,78.5393393 40.5076225,76.9009009 C41.1941924,79.0678679 42.0392015,81.181982 43.1482759,83.1375375 C29.892196,83.5603604 18.854265,98.7291291 13.3088929,111.942342 C13.1504537,110.515315 12.9920145,109.035435 12.9920145,107.555556 Z" id="Shape" opacity="0.2"></path>
                        <path d="M68.8154265,28.1705706 C75.3114338,28.1705706 81.3849365,30.178979 86.3493648,33.6672673 C89.7822142,25.2108108 98.0210526,19.1855856 107.685844,19.027027 C107.685844,19.027027 90.5744102,26.9021021 88.092196,40.2738739 C76.1036298,30.6546547 53.499637,37.8954955 40.9829401,45.7705706 C45.9473684,35.3585586 56.5099819,28.1705706 68.8154265,28.1705706 Z" id="Shape" opacity="0.2"></path>
                        <path d="M17.9036298,126.318318 C18.5373866,126.846847 19.7520871,127.956757 20.6499093,129.753754 C6.86569873,142.702703 4.38348457,159.932733 4.11941924,169.340541 C1.58439201,164.848048 0.158439201,159.721321 0.158439201,154.224625 C0.158439201,141.857057 7.44664247,131.233634 17.9036298,126.318318 Z" id="Shape" opacity="0.2"></path>
                        <path d="M276.106715,163.315315 C273.888566,167.384985 270.50853,170.767568 266.389111,172.934535 C269.980399,178.536937 272.040109,185.196396 272.040109,192.331532 C272.040109,196.242643 271.406352,200.048048 270.244465,203.589189 C267.445372,194.70991 261.319056,181.17958 248.379855,173.463063 C256.777132,174.044444 269.82196,167.067868 276.106715,163.315315 Z" id="Shape" opacity="0.2"></path>
                    </g>
                </g>
                <g id="Group-9-Copy" transform="translate(1715.381672, 481.516896) rotate(-10.000000) translate(-1715.381672, -481.516896) translate(1332.881672, 60.016896)">
                    <g id="Group-4-Copy" transform="translate(382.329128, 421.226042) rotate(-12.000000) translate(-382.329128, -421.226042) translate(68.829128, 57.226042)">
                        <polygon id="Rectangle-5-Copy" fill="#FFFFFF" transform="translate(340.606329, 217.774435) scale(-1, 1) translate(-340.606329, -217.774435) " points="65.5919004 91.9966144 514.827365 43.5073205 615.620758 307.921834 136.67613 392.04155"></polygon>
                        <g id="Combined-Shape-Copy" transform="translate(313.576609, 363.962303) scale(-1, 1) rotate(-10.000000) translate(-313.576609, -363.962303) ">
                            <use fill="black" fill-opacity="1" filter="url(#filter-2)" xlink:href="#path-1"></use>
                            <use fill="#8B572A" fill-rule="evenodd" xlink:href="#path-1"></use>
                            <path stroke="#5E330E" stroke-width="1" d="M53.0772137,72.4412324 L53.0772137,42.0278846 L559.085039,41.3978888 L559.085039,59.6095698 L574.05113,344.598077 L535.644416,347.598066 L372.124133,356.840099 L371.495792,356.875613 L371.672451,357.479654 L454.060272,639.183927 L416.542116,648.61623 L348.260811,358.839152 L348.163709,358.427064 L347.741253,358.454911 L275.793547,363.197486 L275.416566,363.222336 L275.337505,363.59177 L206.841603,683.657389 L169.396367,686.476368 L252.117003,365.408405 L252.289223,364.739958 L251.6004,364.78471 L78.0960172,376.056854 L77.6389244,376.086551 L77.6285606,376.54449 L77.473721,383.386258 L54.9562601,385.14512 L54.9562601,378.078642 L54.6090809,351.865777 L54.9562597,72.9089569 L54.9568978,72.3961963 L54.4442838,72.4084782 L53.0772137,72.4412324 Z M84.5304033,72.1731013 L78.2077839,350.956088 L78.1957009,351.488864 L78.7281648,351.467004 L535.703863,332.706559 L536.183353,332.686874 L536.183353,332.20698 L536.183353,63.4027267 L536.183353,62.8928884 L535.673612,62.9028216 L85.0205332,71.6845329 L84.5412719,71.6938721 L84.5304033,72.1731013 Z"></path>
                        </g>
                    </g>
                    <text id="Bootje-bouwen" font-family="Galindo-Regular, Galindo" font-size="37" font-weight="normal" line-spacing="37" fill="#D0011B">
                        <tspan x="229.779387" y="201.462335">Bootje bouwen</tspan>
                    </text>
                    <text id="Bouw-je-eigen-stoomb" font-family="Galindo-Regular, Galindo" font-size="30" font-weight="normal" line-spacing="36" fill="#4A4A4A">
                        <tspan x="269.496736" y="274.649969">Bouw je eigen </tspan>
                        <tspan x="223.98404" y="310.649969">stoomboot met een </tspan>
                        <tspan x="278.652009" y="346.649969">popupmotor</tspan>
                    </text>
                </g>
                <g id="boom" transform="translate(852.000000, 52.000000)">
                    <path d="M226.906352,391.20015 C226.906352,383.136336 236.083485,376.545045 247.36225,376.545045 C251.635572,376.545045 255.628675,377.526727 258.921234,379.139489 C270.129946,379.20961 279.166969,385.730781 279.166969,393.794595 C279.166969,401.858408 269.989837,408.4497 258.711071,408.4497 C254.43775,408.4497 250.444646,407.468018 247.152087,405.855255 C236.01343,405.715015 226.906352,399.263964 226.906352,391.20015 Z" id="Shape" fill="#477831" fill-rule="nonzero"></path>
                    <path d="M239.516152,397.370721 C239.516152,397.370721 212.615245,421.141441 209.883122,426.04985 C206.800726,431.589339 207.221053,436.006907 207.221053,436.006907 L205.819964,422.684084 L238.325227,395.687838 L239.516152,397.370721 Z" id="Shape" fill="#624213" fill-rule="nonzero"></path>
                    <g id="Group" transform="translate(23.818512, 74.327327)" fill-rule="nonzero" fill="#477831">
                        <path d="M282.599637,209.378679 C293.458076,209.378679 302.284936,218.213814 302.284936,229.082432 C302.284936,239.951051 293.458076,248.786186 282.599637,248.786186 C271.741198,248.786186 262.914338,239.951051 262.914338,229.082432 C262.914338,218.143694 271.741198,209.378679 282.599637,209.378679 Z" id="Shape"></path>
                        <path d="M0.630490018,182.242192 C0.630490018,171.373574 9.45735027,162.538438 20.3157895,162.538438 C31.1742287,162.538438 40.0010889,171.373574 40.0010889,182.242192 C40.0010889,185.678078 39.1604356,188.833483 37.6192377,191.638288 C42.3128857,195.214414 45.3252269,200.894144 45.3252269,207.204955 C45.3252269,218.073574 36.4983666,226.908709 25.6399274,226.908709 C14.7814882,226.908709 5.95462795,218.073574 5.95462795,207.204955 C5.95462795,203.769069 6.79528131,200.613664 8.33647913,197.808859 C3.64283122,194.232733 0.630490018,188.623123 0.630490018,182.242192 Z" id="Shape"></path>
                        <path d="M82.0337568,221.299099 C97.0954628,221.299099 109.565154,232.307958 111.876951,246.682583 C114.188748,238.338288 121.754628,232.237838 130.791652,232.237838 C134.854809,232.237838 138.63775,233.5 141.720145,235.603604 C145.292922,230.414715 151.24755,226.978829 158.042831,226.978829 C160.354628,226.978829 162.59637,227.39955 164.698004,228.170871 C176.327042,224.103904 213.315789,207.765916 215.977858,209.378679 C218.709982,201.735586 221.792377,225.295946 230.33902,225.295946 C241.197459,225.295946 250.024319,234.131081 250.024319,244.9997 C250.024319,255.868318 241.197459,264.703453 230.33902,264.703453 C226.55608,264.703453 223.123412,263.651652 220.111071,261.828529 C217.378947,269.471622 210.163339,274.940991 201.546642,274.940991 C190.688203,274.940991 181.861343,266.105856 181.861343,255.237237 C181.861343,252.712913 180.180036,249.908108 177.658076,247.173423 C177.447913,257.831682 168.691107,266.456456 157.972777,266.456456 C153.909619,266.456456 150.126679,265.194294 146.974229,263.090691 C143.401452,268.27958 137.446824,271.715465 130.721597,271.715465 C128.970236,271.715465 127.358984,271.505105 125.747731,271.084384 C124.136479,277.745796 118.181851,282.724324 111.036298,282.724324 C106.132486,282.724324 101.719056,280.34024 98.9869328,276.693994 C94.153176,279.98964 88.2686025,281.953003 81.8936479,281.953003 C65.1506352,281.953003 51.630127,268.3497 51.630127,251.661111 C51.7001815,234.832282 65.2907441,221.299099 82.0337568,221.299099 Z" id="Shape"></path>
                        <ellipse id="Oval" cx="319.308167" cy="167.096246" rx="30.2635209" ry="30.2918919"></ellipse>
                        <ellipse id="Oval" cx="298.572051" cy="17.0391892" rx="16.7430127" ry="16.7587087"></ellipse>
                        <path d="M18.2141561,36.8831832 C18.2141561,27.6273273 25.7099819,20.1244745 34.9571688,20.1244745 C44.2043557,20.1244745 51.7001815,27.6273273 51.7001815,36.8831832 C51.7001815,46.139039 44.2043557,53.6418919 34.9571688,53.6418919 C25.7099819,53.6418919 18.2141561,46.139039 18.2141561,36.8831832 Z" id="Shape"></path>
                    </g>
                    <path d="M199.655172,381.243093 C201.476588,370.093994 204.488929,357.472372 216.818512,346.183033 C225.2951,338.3997 265.226134,315.750901 265.226134,315.750901 L260.462432,310.001051 L202.177132,345.832432 C202.177132,345.762312 201.82686,353.615766 199.655172,381.243093 Z" id="Shape" fill="#624213" fill-rule="nonzero"></path>
                    <path d="M267.748094,463.774474 L117.271143,466.509159 C117.271143,466.509159 134.924864,462.722673 150.406897,457.253303 C168.060617,451.012613 171.42323,450.732132 177.938294,431.7997 C185.784392,409.291141 178.708893,389.377027 176.397096,379.34985 C174.155354,369.322673 154.610163,346.954354 154.610163,346.954354 L108.654446,329.564565 L114.889292,324.656156 C114.889292,324.656156 146.133575,336.786937 149.496189,335.805255 C152.928857,334.893694 141.580036,320.659309 141.580036,320.659309 L148.795644,314.97958 C148.795644,314.97958 174.435572,358.874775 175.486388,360.066817 C176.537205,361.258859 179.269328,364.975225 183.052269,363.081982 C186.835209,361.188739 185.854446,302.287838 185.854446,302.287838 L205.539746,306.424925 C205.539746,306.424925 203.858439,331.808408 205.890018,333.351051 C207.991652,334.893694 232.020327,322.201952 233.49147,319.677628 C235.032668,317.223423 231.249728,299.973874 231.249728,299.973874 L236.153539,298.290991 C236.153539,298.290991 237.484574,314.208258 239.586207,315.750901 C241.68784,317.293544 257.029764,307.196246 257.029764,307.196246 L261.162976,313.997898 C261.162976,313.997898 229.007985,332.369369 216.678403,342.606907 C204.34882,352.844444 200.916152,364.414264 200.986207,375.212763 C201.056261,386.011261 200.635935,411.955706 203.998548,412.727027 C207.431216,413.498348 234.262069,394.355556 234.262069,394.355556 L236.924138,397.23048 C236.924138,397.23048 210.233394,419.388438 208.13176,422.824324 C206.030127,426.26021 204.34882,442.878679 224.594555,452.555255 C244.910345,462.161712 267.748094,463.774474 267.748094,463.774474 Z" id="Shape" fill="#815719" fill-rule="nonzero"></path>
                    <path d="M230.619238,357.752853 C233.071143,357.752853 235.312886,358.383934 237.344465,359.435736 C237.344465,359.435736 237.344465,359.435736 237.344465,359.365616 C237.344465,351.371922 243.859528,344.850751 251.845735,344.850751 C255.06824,344.850751 258.080581,345.902553 260.462432,347.725676 C263.124501,344.14955 267.327768,341.835586 272.09147,341.835586 C280.077677,341.835586 286.59274,348.356757 286.59274,356.35045 C286.59274,358.173574 286.242468,359.926577 285.611978,361.539339 C293.107804,365.115465 298.291833,372.688438 298.291833,381.593694 C298.291833,393.864715 288.344102,403.751652 276.154628,403.751652 C270.690381,403.751652 265.716515,401.788288 261.863521,398.492643 C258.711071,401.157207 254.647913,402.69985 250.234483,402.69985 C240.917241,402.69985 233.281307,395.687838 232.23049,386.712462 C231.740109,386.782583 231.179673,386.782583 230.689292,386.782583 C222.703085,386.782583 216.188022,380.261411 216.188022,372.267718 C216.117967,364.203904 222.633031,357.752853 230.619238,357.752853 Z" id="Shape" fill="#619700" fill-rule="nonzero"></path>
                    <path d="M263.26461,24.0512012 C259.551724,26.2249249 256.119056,28.8894895 253.106715,31.9747748 C253.036661,31.8345345 252.896552,31.7644144 252.826497,31.6241742 L252.826497,23.35 C252.756443,23.4201201 256.749546,23.4201201 263.26461,24.0512012 Z" id="Shape"></path>
                    <path d="M57.7949183,110.158709 C56.4638838,110.158709 55.0627949,110.228829 53.7317604,110.369069 C52.0504537,104.8997 51.2798548,99.0797297 50.999637,93.8207207 C52.0504537,99.8510511 54.4323049,105.390541 57.7949183,110.158709 Z" id="Shape"></path>
                    <path d="M51.4199637,77.6930931 C51.3499093,78.3241742 50.5793103,85.2660661 51.0696915,93.8908408 C50.6493648,91.5768769 50.4392015,89.1226727 50.4392015,86.6684685 C50.369147,83.5831832 50.7194192,80.568018 51.4199637,77.6930931 Z" id="Shape" fill="#FCFCFC" fill-rule="nonzero"></path>
                    <path d="M23.7484574,176.001502 C24.2388385,175.791141 24.7292196,175.510661 25.2196007,175.3003 C21.2965517,169.971171 18.6344828,163.73048 17.723775,156.858709 C17.4435572,154.965465 17.3034483,153.002102 17.3034483,151.038739 C17.3034483,129.932583 33.2758621,112.542793 53.8018149,110.369069 C55.1328494,110.228829 56.4638838,110.158709 57.8649728,110.158709 C54.5023593,105.390541 52.1205082,99.8510511 51.0696915,93.8908408 C50.5793103,85.2660661 51.3499093,78.3241742 51.4199637,77.6930931 C52.1205082,74.6779279 53.1012704,71.803003 54.3622505,69.1384384 C60.9473684,55.3247748 74.9582577,45.7884384 91.2809437,45.7884384 C99.8976407,45.7884384 107.953902,48.453003 114.53902,53.0809309 C119.092559,41.8617117 130.021053,33.868018 142.841016,33.6576577 C148.655535,14.3746246 166.519419,0.350600601 187.675862,0.350600601 C197.833757,0.350600601 207.221053,3.57612613 214.856987,9.0454955 C219.830853,12.6216216 224.03412,17.0391892 227.326679,22.2280781 C228.307441,22.157958 229.358258,22.0878378 230.33902,22.0878378 C239.16588,22.0878378 247.082033,25.8042042 252.756443,31.6942943 C252.826497,31.8345345 252.966606,31.9046547 253.036661,32.0448949 C256.049002,28.9596096 259.48167,26.295045 263.194555,24.1213213 C270.129946,20.1244745 278.116152,17.8105105 286.662795,17.8105105 C312.58294,17.8105105 333.52922,38.8465465 333.52922,64.7208709 C333.52922,68.1567568 333.178947,71.4524024 332.478403,74.6779279 C331.63775,78.5345345 330.37677,82.1807808 328.625408,85.6166667 C327.504537,87.8605105 326.243557,90.0342342 324.772414,92.0677177 C324.56225,92.4183183 324.282033,92.6987988 324.071869,93.0493994 C324.492196,92.9792793 324.982577,92.9792793 325.402904,92.9091592 C327.294374,92.6987988 329.185844,92.5585586 331.147368,92.5585586 C359.659528,92.5585586 383.127768,114.506156 385.579673,142.413964 C385.719782,144.026727 385.789837,145.639489 385.789837,147.252252 C385.789837,165.413363 376.962976,181.470871 363.372414,191.427928 C367.505626,196.686937 369.957532,203.348348 369.957532,210.500601 C369.957532,215.82973 368.626497,220.878378 366.244646,225.225826 C363.302359,230.625075 358.818875,235.112763 353.354628,237.987688 C358.11833,245.42042 360.850454,254.255556 360.850454,263.721772 C360.850454,268.910661 360.0098,273.959309 358.468603,278.657357 C352.233757,297.73003 334.299819,311.473574 313.21343,311.473574 C310.411252,311.473574 307.749183,311.193093 305.087114,310.772372 C299.412704,317.223423 291.076225,321.360511 281.758984,321.360511 C271.110708,321.360511 261.723412,316.031381 256.119056,307.827327 C255.558621,307.897447 255.06824,307.897447 254.507804,307.897447 C247.082033,307.897447 240.707078,303.26952 238.115064,296.748348 C230.619238,306.495045 218.920145,312.805856 205.679855,312.805856 C195.031579,312.805856 185.364065,308.738889 178.078403,302.077477 C175.136116,307.687087 169.251543,311.543694 162.526316,311.543694 C158.743376,311.543694 155.240653,310.351652 152.368421,308.248048 C150.61706,317.854505 142.210526,325.146997 132.122686,325.146997 C127.14882,325.146997 122.525227,323.393994 118.95245,320.448949 C111.596733,331.387688 99.1270417,338.61006 84.9760436,338.61006 C62.4185118,338.61006 44.1343013,320.308709 44.1343013,297.73003 C44.1343013,290.788138 45.8856624,284.266967 48.8980036,278.517117 C45.815608,272.767267 44.1343013,266.246096 44.1343013,259.304204 C44.1343013,257.551201 44.2744102,255.728078 44.4845735,254.045195 C43.3637024,254.115315 42.2428312,254.185435 41.1219601,254.185435 C25.8500907,254.185435 12.5397459,245.771021 5.53430127,233.35976 C2.17168784,227.39955 0.280217786,220.597898 0.280217786,213.305405 C0.210163339,196.616817 9.87767695,182.522673 23.7484574,176.001502 Z" id="Shape" fill="#619700" fill-rule="nonzero"></path>
                    <g id="Group" opacity="0.6" transform="translate(0.000000, 8.414414)" fill-rule="nonzero" fill="#F6F8F7">
                        <path d="M385.579673,133.859309 C379.204719,125.024174 362.601815,102.866216 356.366969,102.796096 C361.971325,106.302102 365.193829,121.728529 364.633394,125.515015 C355.806534,104.689339 338.433031,93.0493994 338.433031,93.0493994 C338.433031,93.0493994 342.916515,103.006456 338.433031,103.918018 C336.05118,94.8024024 327.854809,86.5282282 325.472958,84.3545045 C327.364428,84.1441441 329.255898,84.0039039 331.217423,84.0039039 C359.729583,84.0039039 383.127768,105.951502 385.579673,133.859309 Z" id="Shape" opacity="0.2"></path>
                        <path d="M286.732849,9.32597598 C312.652995,9.32597598 333.599274,30.362012 333.599274,56.2363363 C333.599274,59.6722222 333.249002,62.9678679 332.548457,66.1933934 C331.00726,60.2331832 322.600726,31.3436937 299.903085,23.5603604 C285.541924,18.651952 272.09147,16.5483483 263.26461,15.7069069 C270.129946,11.6399399 278.186207,9.32597598 286.732849,9.32597598 Z" id="Shape" opacity="0.2"></path>
                        <path d="M227.256624,13.8136637 C228.237387,13.7435435 229.288203,13.6734234 230.268966,13.6734234 C239.095826,13.6734234 247.011978,17.3897898 252.686388,23.2798799 L252.686388,31.2034535 C252.686388,31.2034535 284.491107,40.88003 279.937568,54.2028529 C254.928131,33.7277778 225.225045,38.4258258 225.225045,38.4258258 C225.225045,38.4258258 231.880218,20.0543544 214.716878,0.631081081 C219.760799,4.20720721 224.03412,8.62477477 227.256624,13.8136637 Z" id="Shape" opacity="0.2"></path>
                        <path d="M17.2333938,142.694444 C17.2333938,121.588288 33.2058076,104.198498 53.7317604,102.024775 C54.6424682,104.8997 55.7633394,107.704505 57.2344828,110.298949 C39.6508167,110.85991 25.0094374,130.984384 17.6537205,148.514414 C17.4435572,146.621171 17.2333938,144.657808 17.2333938,142.694444 Z" id="Shape" opacity="0.2"></path>
                        <path d="M91.2809437,37.374024 C99.8976407,37.374024 107.953902,40.0385886 114.53902,44.6665165 C119.092559,33.4472973 130.021053,25.4536036 142.841016,25.2432432 C142.841016,25.2432432 120.143376,35.6911411 116.850817,53.4315315 C100.948457,40.6696697 70.9651543,50.2761261 54.3622505,60.724024 C60.9473684,46.9103604 74.9582577,37.374024 91.2809437,37.374024 Z" id="Shape" opacity="0.2"></path>
                        <path d="M23.7484574,167.587087 C24.5891107,168.288288 26.200363,169.760811 27.3912886,172.144895 C9.10707804,189.324324 5.81451906,212.183483 5.46424682,224.664865 C2.10163339,218.704655 0.210163339,211.903003 0.210163339,204.610511 C0.210163339,188.202402 9.87767695,174.108258 23.7484574,167.587087 Z" id="Shape" opacity="0.2"></path>
                        <path d="M366.244646,216.671171 C363.302359,222.07042 358.818875,226.558108 353.354628,229.433033 C358.11833,236.865766 360.850454,245.700901 360.850454,255.167117 C360.850454,260.356006 360.0098,265.404655 358.468603,270.102703 C354.755717,258.322523 346.629401,240.371772 329.466062,230.134234 C340.604719,230.905556 357.908167,221.6497 366.244646,216.671171 Z" id="Shape" opacity="0.2"></path>
                    </g>
                </g>
                <g id="Group-8" transform="translate(646.018952, 528.315218) rotate(-4.000000) translate(-646.018952, -528.315218) translate(293.018952, 388.815218)">
                    <g id="Group-13" transform="translate(0.936409, 78.143392)">
                        <polygon id="Rectangle-5" fill="#FFFFFF" points="5.65920398 22.8978851 92.3070803 9.06569343 111.747962 84.4933173 19.3698257 108.489543"></polygon>
                        <g id="Combined-Shape" transform="translate(65.616996, 100.479578) rotate(-10.000000) translate(-65.616996, -100.479578) ">
                            <use fill="#8B572A" fill-rule="evenodd" xlink:href="#path-3"></use>
                            <path stroke="#5E330E" stroke-width="1" d="M15.775816,16.9475203 L15.775816,9.00029165 L112.56674,8.82206348 L112.56674,13.6590661 L115.442107,94.6433489 L108.399238,95.456972 L76.8733478,98.0920204 L76.3159996,98.13861 L76.4244966,98.6872775 L92.2609308,178.771888 L85.8031672,181.17304 L72.7067378,98.9721778 L72.6327131,98.5075552 L72.1644505,98.553206 L58.2872829,99.9060863 L57.8970941,99.9441257 L57.8409513,100.332124 L44.6698152,191.356753 L38.2876961,192.067347 L54.1619497,100.942321 L54.27453,100.296062 L53.6215455,100.358804 L20.1562751,103.574328 L19.7110003,103.617112 L19.7041561,104.064385 L19.679031,105.70632 L16.1382437,106.115367 L16.1382437,104.506445 L16.0712687,97.0263007 L16.1382435,17.4531297 L16.1386798,16.934662 L15.775816,16.9475203 Z M21.0353735,17.2385419 L19.815876,96.7649568 L19.8076039,97.3044012 L20.34612,97.271704 L108.486921,91.9200469 L108.956618,91.8915282 L108.956618,91.420966 L108.956618,14.7411127 L108.956618,14.2264949 L108.442214,14.2413202 L21.5209106,16.7464157 L21.0427087,16.7601976 L21.0353735,17.2385419 Z"></path>
                        </g>
                    </g>
                    <g id="Group-4" transform="translate(573.221393, 0.000000)">
                        <polygon id="Rectangle-5-Copy" fill="#FFFFFF" transform="translate(70.830449, 58.777618) scale(-1, 1) translate(-70.830449, -58.777618) " points="17.7860697 22.8978851 104.433946 9.06569343 123.874828 84.4933173 31.4966913 108.489543"></polygon>
                        <g id="Combined-Shape-Copy" transform="translate(65.616996, 100.479578) scale(-1, 1) rotate(-10.000000) translate(-65.616996, -100.479578) ">
                            <use fill="#8B572A" fill-rule="evenodd" xlink:href="#path-4"></use>
                            <path stroke="#5E330E" stroke-width="1" d="M15.775816,16.9475203 L15.775816,9.00029165 L112.56674,8.82206348 L112.56674,13.6590661 L115.442107,94.6433489 L108.399238,95.456972 L76.8733478,98.0920204 L76.3159996,98.13861 L76.4244966,98.6872775 L92.2609308,178.771888 L85.8031672,181.17304 L72.7067378,98.9721778 L72.6327131,98.5075552 L72.1644505,98.553206 L58.2872829,99.9060863 L57.8970941,99.9441257 L57.8409513,100.332124 L44.6698152,191.356753 L38.2876961,192.067347 L54.1619497,100.942321 L54.27453,100.296062 L53.6215455,100.358804 L20.1562751,103.574328 L19.7110003,103.617112 L19.7041561,104.064385 L19.679031,105.70632 L16.1382437,106.115367 L16.1382437,104.506445 L16.0712687,97.0263007 L16.1382435,17.4531297 L16.1386798,16.934662 L15.775816,16.9475203 Z M21.0353735,17.2385419 L19.815876,96.7649568 L19.8076039,97.3044012 L20.34612,97.271704 L108.486921,91.9200469 L108.956618,91.8915282 L108.956618,91.420966 L108.956618,14.7411127 L108.956618,14.2264949 L108.442214,14.2413202 L21.5209106,16.7464157 L21.0427087,16.7601976 L21.0353735,17.2385419 Z"></path>
                        </g>
                    </g>
                    <g id="Group-4-Copy" transform="translate(536.864605, 111.037193) rotate(-12.000000) translate(-536.864605, -111.037193) translate(489.364605, 39.037193)">
                        <polygon id="Rectangle-5-Copy" fill="#FFFFFF" transform="translate(50.841488, 42.209964) scale(-1, 1) translate(-50.841488, -42.209964) " points="12.766688 16.498576 74.9617895 6.58643872 88.9162872 60.6378129 22.6080545 77.8334888"></polygon>
                        <g id="Combined-Shape-Copy" transform="translate(47.099316, 72.093555) scale(-1, 1) rotate(-10.000000) translate(-47.099316, -72.093555) ">
                            <use fill="#8B572A" fill-rule="evenodd" xlink:href="#path-5"></use>
                            <path stroke="#5E330E" stroke-width="1" d="M11.4648495,12.0877694 L11.4648495,6.68101311 L80.6583352,6.55381374 L80.6583352,9.87804588 L82.717684,67.7854858 L77.7919427,68.3535839 L55.1673434,70.2414189 L54.6097338,70.2879529 L54.7184542,70.836837 L66.0622148,128.106783 L61.7009284,129.725721 L52.3275984,70.9909301 L52.2534847,70.5265217 L51.7854113,70.5720782 L41.8244996,71.5415512 L41.4343349,71.579525 L41.3781051,71.9674794 L31.9396854,137.087274 L27.6540359,137.563651 L39.015969,72.4496125 L39.1287454,71.8033024 L38.4756676,71.8659494 L14.454584,74.170191 L14.009243,74.2129107 L14.0023864,74.6602435 L13.9862586,75.7124537 L11.724997,75.9732507 L11.724997,74.9792038 L11.6769172,69.6176622 L11.7249968,12.5969887 L11.7254338,12.0785508 L11.4648495,12.0877694 Z M14.9579229,12.4409099 L14.0825781,69.4294744 L14.0742928,69.968878 L14.6127717,69.9362375 L77.8794818,66.1012443 L78.3492292,66.07277 L78.3492292,65.6021604 L78.3492292,10.6534396 L78.3492292,10.1388464 L77.8348489,10.1536464 L15.4434837,11.9487958 L14.9652705,11.9625552 L14.9579229,12.4409099 Z"></path>
                        </g>
                    </g>
                </g>
                <g id="boom-copy-3" transform="translate(8292.000000, 378.500000) scale(-1, 1) translate(-8292.000000, -378.500000) translate(8003.000000, 29.000000)">
                    <path d="M339.820554,586.058106 C339.820554,573.970674 353.575704,564.090513 370.480888,564.090513 C376.885958,564.090513 382.871023,565.562026 387.806077,567.979513 C404.60626,568.084621 418.151407,577.859674 418.151407,589.947105 C418.151407,602.034537 404.396257,611.914698 387.491073,611.914698 C381.086003,611.914698 375.100938,610.443185 370.165884,608.025698 C353.470702,607.815482 339.820554,598.145537 339.820554,586.058106 Z" id="Shape" fill="#477831" fill-rule="nonzero"></path>
                    <path d="M358.72076,595.307618 C358.72076,595.307618 318.40032,630.939264 314.305276,638.296831 C309.685225,646.600371 310.315232,653.222181 310.315232,653.222181 L308.215209,633.251642 L356.93574,592.785024 L358.72076,595.307618 Z" id="Shape" fill="#624213" fill-rule="nonzero"></path>
                    <g id="Group" transform="translate(36.102092, 111.414585)" fill-rule="nonzero" fill="#477831">
                        <path d="M422.894761,313.512804 C439.169938,313.512804 452.400082,326.756425 452.400082,343.04818 C452.400082,359.339935 439.169938,372.583556 422.894761,372.583556 C406.619583,372.583556 393.389439,359.339935 393.389439,343.04818 C393.389439,326.651317 406.619583,313.512804 422.894761,313.512804 Z" id="Shape"></path>
                        <path d="M122.276485,331.381181 C144.851731,331.381181 163.541935,347.883153 167.006973,369.430313 C170.47201,356.922449 181.812134,347.778044 195.357281,347.778044 C201.447348,347.778044 207.11741,349.66999 211.73746,352.823233 C217.092518,345.045234 226.017616,339.894937 236.202727,339.894937 C239.667764,339.894937 243.027801,340.525586 246.177835,341.681775 C263.608025,335.585505 319.048629,311.095318 323.038673,313.512804 C327.133717,302.056021 331.753768,337.372343 344.563907,337.372343 C360.839085,337.372343 374.069229,350.615963 374.069229,366.907719 C374.069229,383.199474 360.839085,396.443094 344.563907,396.443094 C338.893845,396.443094 333.748789,394.866473 329.23374,392.133662 C325.138696,403.590445 314.323578,411.788877 301.408437,411.788877 C285.13326,411.788877 271.903116,398.545256 271.903116,382.253501 C271.903116,378.469609 269.383088,374.265286 265.603047,370.16607 C265.288043,386.142501 252.1629,399.070797 236.097725,399.070797 C230.007659,399.070797 224.337597,397.178851 219.612546,394.025608 C214.257487,401.803608 205.33239,406.953904 195.25228,406.953904 C192.627252,406.953904 190.212225,406.63858 187.797199,406.007932 C185.382173,415.993201 176.457075,423.455876 165.746959,423.455876 C158.396879,423.455876 151.781807,419.882201 147.686762,414.416579 C140.441683,419.35666 131.621587,422.299687 122.066483,422.299687 C96.9712094,422.299687 76.7059886,401.908716 76.7059886,376.892988 C76.8109897,351.667044 97.1812117,331.381181 122.276485,331.381181 Z" id="Shape"></path>
                        <ellipse id="Oval" cx="477.91536" cy="250.13262" rx="45.3604943" ry="45.4066989"></ellipse>
                        <ellipse id="Oval" cx="446.835022" cy="25.2012876" rx="25.0952734" ry="25.1208357"></ellipse>
                    </g>
                    <path d="M298.975109,571.132756 C301.705138,554.420568 306.220188,535.50111 324.700389,518.578706 C337.405527,506.911707 397.25618,472.961791 397.25618,472.961791 L390.116102,464.342927 L302.75515,518.053165 C302.75515,517.948057 302.230144,529.720164 298.975109,571.132756 Z" id="Shape" fill="#624213" fill-rule="nonzero"></path>
                    <path d="M401.036221,694.844989 L175.493763,698.944204 C175.493763,698.944204 201.954052,693.268367 225.159304,685.069935 C251.619593,675.715314 256.659648,675.294882 266.424754,646.915695 C278.184882,613.175995 267.579767,583.325295 264.114729,568.294837 C260.754692,553.264379 231.459373,519.734895 231.459373,519.734895 L162.578622,493.668086 L171.923724,486.310519 C171.923724,486.310519 218.754235,504.494221 223.794289,503.022707 C228.939346,501.656302 211.92916,480.319358 211.92916,480.319358 L222.744278,471.805602 C222.744278,471.805602 261.174697,537.603272 262.749714,539.39011 C264.324731,541.176947 268.419776,546.747677 274.089838,543.909758 C279.759899,541.071839 278.289883,452.781036 278.289883,452.781036 L307.795205,458.982414 C307.795205,458.982414 305.275177,497.031546 308.320211,499.343924 C311.470245,501.656302 347.485637,482.631736 349.690661,478.847844 C352.000686,475.169061 346.330625,449.312468 346.330625,449.312468 L353.680705,446.789874 C353.680705,446.789874 355.675727,470.649413 358.825761,472.961791 C361.975795,475.274169 384.971046,460.138603 384.971046,460.138603 L391.166113,470.334088 C391.166113,470.334088 342.970588,497.87241 324.490387,513.218193 C306.010185,528.563975 300.865129,545.906812 300.97013,562.093459 C301.075132,578.280106 300.445125,617.170103 305.48518,618.326292 C310.630236,619.482481 350.845674,590.78797 350.845674,590.78797 L354.835717,595.097402 C354.835717,595.097402 314.830281,628.311562 311.680247,633.461859 C308.530213,638.612155 306.010185,663.522775 336.355516,678.027693 C366.805848,692.427502 401.036221,694.844989 401.036221,694.844989 Z" id="Shape" fill="#815719" fill-rule="nonzero"></path>
                    <path d="M345.385614,535.921542 C349.060654,535.921542 352.420691,536.867515 355.465724,538.444137 C355.465724,538.444137 355.465724,538.444137 355.465724,538.339029 C355.465724,526.356705 365.230831,516.581652 377.200961,516.581652 C382.031014,516.581652 386.546063,518.158274 390.116102,520.891084 C394.106145,515.530571 400.406214,512.062004 407.546292,512.062004 C419.516422,512.062004 429.281529,521.837057 429.281529,533.81938 C429.281529,536.552191 428.756523,539.179893 427.811513,541.59738 C439.046635,546.957893 446.81672,558.309567 446.81672,571.658296 C446.81672,590.052213 431.906557,604.872455 413.636358,604.872455 C405.446269,604.872455 397.991188,601.929429 392.216125,596.989348 C387.491073,600.983456 381.401007,603.295834 374.785935,603.295834 C360.820783,603.295834 349.375658,592.785024 347.800641,579.331187 C347.065633,579.436295 346.225624,579.436295 345.490616,579.436295 C333.520485,579.436295 323.755379,569.661242 323.755379,557.678919 C323.650378,545.591487 333.415484,535.921542 345.385614,535.921542 Z" id="Shape" fill="#619700" fill-rule="nonzero"></path>
                    <path d="M394.316148,35.7120975 C388.751087,38.9704486 383.606031,42.9645564 379.090982,47.5893128 C378.985981,47.3790966 378.775978,47.2739885 378.670977,47.0637723 L378.670977,34.6610165 C378.565976,34.7661246 384.551041,34.7661246 394.316148,35.7120975 Z" id="Shape"></path>
                    <path d="M35.3172358,263.481349 C36.0522438,263.166025 36.7872518,262.745592 37.5222598,262.430268 C31.6421957,254.442052 27.6521523,245.087431 26.2871374,234.786838 C25.8671328,231.948919 25.6571305,229.005892 25.6571305,226.062865 C25.6571305,194.425328 49.5973914,168.358519 80.3627266,165.100168 C82.3577484,164.889952 84.3527701,164.784844 86.452793,164.784844 C81.4127381,157.637493 77.8426992,149.333953 76.267682,140.399764 C75.532674,127.471468 76.6876866,117.065766 76.7926877,116.119794 C77.8426992,111.600145 79.3127152,107.290713 81.2027358,103.296605 C91.0728433,82.5903098 112.073072,68.2956083 136.538339,68.2956083 C149.453479,68.2956083 161.528611,72.2897161 171.398719,79.2268507 C178.223793,62.4095548 194.603971,50.4272314 213.819181,50.1119071 C222.534276,21.2071798 249.309568,0.185559952 281.019913,0.185559952 C296.245079,0.185559952 310.315232,5.02053252 321.760357,13.2189643 C329.215438,18.5794773 335.515507,25.2012876 340.450561,32.9792869 C341.920577,32.8741788 343.495594,32.7690707 344.96561,32.7690707 C358.195754,32.7690707 370.060883,38.3398 378.565976,47.1688804 C378.670977,47.3790966 378.880979,47.4842047 378.985981,47.6944209 C383.50103,43.0696645 388.646086,39.0755567 394.211146,35.8172056 C404.60626,29.826044 416.57639,26.3574767 429.38653,26.3574767 C468.236953,26.3574767 499.632295,57.8899065 499.632295,96.6747952 C499.632295,101.825092 499.107289,106.765173 498.057278,111.600145 C496.797264,117.381091 494.907244,122.846712 492.282215,127.997009 C490.602197,131.360468 488.712176,134.618819 486.507152,137.666954 C486.192149,138.192494 485.772144,138.612927 485.457141,139.138467 C486.087148,139.033359 486.822156,139.033359 487.452162,138.928251 C490.287193,138.612927 493.122224,138.402711 496.062256,138.402711 C538.797722,138.402711 573.973105,171.301546 577.648145,213.134569 C577.858147,215.552056 577.963149,217.969542 577.963149,220.387028 C577.963149,247.610026 564.733004,271.679781 544.362783,286.605131 C550.55785,294.488238 554.23289,304.473508 554.23289,315.194534 C554.23289,323.182749 552.237868,330.750532 548.667829,337.267235 C544.257781,345.360558 537.537708,352.087477 529.347619,356.396909 C536.487697,367.538367 540.582741,380.781988 540.582741,394.971581 C540.582741,402.74958 539.322728,410.317364 537.012702,417.359606 C527.667601,445.949009 500.787308,466.550197 469.181963,466.550197 C464.981918,466.550197 460.991874,466.129764 457.001831,465.499116 C448.496738,475.169061 436.001602,481.370439 422.03645,481.370439 C406.076276,481.370439 392.006122,473.382223 383.606031,461.084576 C382.766022,461.189684 382.031014,461.189684 381.191005,461.189684 C370.060883,461.189684 360.505779,454.252549 356.620737,444.477496 C345.385614,459.087522 327.850423,468.547251 308.005207,468.547251 C292.045033,468.547251 277.554875,462.450981 266.634756,452.465711 C262.224708,460.874359 253.404612,466.655305 243.324502,466.655305 C237.654441,466.655305 232.404383,464.868467 228.099336,461.715224 C225.474308,476.115034 212.874171,487.046276 197.754006,487.046276 C190.298925,487.046276 183.368849,484.418574 178.013791,480.004033 C166.988671,496.400897 148.298467,507.227031 127.088236,507.227031 C93.2778673,507.227031 65.8725687,479.793817 65.8725687,445.949009 C65.8725687,435.543307 68.4975973,425.768254 73.0126465,417.14939 C68.3925962,408.530526 65.8725687,398.755473 65.8725687,388.349771 C65.8725687,385.722068 66.082571,382.989258 66.3975745,380.466663 C64.7175561,380.571771 63.0375378,380.67688 61.3575195,380.67688 C38.4672701,380.67688 18.5170527,368.063908 8.01693832,349.459774 C2.9768834,340.525586 0.141852507,330.3301 0.141852507,319.398858 C0.0368513631,294.38313 14.5270093,273.256402 35.3172358,263.481349 Z" id="Shape" fill="#619700" fill-rule="nonzero"></path>
                    <g id="Group" opacity="0.6" transform="translate(0.000000, 12.952952)" fill-rule="nonzero" fill="#F6F8F7">
                        <path d="M577.648145,199.971401 C568.093041,186.72778 543.20777,153.513621 533.862668,153.408513 C542.26276,158.663918 547.092812,181.787699 546.252803,187.463537 C533.022659,156.246431 506.982375,138.798487 506.982375,138.798487 C506.982375,138.798487 513.702448,153.723837 506.982375,155.090242 C503.412336,141.426189 491.127202,129.023434 487.557164,125.765082 C490.392194,125.449758 493.227225,125.239542 496.167257,125.239542 C538.902723,125.239542 573.973105,158.138377 577.648145,199.971401 Z" id="Shape" opacity="0.2"></path>
                        <path d="M429.491531,13.2994161 C468.341954,13.2994161 499.737296,44.8318459 499.737296,83.6167346 C499.737296,88.7670315 499.212291,93.7071121 498.162279,98.5420847 C495.852254,89.6078962 483.252117,46.3033593 449.231746,34.6363603 C427.706511,27.2787933 407.546292,24.1255504 394.316148,22.8642532 C404.60626,16.7679834 416.681391,13.2994161 429.491531,13.2994161 Z" id="Shape" opacity="0.2"></path>
                        <path d="M340.345559,20.0263345 C341.815575,19.9212264 343.390593,19.8161183 344.860609,19.8161183 C358.090753,19.8161183 369.955882,25.3868475 378.460975,34.2159279 L378.460975,46.0931431 C378.460975,46.0931431 426.131494,60.5980608 419.30642,80.5685997 C381.821011,49.8770347 337.300526,56.9192774 337.300526,56.9192774 C337.300526,56.9192774 347.275635,29.3809553 321.550355,0.266011805 C329.110437,5.62652487 335.515507,12.2483351 340.345559,20.0263345 Z" id="Shape" opacity="0.2"></path>
                        <path d="M548.667829,324.104066 C544.257781,332.19739 537.537708,338.924308 529.347619,343.23374 C536.487697,354.375198 540.582741,367.618819 540.582741,381.808412 C540.582741,389.586412 539.322728,397.154195 537.012702,404.196438 C531.447642,386.538277 519.267509,359.630603 493.542229,344.284821 C510.237411,345.44101 536.172693,331.566741 548.667829,324.104066 Z" id="Shape" opacity="0.2"></path>
                    </g>
                </g>
                <g id="Group-14" transform="translate(0.000000, 481.000000)">
                    <path d="M521.623107,94.3497124 C949.826536,-0.3095156 994.080449,-13.4487212 1372.42188,43.7872124 C1406.54814,48.9498731 1702.76849,88.7995564 1736.24219,94.3497124 C1769.09822,99.7974544 1837.28823,160.898863 1869.47656,166.585937 C2022.77215,193.67039 2139.20308,183.857669 2232.34375,166.585937 C2325.48442,149.314206 2295.93594,131.084798 2317.60156,131.664062 C2411.30468,134.169364 2461.89325,210.62193 2557.30009,228.412212 C3057.41272,321.667004 3851.95766,302.886755 4078.41416,176.232939 C4604.25,-117.859375 5430.57812,348.46875 6423.12224,43.7872124 C7018.31036,-138.917847 8656.93384,305.565287 8754.98059,579.951689 C8853.02735,854.338091 8276.49405,799.468322 8224.20348,754 C8141.589,682.164062 62.9224273,815.132813 61.5991926,754 C60.2759579,692.867188 -245.980548,264.037212 521.623107,94.3497124 Z" id="Path-Copy-8" fill="url(#linearGradient-6)"></path>
                    <path d="M592.902344,78.3227539 L631.763672,70.7573242 C631.763672,70.7573242 873.612921,119.868526 1061.59244,298.486006 C1249.57196,477.103486 1403,782.26954 1403,782.26954 L1212.54163,813 C1212.54163,813 1105.268,511.581775 949.086014,328.06981 C792.904029,144.557845 592.902344,78.3227539 592.902344,78.3227539 Z" id="Rectangle-3-Copy-3" fill="#D8D8D8"></path>
                    <path d="M6816.91057,89.5982997 L6851.53831,83 C6851.53831,83 7069.39113,125.734298 7240.05005,287.8938 C7410.70896,450.053301 7550,727.101073 7550,727.101073 L7377.09064,755 C7377.09064,755 7279.7013,481.354728 7137.91007,314.751724 C6996.11883,148.148721 6816.91057,89.5982997 6816.91057,89.5982997 Z" id="Rectangle-3-Copy-4" fill="#D8D8D8" transform="translate(7183.455285, 419.000000) scale(-1, 1) translate(-7183.455285, -419.000000) "></path>
                </g>
            </g>
        </g>
    </g>
</svg>