<svg id="Layer_1" data-name="Layer 1" xmlns="http://www.w3.org/2000/svg" viewBox="0 0 8640 1910"><defs><style>.cls-1{opacity:0.6;}.cls-2{fill:#b2cd48;}</style></defs><title>gras(achter)</title><g class="cls-1"><path class="cls-2" d="M8636.24,1411.92V1910H3.76V1489.1c127.48-17.33,254.46-41.55,380.81-65.85,137.56-26.46,276.33-53.18,416.15-49.12,95.41,2.77,189.33,19.81,283,39.46,111,23.27,221.6,50.23,334.08,61.57,367.14,37,733.44-93.43,1101.94-76.5,264.56,12.16,522.43,100,787.14,106.45,266.51-6.41,526.12-94.29,792.47-106.45,371-16.93,739.75,113.52,1109.38,76.5,208.87-20.92,411.51-95,621.28-101,140.76-4.06,280.47,22.66,418.95,49.12,265.63,50.75,534.05,101.13,803.91,89.18,267-11.83,527.51-84.32,791.06-130.18S8384.73,1318.28,8636.24,1411.92Z"/></g></svg>