<?xml version="1.0" encoding="UTF-8"?>
<svg width="8000px" height="753px" viewBox="0 0 8000 753" version="1.1" xmlns="http://www.w3.org/2000/svg" xmlns:xlink="http://www.w3.org/1999/xlink">
    <!-- Generator: Sketch 43.2 (39069) - http://www.bohemiancoding.com/sketch -->
    <title>Path Copy 8</title>
    <desc>Created with Sketch.</desc>
    <defs>
        <linearGradient x1="61.2868845%" y1="11.2576102%" x2="61.2868845%" y2="91.7145291%" id="linearGradient-1">
            <stop stop-color="#59AB00" offset="0%"></stop>
            <stop stop-color="#227301" offset="100%"></stop>
        </linearGradient>
    </defs>
    <g id="Welcome" stroke="none" stroke-width="1" fill="none" fill-rule="evenodd">
        <g id="Artboard" transform="translate(0.000000, -1167.000000)" fill="url(#linearGradient-1)">
            <path d="M286.623107,1260.34971 C714.826536,1165.69048 759.080449,1152.55128 1137.42188,1209.78721 C1171.54814,1214.94987 1467.76849,1254.79956 1501.24219,1260.34971 C1534.09822,1265.79745 1602.28823,1326.89886 1634.47656,1332.58594 C1787.77215,1359.67039 1904.20308,1349.85767 1997.34375,1332.58594 C2090.48442,1315.31421 2060.93594,1297.0848 2082.60156,1297.66406 C2176.30468,1300.16936 2226.89325,1376.62193 2322.30009,1394.41221 C2822.41272,1487.667 3616.95766,1468.88675 3843.41416,1342.23294 C4369.25,1048.14062 5195.57812,1514.46875 6188.12224,1209.78721 C6783.31036,1027.08215 8421.93384,1471.56529 8519.98059,1745.95169 C8618.02735,2020.33809 8041.49405,1965.46832 7989.20348,1920 C7906.589,1848.16406 -172.077573,1981.13281 -173.400807,1920 C-174.724042,1858.86719 -480.980548,1430.03721 286.623107,1260.34971 Z" id="Path-Copy-8"></path>
        </g>
    </g>
</svg>