<?xml version="1.0" encoding="UTF-8"?>
<svg width="681px" height="910px" viewBox="0 0 681 910" version="1.1" xmlns="http://www.w3.org/2000/svg" xmlns:xlink="http://www.w3.org/1999/xlink">
    <!-- Generator: Sketch 43.2 (39069) - http://www.bohemiancoding.com/sketch -->
    <title>kind</title>
    <desc>Created with Sketch.</desc>
    <defs></defs>
    <g id="Welcome" stroke="none" stroke-width="1" fill="none" fill-rule="evenodd">
        <g id="Artboard" transform="translate(-4054.000000, -960.000000)" fill-rule="nonzero" fill="#000000">
            <g id="kind" transform="translate(4054.000000, 960.000000)">
                <g id="Group" transform="translate(105.000000, 0.000000)">
                    <path d="M437.6,516.5 C436.8,516.5 435.9,516.5 435,516.4 C433.7,516.3 432.8,515.2 432.9,513.9 C433,512.6 434.1,511.7 435.4,511.8 C438.4,512 441.2,511.8 443.7,511 C444.9,510.6 446.2,511.3 446.6,512.5 C447,513.7 446.3,515 445.1,515.4 C442.7,516.1 440.2,516.5 437.6,516.5 Z M421.8,512.8 C421.5,512.8 421.2,512.7 420.9,512.6 C418.1,511.4 415.3,510 412.4,508.3 C411.3,507.7 410.9,506.2 411.6,505.1 C412.3,504 413.7,503.6 414.8,504.3 C417.5,505.9 420.2,507.2 422.8,508.3 C424,508.8 424.5,510.2 424,511.3 C423.6,512.3 422.7,512.8 421.8,512.8 Z M455.1,507.3 C454.7,507.3 454.2,507.2 453.8,506.9 C452.7,506.2 452.4,504.8 453.1,503.7 C454.5,501.5 455.7,498.9 456.6,495.9 C457,494.7 458.2,494 459.5,494.3 C460.7,494.7 461.4,496 461.1,497.2 C460.1,500.6 458.7,503.7 457,506.2 C456.6,506.9 455.9,507.3 455.1,507.3 Z M402.1,500.9 C401.6,500.9 401.1,500.7 400.7,500.4 C398.3,498.5 395.9,496.5 393.5,494.4 C392.5,493.6 392.5,492.1 393.3,491.1 C394.1,490.1 395.6,490.1 396.6,490.9 C398.9,493 401.3,494.9 403.6,496.7 C404.6,497.5 404.8,498.9 404,499.9 C403.5,500.6 402.8,500.9 402.1,500.9 Z M385,485.3 C384.4,485.3 383.8,485.1 383.3,484.6 C381.2,482.4 379.1,480.1 377,477.7 C376.2,476.7 376.3,475.3 377.2,474.4 C378.2,473.6 379.6,473.7 380.5,474.6 C382.5,476.9 384.6,479.2 386.6,481.4 C387.5,482.3 387.4,483.8 386.5,484.7 C386.2,485.1 385.6,485.3 385,485.3 Z M461.1,485.2 L461,485.2 C459.7,485.1 458.7,484 458.8,482.8 C458.9,481.3 458.9,479.8 458.9,478.3 C458.9,476.9 458.9,475.4 458.8,473.8 C458.7,472.5 459.7,471.4 461,471.4 C462.2,471.3 463.4,472.3 463.4,473.6 C463.5,475.2 463.5,476.8 463.5,478.3 C463.5,480 463.5,481.5 463.4,483.1 C463.3,484.3 462.3,485.2 461.1,485.2 Z M370.1,467.7 C369.4,467.7 368.7,467.4 368.3,466.8 C366.5,464.4 364.6,461.8 362.8,459.2 C362.1,458.1 362.3,456.7 363.4,456 C364.5,455.3 365.9,455.5 366.6,456.6 C368.4,459.1 370.2,461.6 372,464 C372.8,465 372.6,466.5 371.5,467.2 C371,467.5 370.6,467.7 370.1,467.7 Z M460,462.1 C458.8,462.1 457.8,461.2 457.7,460 C457.4,457 457,453.9 456.5,450.9 C456.3,449.6 457.2,448.5 458.5,448.3 C459.8,448.1 460.9,449 461.1,450.3 C461.5,453.4 461.9,456.4 462.3,459.5 C462.4,460.8 461.5,461.9 460.3,462.1 L460,462.1 Z M357.1,448.5 C356.3,448.5 355.6,448.1 355.1,447.4 C353.5,444.7 351.9,442 350.4,439.3 C349.8,438.2 350.2,436.8 351.3,436.2 C352.4,435.6 353.8,436 354.4,437.1 C355.9,439.7 357.4,442.4 359,445 C359.7,446.1 359.3,447.5 358.2,448.2 C357.9,448.4 357.5,448.5 357.1,448.5 Z M456.5,439.3 C455.4,439.3 454.4,438.5 454.2,437.4 C453.6,434.4 453,431.4 452.3,428.5 C452,427.3 452.8,426 454,425.7 C455.2,425.4 456.5,426.2 456.8,427.4 C457.5,430.4 458.1,433.4 458.7,436.5 C458.9,437.8 458.1,439 456.9,439.2 C456.8,439.3 456.7,439.3 456.5,439.3 Z M346,428.2 C345.1,428.2 344.3,427.7 343.9,426.9 C342.5,424.1 341.2,421.2 340,418.4 C339.5,417.2 340,415.9 341.2,415.4 C342.4,414.9 343.7,415.4 344.2,416.6 C345.4,419.4 346.7,422.2 348,424.9 C348.6,426.1 348.1,427.4 346.9,428 C346.7,428.1 346.4,428.2 346,428.2 Z M451.2,416.9 C450.2,416.9 449.3,416.2 449,415.2 C448.2,412.3 447.3,409.3 446.4,406.4 C446,405.2 446.7,403.9 447.9,403.5 C449.1,403.1 450.4,403.8 450.8,405 C451.7,408 452.6,410.9 453.5,413.9 C453.8,415.1 453.1,416.4 451.9,416.8 C451.6,416.8 451.4,416.9 451.2,416.9 Z M337,406.9 C336.1,406.9 335.2,406.3 334.8,405.4 C333.7,402.5 332.7,399.5 331.7,396.6 C331.3,395.4 332,394.1 333.2,393.7 C334.4,393.3 335.7,394 336.1,395.2 C337,398.1 338,401 339.1,403.9 C339.5,405.1 338.9,406.4 337.7,406.9 C337.5,406.9 337.3,406.9 337,406.9 Z M444,394.9 C443.1,394.9 442.2,394.3 441.8,393.4 C440.7,390.5 439.6,387.7 438.5,384.9 C438,383.7 438.6,382.4 439.8,381.9 C441,381.4 442.3,382 442.8,383.2 C444,386.1 445.1,389 446.2,391.9 C446.6,393.1 446,394.4 444.8,394.9 L444,394.9 Z M330.1,384.9 C329.1,384.9 328.1,384.2 327.9,383.2 C327.1,380.2 326.4,377.1 325.8,374.1 C325.5,372.9 326.3,371.6 327.6,371.4 C328.8,371.1 330.1,371.9 330.3,373.2 C330.9,376.2 331.6,379.1 332.4,382.1 C332.7,383.3 332,384.6 330.7,384.9 C330.5,384.8 330.3,384.9 330.1,384.9 Z M435.2,373.6 C434.3,373.6 433.5,373.1 433.1,372.3 C431.8,369.5 430.5,366.8 429.1,364 C428.5,362.9 429,361.5 430.1,360.9 C431.2,360.3 432.6,360.8 433.2,361.9 C434.6,364.7 435.9,367.5 437.2,370.3 C437.7,371.5 437.2,372.8 436.1,373.4 C435.8,373.5 435.5,373.6 435.2,373.6 Z M325.5,362.2 C324.4,362.2 323.4,361.4 323.2,360.2 C322.8,357.1 322.4,354 322.1,350.9 C322,349.6 322.9,348.5 324.2,348.4 C325.5,348.3 326.6,349.2 326.7,350.5 C327,353.5 327.4,356.6 327.8,359.6 C328,360.9 327.1,362 325.8,362.2 C325.7,362.2 325.6,362.2 325.5,362.2 Z M424.7,353 C423.9,353 423.1,352.6 422.7,351.8 C421.2,349.1 419.7,346.5 418.1,343.9 C417.4,342.8 417.8,341.4 418.9,340.7 C420,340 421.4,340.4 422.1,341.5 C423.7,344.2 425.2,346.9 426.8,349.6 C427.4,350.7 427,352.1 425.9,352.7 C425.5,352.9 425.1,353 424.7,353 Z M323.4,339.2 C322.2,339.2 321.1,338.2 321.1,337 C321,334.9 321,332.8 321,330.7 L321,327.6 C321,326.3 322.1,325.3 323.3,325.3 L323.3,325.3 C324.6,325.3 325.6,326.4 325.6,327.6 L325.6,330.6 C325.6,332.7 325.6,334.7 325.7,336.7 C325.8,338.1 324.8,339.1 323.4,339.2 L323.4,339.2 Z M412.7,333.2 C411.9,333.2 411.2,332.8 410.8,332.2 C409.1,329.6 407.4,327.1 405.6,324.6 C404.9,323.6 405.1,322.1 406.2,321.4 C407.2,320.7 408.7,320.9 409.4,322 C411.2,324.5 412.9,327.1 414.6,329.7 C415.3,330.8 415,332.2 413.9,332.9 C413.6,333.1 413.2,333.2 412.7,333.2 Z M324.1,316.1 L323.9,316.1 C322.6,316 321.7,314.9 321.8,313.6 C322.1,310.5 322.4,307.4 322.9,304.3 C323.1,303 324.2,302.1 325.5,302.3 C326.8,302.5 327.7,303.6 327.5,304.9 C327.1,307.9 326.7,311 326.5,314 C326.3,315.2 325.3,316.1 324.1,316.1 Z M399.3,314.4 C398.6,314.4 397.9,314.1 397.5,313.5 C395.6,311.1 393.7,308.7 391.8,306.3 C391,305.3 391.1,303.9 392.1,303 C393.1,302.2 394.5,302.3 395.4,303.3 C397.4,305.7 399.3,308.1 401.2,310.6 C402,311.6 401.8,313.1 400.8,313.8 C400.3,314.3 399.8,314.4 399.3,314.4 Z M384.5,296.6 C383.9,296.6 383.2,296.3 382.8,295.8 C380.8,293.5 378.7,291.3 376.6,289 C375.7,288.1 375.8,286.6 376.7,285.7 C377.6,284.8 379.1,284.9 380,285.8 C382.1,288.1 384.2,290.3 386.3,292.7 C387.1,293.7 387.1,295.1 386.1,296 C385.6,296.4 385.1,296.6 384.5,296.6 Z M327.6,293.2 C327.4,293.2 327.3,293.2 327.1,293.1 C325.9,292.8 325.1,291.6 325.3,290.3 C326,287.2 326.7,284.2 327.5,281.2 C327.8,280 329.1,279.2 330.3,279.6 C331.5,279.9 332.3,281.2 331.9,282.4 C331.1,285.3 330.4,288.3 329.7,291.3 C329.6,292.5 328.6,293.2 327.6,293.2 Z M2.7,291.9 C2.4,291.9 2.1,291.8 1.8,291.7 C0.6,291.2 0.1,289.8 0.6,288.7 C0.7,288.6 2,285.4 5,280.2 C5.6,279.1 7,278.7 8.2,279.3 C9.3,279.9 9.7,281.3 9.1,282.5 C6.3,287.4 4.9,290.5 4.9,290.5 C4.4,291.4 3.5,291.9 2.7,291.9 Z M368.5,280 C367.9,280 367.3,279.8 366.9,279.3 C364.7,277.2 362.5,275.1 360.2,273 C359.3,272.1 359.2,270.7 360.1,269.7 C361,268.8 362.4,268.7 363.4,269.6 C365.7,271.7 368,273.8 370.2,276 C371.1,276.9 371.1,278.4 370.2,279.3 C369.7,279.7 369.1,280 368.5,280 Z M14.4,271.9 C13.9,271.9 13.5,271.8 13.1,271.5 C12.1,270.8 11.8,269.3 12.5,268.3 C14.3,265.8 16.1,263.2 18.1,260.7 C18.9,259.7 20.3,259.5 21.3,260.3 C22.3,261.1 22.5,262.5 21.7,263.5 C19.8,265.9 18,268.4 16.3,270.9 C15.8,271.6 15.1,271.9 14.4,271.9 Z M333.8,271 C333.5,271 333.3,271 333,270.9 C331.8,270.5 331.2,269.2 331.6,268 C332.6,265.1 333.8,262.1 334.9,259.2 C335.4,258 336.7,257.5 337.9,257.9 C339.1,258.4 339.6,259.7 339.2,260.9 C338.1,263.7 337,266.6 336,269.4 C335.7,270.4 334.8,271 333.8,271 Z M351.4,264.5 C350.9,264.5 350.3,264.3 349.9,264 C347.6,262 345.2,260.1 342.8,258.2 C341.8,257.4 341.6,256 342.4,255 C343.2,254 344.6,253.8 345.6,254.6 C348,256.5 350.4,258.5 352.8,260.5 C353.8,261.3 353.9,262.8 353.1,263.8 C352.7,264.2 352,264.5 351.4,264.5 Z M28.8,253.9 C28.2,253.9 27.7,253.7 27.2,253.3 C26.3,252.4 26.2,251 27,250 C29.1,247.7 31.3,245.4 33.5,243.2 C34.4,242.3 35.9,242.3 36.8,243.2 C37.7,244.1 37.7,245.6 36.8,246.5 C34.7,248.6 32.5,250.8 30.5,253.1 C30.1,253.6 29.4,253.9 28.8,253.9 Z M333.1,250.3 C332.6,250.3 332.2,250.2 331.8,249.9 C329.3,248.1 326.8,246.4 324.3,244.6 C323.2,243.9 323,242.4 323.7,241.4 C324.4,240.3 325.9,240.1 326.9,240.8 C329.5,242.5 332,244.3 334.5,246.1 C335.5,246.8 335.8,248.3 335,249.3 C334.5,250 333.8,250.3 333.1,250.3 Z M342.8,249.7 C342.5,249.7 342.1,249.6 341.8,249.5 C340.7,248.9 340.2,247.5 340.8,246.4 C342.2,243.6 343.6,240.8 345.2,238.1 C345.8,237 347.2,236.6 348.3,237.2 C349.4,237.8 349.8,239.2 349.2,240.3 C347.7,243 346.3,245.7 344.9,248.4 C344.5,249.3 343.7,249.7 342.8,249.7 Z M45.4,237.8 C44.7,237.8 44.1,237.5 43.6,237 C42.8,236 42.9,234.6 43.9,233.7 C46.3,231.7 48.7,229.7 51.2,227.8 C52.2,227 53.7,227.2 54.4,228.2 C55.2,229.2 55,230.7 54,231.4 C51.6,233.2 49.2,235.2 46.9,237.1 C46.5,237.6 46,237.8 45.4,237.8 Z M313.9,237.5 C313.5,237.5 313.1,237.4 312.7,237.2 C310.1,235.6 307.5,234 304.8,232.5 C303.7,231.9 303.3,230.5 303.9,229.3 C304.5,228.2 306,227.8 307.1,228.4 C309.8,229.9 312.5,231.5 315.1,233.1 C316.2,233.8 316.5,235.2 315.9,236.3 C315.4,237.1 314.7,237.5 313.9,237.5 Z M354.3,229.7 C353.9,229.7 353.4,229.6 353,229.3 C351.9,228.6 351.6,227.2 352.3,226.1 C354,223.5 355.8,220.9 357.6,218.4 C358.3,217.4 359.8,217.1 360.8,217.9 C361.8,218.6 362.1,220.1 361.3,221.1 C359.5,223.6 357.8,226.1 356.2,228.7 C355.8,229.3 355.1,229.7 354.3,229.7 Z M293.8,226.2 C293.4,226.2 293.1,226.1 292.7,225.9 C290,224.5 287.2,223.1 284.5,221.8 C283.3,221.3 282.9,219.9 283.4,218.7 C283.9,217.6 285.3,217.1 286.5,217.6 C289.3,218.9 292.1,220.3 294.8,221.7 C295.9,222.3 296.4,223.7 295.8,224.8 C295.4,225.7 294.6,226.2 293.8,226.2 Z M64,224 C63.2,224 62.5,223.6 62.1,222.9 C61.4,221.8 61.7,220.4 62.8,219.7 C65.4,218 68.1,216.4 70.8,214.8 C71.9,214.2 73.3,214.5 74,215.7 C74.6,216.8 74.3,218.2 73.1,218.9 C70.5,220.4 67.8,222 65.3,223.6 C64.8,223.9 64.4,224 64,224 Z M272.8,216.4 C272.5,216.4 272.2,216.3 271.9,216.2 C269.1,215 266.2,213.9 263.4,212.8 C262.2,212.3 261.6,211 262.1,209.8 C262.6,208.6 263.9,208 265.1,208.5 C268,209.6 270.9,210.8 273.7,212 C274.9,212.5 275.4,213.8 274.9,215 C274.6,215.9 273.7,216.4 272.8,216.4 Z M84.2,212.8 C83.3,212.8 82.5,212.3 82.1,211.5 C81.6,210.3 82,209 83.2,208.4 C86,207.1 88.9,205.8 91.8,204.6 C93,204.1 94.3,204.7 94.8,205.9 C95.3,207.1 94.7,208.4 93.5,208.9 C90.7,210 87.9,211.3 85.2,212.6 C84.8,212.7 84.5,212.8 84.2,212.8 Z M367.9,211 C367.4,211 366.9,210.8 366.4,210.5 C365.4,209.7 365.3,208.2 366.1,207.2 C368,204.8 370.1,202.4 372.1,200.1 C372.9,199.1 374.4,199 375.4,199.9 C376.4,200.7 376.5,202.2 375.6,203.2 C373.6,205.5 371.6,207.8 369.7,210.2 C369.2,210.7 368.6,211 367.9,211 Z M251.2,208.3 C251,208.3 250.7,208.3 250.5,208.2 C247.6,207.2 244.7,206.3 241.7,205.5 C240.5,205.1 239.8,203.9 240.1,202.6 C240.5,201.4 241.7,200.7 243,201 C246,201.9 249,202.8 251.9,203.8 C253.1,204.2 253.8,205.5 253.4,206.7 C253.1,207.7 252.2,208.3 251.2,208.3 Z M105.7,204.3 C104.7,204.3 103.8,203.7 103.5,202.7 C103.1,201.5 103.8,200.2 105,199.8 C107.9,198.9 111,198 114,197.2 C115.2,196.9 116.5,197.6 116.8,198.8 C117.1,200 116.4,201.3 115.2,201.6 C112.3,202.4 109.3,203.3 106.4,204.2 C106.1,204.2 105.9,204.3 105.7,204.3 Z M229,202.1 C228.8,202.1 228.6,202.1 228.5,202 C225.5,201.3 222.5,200.6 219.5,200 C218.2,199.7 217.4,198.5 217.7,197.3 C218,196 219.2,195.2 220.4,195.5 C223.4,196.1 226.5,196.8 229.5,197.5 C230.7,197.8 231.5,199 231.2,200.3 C230.9,201.3 230,202.1 229,202.1 Z M128,198.6 C126.9,198.6 125.9,197.8 125.7,196.7 C125.5,195.4 126.3,194.2 127.5,194 C130.5,193.4 133.6,192.9 136.7,192.4 C138,192.2 139.1,193.1 139.3,194.4 C139.5,195.7 138.6,196.8 137.3,197 C134.3,197.4 131.2,198 128.3,198.5 C128.3,198.5 128.2,198.6 128,198.6 Z M206.3,197.7 L206,197.7 C203,197.2 199.9,196.8 196.9,196.5 C195.6,196.4 194.7,195.2 194.9,193.9 C195,192.6 196.2,191.7 197.5,191.9 C200.6,192.2 203.7,192.7 206.8,193.1 C208.1,193.3 208.9,194.5 208.7,195.7 C208.4,196.8 207.4,197.7 206.3,197.7 Z M150.9,195.5 C149.7,195.5 148.7,194.6 148.6,193.4 C148.5,192.1 149.5,191 150.7,190.9 C153.8,190.7 156.9,190.5 160,190.4 C161.3,190.3 162.3,191.3 162.4,192.6 C162.4,193.9 161.4,194.9 160.2,195 C157.1,195.1 154.1,195.3 151.1,195.5 L150.9,195.5 Z M183.3,195.3 L183.2,195.3 C180.1,195.1 177.1,195 174,194.9 C172.7,194.9 171.7,193.8 171.7,192.5 C171.7,191.2 172.8,190.2 174,190.2 L174.1,190.2 C177.2,190.3 180.3,190.4 183.4,190.6 C184.7,190.7 185.6,191.8 185.6,193 C185.5,194.3 184.5,195.3 183.3,195.3 Z" id="Shape"></path>
                    <path d="M391.9,199.7 L532.1,167.1 C537.2,165.9 541.1,162 542.3,156.9 L575.6,16.9 C578,7 569.1,-1.9 559.2,0.4 L419,33 C413.9,34.2 410,38.1 408.8,43.2 L375.5,183.2 C373.1,193.1 382,202 391.9,199.7 Z" id="Shape"></path>
                    <path d="M559.2,0.4 L539.7,4.9 C535,6 531.5,9.8 530.8,14.5 C527.7,34.9 517.1,89.8 490.5,116.4 C463.8,143.1 408.8,154.7 388.7,158.1 C384.1,158.9 380.4,162.4 379.3,166.9 L375.5,183 C373.1,192.9 382,201.8 391.9,199.5 L532.1,166.9 C537.2,165.7 541.1,161.8 542.3,156.7 L575.6,16.7 C578,7 569.1,-1.9 559.2,0.4 Z" id="Shape"></path>
                </g>
                <path d="M52.5,840 C52.5,840 3.1,860.7 0.2,887.4 C0.9,901.3 90.5,902.5 99.5,884.9 C107.9,868.4 96,843.6 89.5,831.3 L52.5,840 Z" id="Shape"></path>
                <path d="M89.4,831.2 L81.8,833 C87.5,845.9 92.6,862.9 86.3,875.3 C79.5,888.7 25.9,891.2 0.4,885.5 C0.3,886.1 0.2,886.7 0.1,887.3 C0.8,901.2 90.4,902.4 99.4,884.8 C107.9,868.3 95.9,843.5 89.4,831.2 Z" id="Shape"></path>
                <path d="M238.6,837.9 C238.6,837.9 205.8,882.2 223.3,907 C233,921.2 310.4,861.2 308,853.5 C305.6,845.8 287.6,817.9 255.1,814.6 L238.6,837.9 Z" id="Shape"></path>
                <path d="M308.1,853.5 C305.7,845.8 287.7,817.9 255.2,814.6 L247,826 C264.7,835.7 279.4,850.7 278.9,856.6 C277.6,873.2 246.5,889.1 221.3,903.7 C221.9,904.8 222.5,906 223.3,907 C233,921.2 310.5,861.2 308.1,853.5 Z" id="Shape"></path>
                <path d="M274.1,818 C278.3,802.7 205.3,775.5 205.3,775.5 C233.7,723.9 220.3,672.4 220.3,672.4 L61.3,642.4 C52.9,652.7 12,708.5 3.1,742.7 C-5.8,776.9 21.4,842.3 40.4,846.9 C59.5,851.5 91.2,844.1 94.7,834.6 C98.2,825.2 82.2,772.4 82.2,772.4 C93.9,762.7 103.6,746.6 109.5,735.2 L111,736 C106.8,750.4 102.4,772.7 109.8,787.3 C141.1,839.9 210.1,862.2 220.8,860.2 C231.4,858 269.9,833.3 274.1,818 Z" id="Shape"></path>
                <path d="M205.3,775.5 C205.3,775.5 196.1,786.2 179.3,774.1 C179.4,774.1 195.5,780.2 205.3,775.5 Z" id="Shape"></path>
                <path d="M205.3,775.5 C205.3,775.5 201.9,794.8 185.5,792.1 C185.5,792.2 196.5,788.8 205.3,775.5 Z" id="Shape"></path>
                <path d="M168.9,776 C168.9,776 187.3,790.5 205,776 C205,775.9 186.7,802.1 168.9,776 Z" id="Shape"></path>
                <path d="M47.5,752.8 C47.5,752.8 54.8,775.3 83.4,772.1 C83.4,772.1 62.2,768.3 47.5,752.8 Z" id="Shape"></path>
                <path d="M173.8,697.6 C173.8,697.6 158.1,729.1 213.2,737.9 C213.2,737.9 182.7,725.3 173.8,697.6 Z" id="Shape"></path>
                <path d="M79.2,672.8 C79.2,672.8 63.5,705.7 34.1,688.7 C34.2,688.8 58,691.5 79.2,672.8 Z" id="Shape"></path>
                <path d="M126.4,320.3 C133.1,318.4 139,314 142.3,307.4 C148.9,294.5 143.1,278.5 129.5,271.5 C115.9,264.6 99.5,269.3 93,282.2 C88.1,291.9 90.1,303.4 97.2,311.5 C76.8,387.4 127.1,445 129.4,447.6 L152.1,427.4 C150.3,425.4 111.1,379.7 126.4,320.3 Z" id="Shape"></path>
                <path d="M311.9,584.3 L282,578.9 C281.9,579.5 271,638.6 238.8,711.6 C230.5,712.7 222.9,717.5 219,725.2 C212.4,738.1 218.2,754.1 231.8,761.1 C245.4,768 261.8,763.3 268.3,750.4 C272.6,741.9 271.6,732 266.4,724.3 C300.3,647.7 311.5,587 311.9,584.3 Z" id="Shape"></path>
                <path d="M287.4,499.8 L243.7,479.8 C190.9,471 155.2,400.9 155.2,400.9 L101.5,432.8 L139.8,494.3 L43,650.9 C180.1,720.9 231.9,683.3 231.9,683.3 C233.5,663.6 245.4,628.7 256.5,599.9 C256.1,602.9 255.9,604.6 255.9,604.6 L317.6,627.1 C336,529.4 287.4,499.8 287.4,499.8 Z" id="Shape"></path>
                <path d="M289.5,524.5 C289.5,524.5 239.3,633.6 231.9,683.3 C231.9,683.3 194,715.7 77.5,667.1 C77.5,667.1 188.3,695.5 207.9,661.4 C227.4,627.4 279.7,530.6 289.5,524.5 Z" id="Shape"></path>
                <path d="M155.4,467.2 L95.5,565.8 C95.5,565.9 136.9,523.8 155.4,467.2 Z" id="Shape"></path>
                <path d="M161.2,516.8 C161.2,516.8 150.1,579 177.2,622.5 L161.2,516.8 Z" id="Shape"></path>
                <path d="M138.6,556.4 C138.6,556.4 137.2,610.4 181.3,648.7 L138.6,556.4 Z" id="Shape"></path>
                <g id="Group" transform="translate(167.000000, 258.000000)">
                    <path d="M84.4,2.6 C78.3,2.6 73,5.8 70,10.5 C68.7,10.2 67.2,10 65.8,10 C56.4,10 48.8,17.5 48.6,26.8 C48,26.7 47.4,26.7 46.8,26.7 C37.2,26.7 29.5,34.4 29.5,44 C29.5,46.9 30.2,49.7 31.5,52.1 C27.5,55.3 24.9,60.2 24.9,65.7 C24.9,75.3 32.6,83 42.2,83 C51.8,83 59.5,75.3 59.5,65.7 L59.5,65.3 C67.4,63.8 73.4,56.8 73.4,48.4 C73.4,46.5 73.1,44.6 72.5,42.9 C75.8,41.5 78.5,39.2 80.3,36.2 C81.6,36.5 83,36.7 84.4,36.7 C93.8,36.7 101.5,29 101.5,19.6 C101.5,10.3 93.8,2.6 84.4,2.6 Z" id="Shape"></path>
                    <path d="M45.5,201.8 C32.9,225.4 40.1,233.4 51.6,239.2 C63.1,245 77.9,240.5 83.3,228.3 C85.5,223.3 86.8,218 89.6,210.6 C89.6,210.7 64.9,201.4 45.5,201.8 Z" id="Shape"></path>
                    <polygon id="Shape" points="78.9 234.1 99.7 188.5 57.4 169.9 41 211.8"></polygon>
                    <path d="M88.5,212.1 C86,217.1 73.5,220.1 62.2,215.5 C50.7,210.8 42.9,201.7 45.4,196.8 C47.9,191.8 59.2,194.9 70,200.4 C80.8,205.9 91,207.2 88.5,212.1 Z" id="Shape"></path>
                    <path d="M91.4,31.6 C91.4,31.6 -16.2,66.5 2.1,153.4 C13.1,185.1 67.2,215.5 91.8,211.8 C116.4,208 150.3,70.6 91.4,31.6 Z" id="Shape"></path>
                    <g opacity="0.9" transform="translate(13.000000, 127.000000)" id="Shape">
                        <path d="M18.6,26 C15.8,26 12.7,25.3 9.1,23.3 C-1.5,17.5 -0.2,6.6 2,1.7 C2.5,0.6 3.7,0.1 4.8,0.6 C5.9,1.1 6.4,2.3 5.9,3.4 C5.7,3.8 1.4,14.2 11.2,19.6 C22.1,25.6 27.7,17.3 28.3,16.4 C28.9,15.4 30.2,15.1 31.3,15.7 C32.3,16.3 32.6,17.6 32,18.6 C31.9,18.7 27.3,26 18.6,26 Z"></path>
                    </g>
                    <path d="M45.9,128.1 C45.7,128.1 45.5,128.1 45.3,128 C43.9,127.5 31.1,123.3 29.1,117.3 C28.5,115.5 28.8,113.8 29.9,112.2 C31.6,109.8 34.2,108.7 37.3,109.1 C43.1,109.8 50,115.7 51.3,119.1 C51.7,120.1 51.2,121.2 50.2,121.6 C49.2,122 48.1,121.5 47.7,120.5 C47,118.7 41.5,113.5 36.8,112.9 C35.1,112.7 33.8,113.2 32.9,114.4 C32.4,115.2 32.4,115.7 32.6,116.1 C33.7,119.3 41.6,122.9 46.4,124.4 C47.4,124.7 48,125.8 47.6,126.8 C47.5,127.6 46.7,128.1 45.9,128.1 Z" id="Shape"></path>
                    <ellipse id="Oval" transform="translate(64.689810, 140.123730) rotate(27.031381) translate(-64.689810, -140.123730) " cx="64.68981" cy="140.12373" rx="12.1005741" ry="11.3005361"></ellipse>
                    <ellipse id="Oval" transform="translate(18.976300, 103.429120) rotate(27.031381) translate(-18.976300, -103.429120) " cx="18.9763" cy="103.42912" rx="12.1005741" ry="11.3005361"></ellipse>
                    <ellipse id="Oval" opacity="0.9" transform="translate(72.157260, 127.631280) rotate(27.031381) translate(-72.157260, -127.631280) " cx="72.15726" cy="127.63128" rx="6.40030364" ry="7.70036532"></ellipse>
                    <ellipse id="Oval" opacity="0.9" transform="translate(26.249330, 92.487970) rotate(33.634450) translate(-26.249330, -92.487970) " cx="26.24933" cy="92.48797" rx="6.4000895" ry="7.70010768"></ellipse>
                    <path d="M252.7,113.6 C252.7,107.7 249.5,102.6 244.8,100 C245.1,98.9 245.2,97.7 245.2,96.5 C245.2,91 242.5,86.3 238.3,83.5 C240.3,80.9 241.5,77.6 241.5,74 C241.5,66.7 236.6,60.6 229.9,59 C230.1,58.1 230.2,57.1 230.2,56.1 C230.2,47.6 223.5,40.6 215.2,40.6 C214.5,40.6 213.9,40.7 213.2,40.8 C210.6,36.2 205.8,33 200.2,33 L200.1,33 C199.2,25.3 192.9,19.4 185.2,19.4 C183.4,19.4 181.6,19.8 180,20.4 L180,20.4 C180,11.9 173.3,4.9 165,4.9 C160.3,4.9 156,7.2 153.3,10.7 C150.6,7.2 146.3,4.9 141.6,4.9 C138,4.9 134.7,6.2 132.2,8.4 C129.7,3.6 124.7,0.3 119,0.3 C114.6,0.3 110.7,2.2 107.9,5.3 C105.4,3.3 102.3,2.1 98.8,2.1 C92.1,2.1 86.4,6.7 84.5,13 C78.7,13.6 73.8,17.5 71.9,23 L70.9,23 C62.6,23 55.9,29.9 55.9,38.5 C55.9,47 62.6,54 70.9,54 C73.9,54 76.7,53.1 79,51.5 C79.3,55.4 80.9,59 83.5,61.5 C82.2,63.8 81.4,66.5 81.4,69.4 C81.4,77.9 88.1,84.9 96.4,84.9 C97.9,84.9 99.4,84.7 100.8,84.2 C100.6,85.2 100.5,86.2 100.5,87.3 C100.5,92.5 103,97.1 106.8,99.9 C105.6,102.1 105,104.6 105,107.3 C105,113.5 108.5,118.8 113.6,121.3 C108,123.5 103.9,129.1 103.9,135.7 C103.9,144.2 110.6,151.2 118.9,151.2 C120.3,151.2 121.6,151 122.8,150.6 C123.8,154.7 126.3,158.1 129.7,160.2 C127.7,162.8 126.5,166.1 126.5,169.7 C126.5,171.3 126.7,172.9 127.2,174.3 C123.7,175.1 120.6,177.2 118.5,180 C116.4,178.8 113.9,178.1 111.3,178.1 C103,178.1 96.3,185 96.3,193.6 C96.3,196.7 97.2,199.5 98.7,202 C97.2,204.4 96.3,207.3 96.3,210.4 C96.3,218.9 103,225.9 111.3,225.9 C115.8,225.9 119.8,223.8 122.6,220.6 C125.3,223.8 129.4,225.9 133.9,225.9 C137.8,225.9 141.4,224.3 144.1,221.8 C146.8,226 151.4,228.7 156.6,228.7 C162.3,228.7 167.3,225.4 169.8,220.6 C172.1,222 174.8,222.9 177.6,222.9 C183.9,222.9 189.3,218.9 191.5,213.2 C192.3,213.3 193.2,213.4 194.1,213.4 C201.5,213.4 207.6,207.9 208.8,200.7 C209.3,200.8 209.8,200.8 210.4,200.8 C217.7,200.8 223.8,195.4 225.1,188.2 C232.2,187 237.6,180.6 237.6,173 C237.6,171.8 237.5,170.6 237.2,169.5 C239.8,166.7 241.4,162.9 241.4,158.7 C241.4,156.2 240.8,153.8 239.8,151.8 C246,149.9 250.5,144 250.5,137 C250.5,132.9 249,129.2 246.5,126.5 C250.3,123.2 252.7,118.7 252.7,113.6 Z" id="Shape"></path>
                    <circle id="Oval" cx="125.2" cy="159.3" r="20.6"></circle>
                    <path d="M144.9,153.5 C145,156.7 144.2,160.1 142.7,163.2 C137.5,173.3 125.2,177.3 115.1,172.2 C109.9,169.5 106.3,165 104.8,159.7 C104.9,167.1 109,174.1 116,177.7 C126.1,182.9 138.5,178.8 143.6,168.7 C146.1,163.8 146.4,158.4 144.9,153.5 Z" id="Shape"></path>
                </g>
            </g>
        </g>
    </g>
</svg>