<?xml version="1.0" encoding="utf-8"?>
<!-- Generator: Adobe Illustrator 17.1.0, SVG Export Plug-In . SVG Version: 6.00 Build 0)  -->
<!DOCTYPE svg PUBLIC "-//W3C//DTD SVG 1.1//EN" "http://www.w3.org/Graphics/SVG/1.1/DTD/svg11.dtd">
<svg version="1.1" id="Laag_1" xmlns="http://www.w3.org/2000/svg" xmlns:xlink="http://www.w3.org/1999/xlink" x="0px" y="0px"
	 viewBox="0 0 1080 1920" enable-background="new 0 0 1080 1920" xml:space="preserve">
<g>
	<g>
		<g>
			<path fill="#1D1D1B" d="M733.6,833.5c-0.8,0-1.7,0-2.6-0.1c-1.3-0.1-2.2-1.2-2.1-2.5c0.1-1.3,1.2-2.2,2.5-2.1
				c3,0.2,5.8,0,8.3-0.8c1.2-0.4,2.5,0.3,2.9,1.5c0.4,1.2-0.3,2.5-1.5,2.9C738.7,833.1,736.2,833.5,733.6,833.5z M717.8,829.8
				c-0.3,0-0.6-0.1-0.9-0.2c-2.8-1.2-5.6-2.6-8.5-4.3c-1.1-0.6-1.5-2.1-0.8-3.2s2.1-1.5,3.2-0.8c2.7,1.6,5.4,2.9,8,4
				c1.2,0.5,1.7,1.9,1.2,3C719.6,829.3,718.7,829.8,717.8,829.8z M751.1,824.3c-0.4,0-0.9-0.1-1.3-0.4c-1.1-0.7-1.4-2.1-0.7-3.2
				c1.4-2.2,2.6-4.8,3.5-7.8c0.4-1.2,1.6-1.9,2.9-1.6c1.2,0.4,1.9,1.7,1.6,2.9c-1,3.4-2.4,6.5-4.1,9
				C752.6,823.9,751.9,824.3,751.1,824.3z M698.1,817.9c-0.5,0-1-0.2-1.4-0.5c-2.4-1.9-4.8-3.9-7.2-6c-1-0.8-1-2.3-0.2-3.3
				c0.8-1,2.3-1,3.3-0.2c2.3,2.1,4.7,4,7,5.8c1,0.8,1.2,2.2,0.4,3.2C699.5,817.6,698.8,817.9,698.1,817.9z M681,802.3
				c-0.6,0-1.2-0.2-1.7-0.7c-2.1-2.2-4.2-4.5-6.3-6.9c-0.8-1-0.7-2.4,0.2-3.3c1-0.8,2.4-0.7,3.3,0.2c2,2.3,4.1,4.6,6.1,6.8
				c0.9,0.9,0.8,2.4-0.1,3.3C682.2,802.1,681.6,802.3,681,802.3z M757.1,802.2c0,0-0.1,0-0.1,0c-1.3-0.1-2.3-1.2-2.2-2.4
				c0.1-1.5,0.1-3,0.1-4.5c0-1.4,0-2.9-0.1-4.5c-0.1-1.3,0.9-2.4,2.2-2.4c1.2-0.1,2.4,0.9,2.4,2.2c0.1,1.6,0.1,3.2,0.1,4.7
				c0,1.7,0,3.2-0.1,4.8C759.3,801.3,758.3,802.2,757.1,802.2z M666.1,784.7c-0.7,0-1.4-0.3-1.8-0.9c-1.8-2.4-3.7-5-5.5-7.6
				c-0.7-1.1-0.5-2.5,0.6-3.2c1.1-0.7,2.5-0.5,3.2,0.6c1.8,2.5,3.6,5,5.4,7.4c0.8,1,0.6,2.5-0.5,3.2
				C667,784.5,666.6,784.7,666.1,784.7z M756,779.1c-1.2,0-2.2-0.9-2.3-2.1c-0.3-3-0.7-6.1-1.2-9.1c-0.2-1.3,0.7-2.4,2-2.6
				c1.3-0.2,2.4,0.7,2.6,2c0.4,3.1,0.8,6.1,1.2,9.2c0.1,1.3-0.8,2.4-2,2.6C756.1,779.1,756.1,779.1,756,779.1z M653.1,765.5
				c-0.8,0-1.5-0.4-2-1.1c-1.6-2.7-3.2-5.4-4.7-8.1c-0.6-1.1-0.2-2.5,0.9-3.1c1.1-0.6,2.5-0.2,3.1,0.9c1.5,2.6,3,5.3,4.6,7.9
				c0.7,1.1,0.3,2.5-0.8,3.2C653.9,765.4,653.5,765.5,653.1,765.5z M752.5,756.3c-1.1,0-2.1-0.8-2.3-1.9c-0.6-3-1.2-6-1.9-8.9
				c-0.3-1.2,0.5-2.5,1.7-2.8c1.2-0.3,2.5,0.5,2.8,1.7c0.7,3,1.3,6,1.9,9.1c0.2,1.3-0.6,2.5-1.8,2.7
				C752.8,756.3,752.7,756.3,752.5,756.3z M642,745.2c-0.9,0-1.7-0.5-2.1-1.3c-1.4-2.8-2.7-5.7-3.9-8.5c-0.5-1.2,0-2.5,1.2-3
				c1.2-0.5,2.5,0,3,1.2c1.2,2.8,2.5,5.6,3.8,8.3c0.6,1.2,0.1,2.5-1.1,3.1C642.7,745.1,642.4,745.2,642,745.2z M747.2,733.9
				c-1,0-1.9-0.7-2.2-1.7c-0.8-2.9-1.7-5.9-2.6-8.8c-0.4-1.2,0.3-2.5,1.5-2.9c1.2-0.4,2.5,0.3,2.9,1.5c0.9,3,1.8,5.9,2.7,8.9
				c0.3,1.2-0.4,2.5-1.6,2.9C747.6,733.8,747.4,733.9,747.2,733.9z M633,723.9c-0.9,0-1.8-0.6-2.2-1.5c-1.1-2.9-2.1-5.9-3.1-8.8
				c-0.4-1.2,0.3-2.5,1.5-2.9c1.2-0.4,2.5,0.3,2.9,1.5c0.9,2.9,1.9,5.8,3,8.7c0.4,1.2-0.2,2.5-1.4,3
				C633.5,723.9,633.3,723.9,633,723.9z M740,711.9c-0.9,0-1.8-0.6-2.2-1.5c-1.1-2.9-2.2-5.7-3.3-8.5c-0.5-1.2,0.1-2.5,1.3-3
				c1.2-0.5,2.5,0.1,3,1.3c1.2,2.9,2.3,5.8,3.4,8.7c0.4,1.2-0.2,2.5-1.4,3C740.6,711.9,740.3,711.9,740,711.9z M626.1,701.9
				c-1,0-2-0.7-2.2-1.7c-0.8-3-1.5-6.1-2.1-9.1c-0.3-1.2,0.5-2.5,1.8-2.7c1.2-0.3,2.5,0.5,2.7,1.8c0.6,3,1.3,5.9,2.1,8.9
				c0.3,1.2-0.4,2.5-1.7,2.8C626.5,701.8,626.3,701.9,626.1,701.9z M731.2,690.6c-0.9,0-1.7-0.5-2.1-1.3c-1.3-2.8-2.6-5.5-4-8.3
				c-0.6-1.1-0.1-2.5,1-3.1c1.1-0.6,2.5-0.1,3.1,1c1.4,2.8,2.7,5.6,4,8.4c0.5,1.2,0,2.5-1.1,3.1
				C731.8,690.5,731.5,690.6,731.2,690.6z M621.5,679.2c-1.1,0-2.1-0.8-2.3-2c-0.4-3.1-0.8-6.2-1.1-9.3c-0.1-1.3,0.8-2.4,2.1-2.5
				c1.3-0.1,2.4,0.8,2.5,2.1c0.3,3,0.7,6.1,1.1,9.1c0.2,1.3-0.7,2.4-2,2.6C621.7,679.2,621.6,679.2,621.5,679.2z M720.7,670
				c-0.8,0-1.6-0.4-2-1.2c-1.5-2.7-3-5.3-4.6-7.9c-0.7-1.1-0.3-2.5,0.8-3.2c1.1-0.7,2.5-0.3,3.2,0.8c1.6,2.7,3.1,5.4,4.7,8.1
				c0.6,1.1,0.2,2.5-0.9,3.1C721.5,669.9,721.1,670,720.7,670z M619.4,656.2c-1.2,0-2.3-1-2.3-2.2c-0.1-2.1-0.1-4.2-0.1-6.3
				c0-1,0-2,0-3.1c0-1.3,1.1-2.3,2.3-2.3c0,0,0,0,0,0c1.3,0,2.3,1.1,2.3,2.3c0,1,0,2,0,3c0,2.1,0,4.1,0.1,6.1
				C621.8,655.1,620.8,656.1,619.4,656.2C619.5,656.2,619.5,656.2,619.4,656.2z M708.7,650.2c-0.8,0-1.5-0.4-1.9-1
				c-1.7-2.6-3.4-5.1-5.2-7.6c-0.7-1-0.5-2.5,0.6-3.2c1-0.7,2.5-0.5,3.2,0.6c1.8,2.5,3.5,5.1,5.2,7.7c0.7,1.1,0.4,2.5-0.7,3.2
				C709.6,650.1,709.2,650.2,708.7,650.2z M620.1,633.1c-0.1,0-0.1,0-0.2,0c-1.3-0.1-2.2-1.2-2.1-2.5c0.3-3.1,0.6-6.2,1.1-9.3
				c0.2-1.3,1.3-2.2,2.6-2c1.3,0.2,2.2,1.3,2,2.6c-0.4,3-0.8,6.1-1,9.1C622.3,632.2,621.3,633.1,620.1,633.1z M695.3,631.4
				c-0.7,0-1.4-0.3-1.8-0.9c-1.9-2.4-3.8-4.8-5.7-7.2c-0.8-1-0.7-2.4,0.3-3.3c1-0.8,2.4-0.7,3.3,0.3c2,2.4,3.9,4.8,5.8,7.3
				c0.8,1,0.6,2.5-0.4,3.2C696.3,631.3,695.8,631.4,695.3,631.4z M680.5,613.6c-0.6,0-1.3-0.3-1.7-0.8c-2-2.3-4.1-4.5-6.2-6.8
				c-0.9-0.9-0.8-2.4,0.1-3.3c0.9-0.9,2.4-0.8,3.3,0.1c2.1,2.3,4.2,4.5,6.3,6.9c0.8,1,0.8,2.4-0.2,3.3
				C681.6,613.4,681.1,613.6,680.5,613.6z M623.6,610.2c-0.2,0-0.3,0-0.5-0.1c-1.2-0.3-2-1.5-1.8-2.8c0.7-3.1,1.4-6.1,2.2-9.1
				c0.3-1.2,1.6-2,2.8-1.6c1.2,0.3,2,1.6,1.6,2.8c-0.8,2.9-1.5,5.9-2.2,8.9C625.6,609.5,624.6,610.2,623.6,610.2z M298.7,608.9
				c-0.3,0-0.6-0.1-0.9-0.2c-1.2-0.5-1.7-1.9-1.2-3c0.1-0.1,1.4-3.3,4.4-8.5c0.6-1.1,2-1.5,3.2-0.9c1.1,0.6,1.5,2,0.9,3.2
				c-2.8,4.9-4.2,8-4.2,8C300.4,608.4,299.5,608.9,298.7,608.9z M664.5,597c-0.6,0-1.2-0.2-1.6-0.7c-2.2-2.1-4.4-4.2-6.7-6.3
				c-0.9-0.9-1-2.3-0.1-3.3c0.9-0.9,2.3-1,3.3-0.1c2.3,2.1,4.6,4.2,6.8,6.4c0.9,0.9,0.9,2.4,0,3.3C665.7,596.7,665.1,597,664.5,597z
				 M310.4,588.9c-0.5,0-0.9-0.1-1.3-0.4c-1-0.7-1.3-2.2-0.6-3.2c1.8-2.5,3.6-5.1,5.6-7.6c0.8-1,2.2-1.2,3.2-0.4
				c1,0.8,1.2,2.2,0.4,3.2c-1.9,2.4-3.7,4.9-5.4,7.4C311.8,588.6,311.1,588.9,310.4,588.9z M629.8,588c-0.3,0-0.5,0-0.8-0.1
				c-1.2-0.4-1.8-1.7-1.4-2.9c1-2.9,2.2-5.9,3.3-8.8c0.5-1.2,1.8-1.7,3-1.3c1.2,0.5,1.7,1.8,1.3,3c-1.1,2.8-2.2,5.7-3.2,8.5
				C631.7,587.4,630.8,588,629.8,588z M647.4,581.5c-0.5,0-1.1-0.2-1.5-0.5c-2.3-2-4.7-3.9-7.1-5.8c-1-0.8-1.2-2.2-0.4-3.2
				c0.8-1,2.2-1.2,3.2-0.4c2.4,1.9,4.8,3.9,7.2,5.9c1,0.8,1.1,2.3,0.3,3.3C648.7,581.2,648,581.5,647.4,581.5z M324.8,570.9
				c-0.6,0-1.1-0.2-1.6-0.6c-0.9-0.9-1-2.3-0.2-3.3c2.1-2.3,4.3-4.6,6.5-6.8c0.9-0.9,2.4-0.9,3.3,0c0.9,0.9,0.9,2.4,0,3.3
				c-2.1,2.1-4.3,4.3-6.3,6.6C326.1,570.6,325.4,570.9,324.8,570.9z M629.1,567.3c-0.5,0-0.9-0.1-1.3-0.4c-2.5-1.8-5-3.5-7.5-5.3
				c-1.1-0.7-1.3-2.2-0.6-3.2c0.7-1.1,2.2-1.3,3.2-0.6c2.6,1.7,5.1,3.5,7.6,5.3c1,0.7,1.3,2.2,0.5,3.2
				C630.5,567,629.8,567.3,629.1,567.3z M638.8,566.7c-0.3,0-0.7-0.1-1-0.2c-1.1-0.6-1.6-2-1-3.1c1.4-2.8,2.8-5.6,4.4-8.3
				c0.6-1.1,2-1.5,3.1-0.9c1.1,0.6,1.5,2,0.9,3.1c-1.5,2.7-2.9,5.4-4.3,8.1C640.5,566.3,639.7,566.7,638.8,566.7z M341.4,554.8
				c-0.7,0-1.3-0.3-1.8-0.8c-0.8-1-0.7-2.4,0.3-3.3c2.4-2,4.8-4,7.3-5.9c1-0.8,2.5-0.6,3.2,0.4c0.8,1,0.6,2.5-0.4,3.2
				c-2.4,1.8-4.8,3.8-7.1,5.7C342.5,554.6,342,554.8,341.4,554.8z M609.9,554.5c-0.4,0-0.8-0.1-1.2-0.3c-2.6-1.6-5.2-3.2-7.9-4.7
				c-1.1-0.6-1.5-2-0.9-3.2c0.6-1.1,2.1-1.5,3.2-0.9c2.7,1.5,5.4,3.1,8,4.7c1.1,0.7,1.4,2.1,0.8,3.2
				C611.4,554.1,610.7,554.5,609.9,554.5z M650.3,546.7c-0.4,0-0.9-0.1-1.3-0.4c-1.1-0.7-1.4-2.1-0.7-3.2c1.7-2.6,3.5-5.2,5.3-7.7
				c0.7-1,2.2-1.3,3.2-0.5c1,0.7,1.3,2.2,0.5,3.2c-1.8,2.5-3.5,5-5.1,7.6C651.8,546.3,651.1,546.7,650.3,546.7z M589.8,543.2
				c-0.4,0-0.7-0.1-1.1-0.3c-2.7-1.4-5.5-2.8-8.2-4.1c-1.2-0.5-1.6-1.9-1.1-3.1c0.5-1.1,1.9-1.6,3.1-1.1c2.8,1.3,5.6,2.7,8.3,4.1
				c1.1,0.6,1.6,2,1,3.1C591.4,542.7,590.6,543.2,589.8,543.2z M360,541c-0.8,0-1.5-0.4-1.9-1.1c-0.7-1.1-0.4-2.5,0.7-3.2
				c2.6-1.7,5.3-3.3,8-4.9c1.1-0.6,2.5-0.3,3.2,0.9c0.6,1.1,0.3,2.5-0.9,3.2c-2.6,1.5-5.3,3.1-7.8,4.7
				C360.8,540.9,360.4,541,360,541z M568.8,533.4c-0.3,0-0.6-0.1-0.9-0.2c-2.8-1.2-5.7-2.3-8.5-3.4c-1.2-0.5-1.8-1.8-1.3-3
				c0.5-1.2,1.8-1.8,3-1.3c2.9,1.1,5.8,2.3,8.6,3.5c1.2,0.5,1.7,1.8,1.2,3C570.6,532.9,569.7,533.4,568.8,533.4z M380.2,529.8
				c-0.9,0-1.7-0.5-2.1-1.3c-0.5-1.2-0.1-2.5,1.1-3.1c2.8-1.3,5.7-2.6,8.6-3.8c1.2-0.5,2.5,0.1,3,1.3c0.5,1.2-0.1,2.5-1.3,3
				c-2.8,1.1-5.6,2.4-8.3,3.7C380.8,529.7,380.5,529.8,380.2,529.8z M663.9,528c-0.5,0-1-0.2-1.5-0.5c-1-0.8-1.1-2.3-0.3-3.3
				c1.9-2.4,4-4.8,6-7.1c0.8-1,2.3-1.1,3.3-0.2c1,0.8,1.1,2.3,0.2,3.3c-2,2.3-4,4.6-5.9,7C665.2,527.7,664.6,528,663.9,528z
				 M547.2,525.3c-0.2,0-0.5,0-0.7-0.1c-2.9-1-5.8-1.9-8.8-2.7c-1.2-0.4-1.9-1.6-1.6-2.9c0.4-1.2,1.6-1.9,2.9-1.6
				c3,0.9,6,1.8,8.9,2.8c1.2,0.4,1.9,1.7,1.5,2.9C549.1,524.7,548.2,525.3,547.2,525.3z M401.7,521.3c-1,0-1.9-0.6-2.2-1.6
				c-0.4-1.2,0.3-2.5,1.5-2.9c2.9-0.9,6-1.8,9-2.6c1.2-0.3,2.5,0.4,2.8,1.6c0.3,1.2-0.4,2.5-1.6,2.8c-2.9,0.8-5.9,1.7-8.8,2.6
				C402.1,521.2,401.9,521.3,401.7,521.3z M525,519.1c-0.2,0-0.4,0-0.5-0.1c-3-0.7-6-1.4-9-2c-1.3-0.3-2.1-1.5-1.8-2.7
				c0.3-1.3,1.5-2.1,2.7-1.8c3,0.6,6.1,1.3,9.1,2c1.2,0.3,2,1.5,1.7,2.8C526.9,518.3,526,519.1,525,519.1z M424,515.6
				c-1.1,0-2.1-0.8-2.3-1.9c-0.2-1.3,0.6-2.5,1.8-2.7c3-0.6,6.1-1.1,9.2-1.6c1.3-0.2,2.4,0.7,2.6,2c0.2,1.3-0.7,2.4-2,2.6
				c-3,0.4-6.1,1-9,1.5C424.3,515.5,424.2,515.6,424,515.6z M502.3,514.7c-0.1,0-0.2,0-0.3,0c-3-0.5-6.1-0.9-9.1-1.2
				c-1.3-0.1-2.2-1.3-2-2.6c0.1-1.3,1.3-2.2,2.6-2c3.1,0.3,6.2,0.8,9.3,1.2c1.3,0.2,2.1,1.4,1.9,2.6
				C504.4,513.8,503.4,514.7,502.3,514.7z M446.9,512.5c-1.2,0-2.2-0.9-2.3-2.1c-0.1-1.3,0.9-2.4,2.1-2.5c3.1-0.2,6.2-0.4,9.3-0.5
				c1.3-0.1,2.3,0.9,2.4,2.2c0,1.3-1,2.3-2.2,2.4c-3.1,0.1-6.1,0.3-9.1,0.5C447,512.5,447,512.5,446.9,512.5z M479.3,512.3
				c0,0-0.1,0-0.1,0c-3.1-0.2-6.1-0.3-9.2-0.4c-1.3,0-2.3-1.1-2.3-2.4c0-1.3,1.1-2.3,2.3-2.3c0,0,0,0,0.1,0c3.1,0.1,6.2,0.2,9.3,0.4
				c1.3,0.1,2.2,1.2,2.2,2.4C481.5,511.3,480.5,512.3,479.3,512.3z"/>
		</g>
		<path fill="#1D1D1B" d="M687.9,516.7l140.2-32.6c5.1-1.2,9-5.1,10.2-10.2l33.3-140c2.4-9.9-6.5-18.8-16.4-16.5L715,350
			c-5.1,1.2-9,5.1-10.2,10.2l-33.3,140C669.1,510.1,678,519,687.9,516.7z"/>
		<path fill="#1D1D1B" d="M855.2,317.4l-19.5,4.5c-4.7,1.1-8.2,4.9-8.9,9.6c-3.1,20.4-13.7,75.3-40.3,101.9
			c-26.7,26.7-81.7,38.3-101.8,41.7c-4.6,0.8-8.3,4.3-9.4,8.8l-3.8,16.1c-2.4,9.9,6.5,18.8,16.4,16.5l140.2-32.6
			c5.1-1.2,9-5.1,10.2-10.2l33.3-140C874,324,865.1,315.1,855.2,317.4z"/>
	</g>
	<path fill="#1D1D1B" d="M243.5,1157c0,0-49.4,20.7-52.3,47.4c0.7,13.9,90.3,15.1,99.3-2.5c8.4-16.5-3.5-41.3-10-53.6L243.5,1157z"
		/>
	<path fill="#1D1D1B" d="M280.4,1148.2l-7.6,1.8c5.7,12.9,10.8,29.9,4.5,42.3c-6.8,13.4-60.4,15.9-85.9,10.2
		c-0.1,0.6-0.2,1.2-0.3,1.8c0.7,13.9,90.3,15.1,99.3-2.5C298.9,1185.3,286.9,1160.5,280.4,1148.2z"/>
	<path fill="#1D1D1B" d="M429.6,1154.9c0,0-32.8,44.3-15.3,69.1c9.7,14.2,87.1-45.8,84.7-53.5c-2.4-7.7-20.4-35.6-52.9-38.9
		L429.6,1154.9z"/>
	<path fill="#1D1D1B" d="M499.1,1170.5c-2.4-7.7-20.4-35.6-52.9-38.9l-8.2,11.4c17.7,9.7,32.4,24.7,31.9,30.6
		c-1.3,16.6-32.4,32.5-57.6,47.1c0.6,1.1,1.2,2.3,2,3.3C424,1238.2,501.5,1178.2,499.1,1170.5z"/>
	<path fill="#1D1D1B" d="M465.1,1135c4.2-15.3-68.8-42.5-68.8-42.5c28.4-51.6,15-103.1,15-103.1l-159-30
		c-8.4,10.3-49.3,66.1-58.2,100.3c-8.9,34.2,18.3,99.6,37.3,104.2c19.1,4.6,50.8-2.8,54.3-12.3c3.5-9.4-12.5-62.2-12.5-62.2
		c11.7-9.7,21.4-25.8,27.3-37.2l1.5,0.8c-4.2,14.4-8.6,36.7-1.2,51.3c31.3,52.6,100.3,74.9,111,72.9
		C422.4,1175,460.9,1150.3,465.1,1135z"/>
	<path fill="#1D1D1B" d="M396.3,1092.5c0,0-9.2,10.7-26-1.4C370.4,1091.1,386.5,1097.2,396.3,1092.5z"/>
	<path fill="#1D1D1B" d="M396.3,1092.5c0,0-3.4,19.3-19.8,16.6C376.5,1109.2,387.5,1105.8,396.3,1092.5z"/>
	<path fill="#1D1D1B" d="M359.9,1093c0,0,18.4,14.5,36.1,0C396,1092.9,377.7,1119.1,359.9,1093z"/>
	<path fill="#1D1D1B" d="M238.5,1069.8c0,0,7.3,22.5,35.9,19.3C274.4,1089.1,253.2,1085.3,238.5,1069.8z"/>
	<path fill="#1D1D1B" d="M364.8,1014.6c0,0-15.7,31.5,39.4,40.3C404.2,1054.9,373.7,1042.3,364.8,1014.6z"/>
	<path fill="#1D1D1B" d="M270.2,989.8c0,0-15.7,32.9-45.1,15.9C225.2,1005.8,249,1008.5,270.2,989.8z"/>
	<g>
		<path fill="#1D1D1B" d="M317.4,637.3c6.7-1.9,12.6-6.3,15.9-12.9c6.6-12.9,0.8-28.9-12.8-35.9c-13.6-6.9-30-2.2-36.5,10.7
			c-4.9,9.7-2.9,21.2,4.2,29.3c-20.4,75.9,29.9,133.5,32.2,136.1l22.7-20.2C341.3,742.4,302.1,696.7,317.4,637.3z"/>
		<path fill="#1D1D1B" d="M502.9,901.3l-29.9-5.4c-0.1,0.6-11,59.7-43.2,132.7c-8.3,1.1-15.9,5.9-19.8,13.6
			c-6.6,12.9-0.8,28.9,12.8,35.9c13.6,6.9,30,2.2,36.5-10.7c4.3-8.5,3.3-18.4-1.9-26.1C491.3,964.7,502.5,904,502.9,901.3z"/>
		<path fill="#1D1D1B" d="M478.4,816.8l-43.7-20c-52.8-8.8-88.5-78.9-88.5-78.9l-53.7,31.9l38.3,61.5l-96.8,156.6
			c137.1,70,188.9,32.4,188.9,32.4c1.6-19.7,13.5-54.6,24.6-83.4c-0.4,3-0.6,4.7-0.6,4.7l61.7,22.5
			C527,846.4,478.4,816.8,478.4,816.8z"/>
		<path fill="#1D1D1B" d="M480.5,841.5c0,0-50.2,109.1-57.6,158.8c0,0-37.9,32.4-154.4-16.2c0,0,110.8,28.4,130.4-5.7
			C418.4,944.4,470.7,847.6,480.5,841.5z"/>
		<path fill="#1D1D1B" d="M346.4,784.2l-59.9,98.6C286.5,882.9,327.9,840.8,346.4,784.2z"/>
		<path fill="#1D1D1B" d="M352.2,833.8c0,0-11.1,62.2,16,105.7L352.2,833.8z"/>
		<path fill="#1D1D1B" d="M329.6,873.4c0,0-1.4,54,42.7,92.3L329.6,873.4z"/>
		<g>
			<path fill="#1D1D1B" d="M442.4,577.6c-6.1,0-11.4,3.2-14.4,7.9c-1.3-0.3-2.8-0.5-4.2-0.5c-9.4,0-17,7.5-17.2,16.8
				c-0.6-0.1-1.2-0.1-1.8-0.1c-9.6,0-17.3,7.7-17.3,17.3c0,2.9,0.7,5.7,2,8.1c-4,3.2-6.6,8.1-6.6,13.6c0,9.6,7.7,17.3,17.3,17.3
				s17.3-7.7,17.3-17.3c0-0.1,0-0.3,0-0.4c7.9-1.5,13.9-8.5,13.9-16.9c0-1.9-0.3-3.8-0.9-5.5c3.3-1.4,6-3.7,7.8-6.7
				c1.3,0.3,2.7,0.5,4.1,0.5c9.4,0,17.1-7.7,17.1-17.1C459.5,585.3,451.8,577.6,442.4,577.6z"/>
			<path fill="#1D1D1B" d="M403.5,776.8c-12.6,23.6-5.4,31.6,6.1,37.4c11.5,5.8,26.3,1.3,31.7-10.9c2.2-5,3.5-10.3,6.3-17.7
				C447.6,785.7,422.9,776.4,403.5,776.8z"/>
			<polygon fill="#1D1D1B" points="436.9,809.1 457.7,763.5 415.4,744.9 399,786.8 			"/>
			<path fill="#1D1D1B" d="M446.5,787.1c-2.5,5-15,8-26.3,3.4c-11.5-4.7-19.3-13.8-16.8-18.7c2.5-5,13.8-1.9,24.6,3.6
				C438.8,780.9,449,782.2,446.5,787.1z"/>
			<path fill="#1D1D1B" d="M449.4,606.6c0,0-107.6,34.9-89.3,121.8c11,31.7,65.1,62.1,89.7,58.4C474.4,783,508.3,645.6,449.4,606.6z
				"/>
			<g opacity="0.9">
				<path fill="#1D1D1B" d="M389.6,728c-2.8,0-5.9-0.7-9.5-2.7c-10.6-5.8-9.3-16.7-7.1-21.6c0.5-1.1,1.7-1.6,2.8-1.1
					c1.1,0.5,1.6,1.7,1.1,2.8c-0.2,0.4-4.5,10.8,5.3,16.2c10.9,6,16.5-2.3,17.1-3.2c0.6-1,1.9-1.3,3-0.7c1,0.6,1.3,1.9,0.7,2.9
					C402.9,720.7,398.3,728,389.6,728z"/>
			</g>
			<g>
				<path fill="#1D1D1B" d="M403.9,703.1c-0.2,0-0.4,0-0.6-0.1c-1.4-0.5-14.2-4.7-16.2-10.7c-0.6-1.8-0.3-3.5,0.8-5.1
					c1.7-2.4,4.3-3.5,7.4-3.1c5.8,0.7,12.7,6.6,14,10c0.4,1-0.1,2.1-1.1,2.5c-1,0.4-2.1-0.1-2.5-1.1c-0.7-1.8-6.2-7-10.9-7.6
					c-1.7-0.2-3,0.3-3.9,1.5c-0.5,0.8-0.5,1.3-0.3,1.7c1.1,3.2,9,6.8,13.8,8.3c1,0.3,1.6,1.4,1.2,2.4
					C405.5,702.6,404.7,703.1,403.9,703.1z"/>
			</g>
			
				<ellipse transform="matrix(0.8908 0.4545 -0.4545 0.8908 371.1616 -114.0045)" fill="#1D1D1B" cx="422.7" cy="715.1" rx="12.1" ry="11.3"/>
			
				<ellipse transform="matrix(0.8908 0.4545 -0.4545 0.8908 349.4775 -97.2361)" fill="#1D1D1B" cx="377" cy="678.4" rx="12.1" ry="11.3"/>
			
				<ellipse transform="matrix(0.8908 0.4545 -0.4545 0.8908 366.2668 -118.7707)" opacity="0.9" fill="#1D1D1B" cx="430.2" cy="702.6" rx="6.4" ry="7.7"/>
			
				<ellipse transform="matrix(0.8326 0.5539 -0.5539 0.8326 434.0094 -101.1363)" opacity="0.9" fill="#1D1D1B" cx="384.3" cy="667.5" rx="6.4" ry="7.7"/>
			<path fill="#1D1D1B" d="M610.7,688.6c0-5.9-3.2-11-7.9-13.6c0.3-1.1,0.4-2.3,0.4-3.5c0-5.5-2.7-10.2-6.9-13
				c2-2.6,3.2-5.9,3.2-9.5c0-7.3-4.9-13.4-11.6-15c0.2-0.9,0.3-1.9,0.3-2.9c0-8.5-6.7-15.5-15-15.5c-0.7,0-1.3,0.1-2,0.2
				c-2.6-4.6-7.4-7.8-13-7.8c0,0-0.1,0-0.1,0c-0.9-7.7-7.2-13.6-14.9-13.6c-1.8,0-3.6,0.4-5.2,1c0,0,0,0,0,0c0-8.5-6.7-15.5-15-15.5
				c-4.7,0-9,2.3-11.7,5.8c-2.7-3.5-7-5.8-11.7-5.8c-3.6,0-6.9,1.3-9.4,3.5c-2.5-4.8-7.5-8.1-13.2-8.1c-4.4,0-8.3,1.9-11.1,5
				c-2.5-2-5.6-3.2-9.1-3.2c-6.7,0-12.4,4.6-14.3,10.9c-5.8,0.6-10.7,4.5-12.6,10c-0.3,0-0.6,0-1,0c-8.3,0-15,6.9-15,15.5
				c0,8.5,6.7,15.5,15,15.5c3,0,5.8-0.9,8.1-2.5c0.3,3.9,1.9,7.5,4.5,10c-1.3,2.3-2.1,5-2.1,7.9c0,8.5,6.7,15.5,15,15.5
				c1.5,0,3-0.2,4.4-0.7c-0.2,1-0.3,2-0.3,3.1c0,5.2,2.5,9.8,6.3,12.6c-1.2,2.2-1.8,4.7-1.8,7.4c0,6.2,3.5,11.5,8.6,14
				c-5.6,2.2-9.7,7.8-9.7,14.4c0,8.5,6.7,15.5,15,15.5c1.4,0,2.7-0.2,3.9-0.6c1,4.1,3.5,7.5,6.9,9.6c-2,2.6-3.2,5.9-3.2,9.5
				c0,1.6,0.2,3.2,0.7,4.6c-3.5,0.8-6.6,2.9-8.7,5.7c-2.1-1.2-4.6-1.9-7.2-1.9c-8.3,0-15,6.9-15,15.5c0,3.1,0.9,5.9,2.4,8.4
				c-1.5,2.4-2.4,5.3-2.4,8.4c0,8.5,6.7,15.5,15,15.5c4.5,0,8.5-2.1,11.3-5.3c2.7,3.2,6.8,5.3,11.3,5.3c3.9,0,7.5-1.6,10.2-4.1
				c2.7,4.2,7.3,6.9,12.5,6.9c5.7,0,10.7-3.3,13.2-8.1c2.3,1.4,5,2.3,7.8,2.3c6.3,0,11.7-4,13.9-9.7c0.8,0.1,1.7,0.2,2.6,0.2
				c7.4,0,13.5-5.5,14.7-12.7c0.5,0.1,1,0.1,1.6,0.1c7.3,0,13.4-5.4,14.7-12.6c7.1-1.2,12.5-7.6,12.5-15.2c0-1.2-0.1-2.4-0.4-3.5
				c2.6-2.8,4.2-6.6,4.2-10.8c0-2.5-0.6-4.9-1.6-6.9c6.2-1.9,10.7-7.8,10.7-14.8c0-4.1-1.5-7.8-4-10.5
				C608.3,698.2,610.7,693.7,610.7,688.6z"/>
			<circle fill="#1D1D1B" cx="483.2" cy="734.3" r="20.6"/>
			<path fill="#1D1D1B" d="M502.9,728.5c0.1,3.2-0.7,6.6-2.2,9.7c-5.2,10.1-17.5,14.1-27.6,9c-5.2-2.7-8.8-7.2-10.3-12.5
				c0.1,7.4,4.2,14.4,11.2,18c10.1,5.2,22.5,1.1,27.6-9C504.1,738.8,504.4,733.4,502.9,728.5z"/>
		</g>
	</g>
</g>
</svg>
