<svg id="Layer_1" data-name="Layer 1" xmlns="http://www.w3.org/2000/svg" viewBox="0 0 2048 2048"><defs><style>.cls-1{fill:#e8eeef;}.cls-2{fill:#bdc2c1;}.cls-3{fill:#dfddd8;}.cls-4{opacity:0.03;}</style></defs><title>maan</title><circle class="cls-1" cx="1024" cy="1016.83" r="220"/><path class="cls-2" d="M1284,1347.9a40.16,40.16,0,0,1-37.66,40.07c-0.83,0-1.66.08-2.5,0.08a40.15,40.15,0,1,1,0-80.31c0.84,0,1.67,0,2.5.08A40.16,40.16,0,0,1,1284,1347.9Z" transform="translate(-352.03 -359.28)"/><path class="cls-2" d="M1325.64,1474.1a19.37,19.37,0,0,1-16.87,19.2,18.75,18.75,0,0,1-2.5.16,19.36,19.36,0,0,1,0-38.72h0a18.75,18.75,0,0,1,2.5.16A19.37,19.37,0,0,1,1325.64,1474.1Z" transform="translate(-352.03 -359.28)"/><path class="cls-2" d="M1407.38,1375.14a27.23,27.23,0,0,1-24.75,27.13c-0.82.08-1.66,0.12-2.5,0.12a27.24,27.24,0,0,1,0-54.49,17.31,17.31,0,0,1,2.5.12A27.22,27.22,0,0,1,1407.38,1375.14Z" transform="translate(-352.03 -359.28)"/><path class="cls-3" d="M1284,1347.9a37.73,37.73,0,1,1-37.66-40.08A40.16,40.16,0,0,1,1284,1347.9Z" transform="translate(-352.03 -359.28)"/><path class="cls-3" d="M1325.64,1474.1a17,17,0,1,1-16.87-19.2A19.37,19.37,0,0,1,1325.64,1474.1Z" transform="translate(-352.03 -359.28)"/><path class="cls-3" d="M1407.38,1375.14a24.85,24.85,0,1,1-24.75-27.11A27.23,27.23,0,0,1,1407.38,1375.14Z" transform="translate(-352.03 -359.28)"/><g class="cls-4"><circle class="cls-1" cx="1024" cy="1024" r="1024"/></g><g class="cls-4"><circle class="cls-1" cx="1024" cy="1024" r="746.67"/></g><g class="cls-4"><circle class="cls-1" cx="1024" cy="1024" r="540.5"/></g><g class="cls-4"><circle class="cls-1" cx="1024" cy="1024" r="406.73"/></g><g class="cls-4"><circle class="cls-1" cx="1024" cy="1024" r="299.13"/></g></svg>