<?xml version="1.0" encoding="UTF-8"?>
<svg width="563px" height="696px" viewBox="0 0 563 696" version="1.1" xmlns="http://www.w3.org/2000/svg" xmlns:xlink="http://www.w3.org/1999/xlink">
    <!-- Generator: Sketch 43.2 (39069) - http://www.bohemiancoding.com/sketch -->
    <title>Group 4 Copy</title>
    <desc>Created with Sketch.</desc>
    <defs>
        <path d="M54.4562601,72.9083348 L52.5772137,72.9533557 L52.5772137,41.5285068 L559.585039,40.8972659 L559.585039,59.6095698 L574.576003,345.058602 L535.683353,348.096548 L372.152348,357.339302 L454.685991,639.542176 L416.171841,649.224879 L347.77414,358.953828 L275.826435,363.696403 L207.252234,684.12789 L168.738085,687.02734 L251.632815,365.283658 L78.1284326,376.555803 L77.9633644,383.849534 L54.4562601,385.685698 L54.4562601,378.078642 L54.1091247,351.8724 L54.4562601,72.9083348 Z M85.0302747,72.184438 L78.7076554,350.967425 L535.683353,332.20698 L535.683353,63.4027267 L85.0302747,72.184438 Z" id="path-1"></path>
        <filter x="-0.6%" y="-0.3%" width="100.8%" height="100.5%" filterUnits="objectBoundingBox" id="filter-2">
            <feOffset dx="-2" dy="-1" in="SourceAlpha" result="shadowOffsetOuter1"></feOffset>
            <feComposite in="shadowOffsetOuter1" in2="SourceAlpha" operator="out" result="shadowOffsetOuter1"></feComposite>
            <feColorMatrix values="0 0 0 0 0   0 0 0 0 0   0 0 0 0 0  0 0 0 0.5 0" type="matrix" in="shadowOffsetOuter1"></feColorMatrix>
        </filter>
    </defs>
    <g id="Welcome" stroke="none" stroke-width="1" fill="none" fill-rule="evenodd">
        <g id="Artboard" transform="translate(-3915.000000, -786.000000)">
            <g id="Group-9" transform="translate(4171.500000, 1141.500000) rotate(10.000000) translate(-4171.500000, -1141.500000) translate(3789.000000, 720.000000)">
                <g id="Group-4-Copy" transform="translate(382.329128, 421.226042) rotate(-12.000000) translate(-382.329128, -421.226042) translate(68.829128, 57.226042)">
                    <polygon id="Rectangle-5-Copy" fill="#FFFFFF" transform="translate(340.606329, 217.774435) scale(-1, 1) translate(-340.606329, -217.774435) " points="65.5919004 91.9966144 514.827365 43.5073205 615.620758 307.921834 136.67613 392.04155"></polygon>
                    <g id="Combined-Shape-Copy" transform="translate(313.576609, 363.962303) scale(-1, 1) rotate(-10.000000) translate(-313.576609, -363.962303) ">
                        <use fill="black" fill-opacity="1" filter="url(#filter-2)" xlink:href="#path-1"></use>
                        <use fill="#8B572A" fill-rule="evenodd" xlink:href="#path-1"></use>
                        <path stroke="#5E330E" stroke-width="1" d="M53.0772137,72.4412324 L53.0772137,42.0278846 L559.085039,41.3978888 L559.085039,59.6095698 L574.05113,344.598077 L535.644416,347.598066 L372.124133,356.840099 L371.495792,356.875613 L371.672451,357.479654 L454.060272,639.183927 L416.542116,648.61623 L348.260811,358.839152 L348.163709,358.427064 L347.741253,358.454911 L275.793547,363.197486 L275.416566,363.222336 L275.337505,363.59177 L206.841603,683.657389 L169.396367,686.476368 L252.117003,365.408405 L252.289223,364.739958 L251.6004,364.78471 L78.0960172,376.056854 L77.6389244,376.086551 L77.6285606,376.54449 L77.473721,383.386258 L54.9562601,385.14512 L54.9562601,378.078642 L54.6090809,351.865777 L54.9562597,72.9089569 L54.9568978,72.3961963 L54.4442838,72.4084782 L53.0772137,72.4412324 Z M84.5304033,72.1731013 L78.2077839,350.956088 L78.1957009,351.488864 L78.7281648,351.467004 L535.703863,332.706559 L536.183353,332.686874 L536.183353,332.20698 L536.183353,63.4027267 L536.183353,62.8928884 L535.673612,62.9028216 L85.0205332,71.6845329 L84.5412719,71.6938721 L84.5304033,72.1731013 Z"></path>
                    </g>
                </g>
            </g>
        </g>
    </g>
</svg>