<?xml version="1.0" encoding="UTF-8"?>
<svg width="144px" height="243px" viewBox="0 0 144 243" version="1.1" xmlns="http://www.w3.org/2000/svg" xmlns:xlink="http://www.w3.org/1999/xlink">
    <!-- Generator: Sketch 43.2 (39069) - http://www.bohemiancoding.com/sketch -->
    <title>Combined Shape</title>
    <desc>Created with Sketch.</desc>
    <defs>
        <path d="M138.343305,1112.39838 L137.895009,1112.4143 L137.895009,1101.30014 L258.854861,1101.07689 L258.854861,1107.69495 L262.431343,1208.65092 L253.152494,1209.72536 L214.137936,1212.99429 L233.828475,1312.80217 L224.639927,1316.2267 L208.321883,1213.5653 L191.156894,1215.24263 L174.796742,1328.57099 L165.608194,1329.59645 L185.38488,1215.804 L143.990915,1219.79067 L143.951533,1222.37027 L138.343305,1223.01968 L138.343305,1220.32926 L138.260486,1211.06078 L138.343305,1112.39838 Z M145.637528,1112.14236 L144.129103,1210.74072 L253.152494,1204.10563 L253.152494,1109.03649 L145.637528,1112.14236 Z" id="path-1"></path>
        <filter x="-2.4%" y="-0.9%" width="103.2%" height="101.3%" filterUnits="objectBoundingBox" id="filter-2">
            <feOffset dx="-2" dy="-1" in="SourceAlpha" result="shadowOffsetOuter1"></feOffset>
            <feComposite in="shadowOffsetOuter1" in2="SourceAlpha" operator="out" result="shadowOffsetOuter1"></feComposite>
            <feColorMatrix values="0 0 0 0 0   0 0 0 0 0   0 0 0 0 0  0 0 0 0.5 0" type="matrix" in="shadowOffsetOuter1"></feColorMatrix>
        </filter>
    </defs>
    <g id="Welcome" stroke="none" stroke-width="1" fill="none" fill-rule="evenodd">
        <g id="Day-start" transform="translate(-117.000000, -1091.000000)">
            <g id="Combined-Shape" transform="translate(200.163176, 1215.336672) rotate(-10.000000) translate(-200.163176, -1215.336672) ">
                <use fill="black" fill-opacity="1" filter="url(#filter-2)" xlink:href="#path-1"></use>
                <use fill="#8B572A" fill-rule="evenodd" xlink:href="#path-1"></use>
                <path stroke="#5E330E" stroke-width="1" d="M138.395009,1111.89623 L138.395009,1101.79922 L258.354861,1101.57781 L258.354861,1107.69495 L261.915317,1208.20733 L253.094981,1209.22868 L214.096189,1212.49603 L213.539208,1212.5427 L213.647392,1213.09106 L233.255683,1312.48205 L225.037818,1315.54481 L208.815684,1213.48681 L208.741785,1213.02189 L208.273256,1213.06767 L191.108267,1214.745 L190.718045,1214.78313 L190.662024,1215.17119 L174.357105,1328.11695 L166.214895,1329.02564 L185.877495,1215.88962 L185.9898,1215.24343 L185.336946,1215.3063 L143.942981,1219.29297 L143.4978,1219.33585 L143.490973,1219.78304 L143.458287,1221.92405 L138.843305,1222.45844 L138.843305,1220.32926 L138.760466,1211.05632 L138.843304,1112.3988 L138.84374,1111.88029 L138.395009,1111.89623 Z M145.137586,1112.13471 L143.629162,1210.73307 L143.620908,1211.27257 L144.159477,1211.23979 L253.182868,1204.60471 L253.652494,1204.57613 L253.652494,1204.10563 L253.652494,1109.03649 L253.652494,1108.52184 L253.138056,1108.5367 L145.62309,1111.64257 L145.144904,1111.65638 L145.137586,1112.13471 Z"></path>
            </g>
        </g>
    </g>
</svg>