<?xml version="1.0" encoding="UTF-8"?>
<svg width="150px" height="245px" viewBox="0 0 150 245" version="1.1" xmlns="http://www.w3.org/2000/svg" xmlns:xlink="http://www.w3.org/1999/xlink">
    <!-- Generator: Sketch 43.2 (39069) - http://www.bohemiancoding.com/sketch -->
    <title>Group 13</title>
    <desc>Created with Sketch.</desc>
    <defs>
        <path d="M19.3433045,20.3983813 L18.8950093,20.4143041 L18.8950093,9.30014456 L139.854861,9.07689092 L139.854861,15.6949508 L143.431343,116.65092 L134.152494,117.725363 L95.1379365,120.994287 L114.828475,220.802174 L105.639927,224.226696 L89.3218833,121.565303 L72.1568944,123.24263 L55.7967425,236.570992 L46.6081944,237.596453 L66.3848798,123.804001 L24.9909145,127.790668 L24.9515332,130.370273 L19.3433045,131.019677 L19.3433045,128.329257 L19.2604864,119.060784 L19.3433045,20.3983813 Z M26.6375278,20.1423577 L25.1291031,118.740718 L134.152494,112.105632 L134.152494,17.0364926 L26.6375278,20.1423577 Z" id="path-1"></path>
        <filter x="-2.4%" y="-0.9%" width="103.2%" height="101.3%" filterUnits="objectBoundingBox" id="filter-2">
            <feOffset dx="-2" dy="-1" in="SourceAlpha" result="shadowOffsetOuter1"></feOffset>
            <feComposite in="shadowOffsetOuter1" in2="SourceAlpha" operator="out" result="shadowOffsetOuter1"></feComposite>
            <feColorMatrix values="0 0 0 0 0   0 0 0 0 0   0 0 0 0 0  0 0 0 0.5 0" type="matrix" in="shadowOffsetOuter1"></feColorMatrix>
        </filter>
    </defs>
    <g id="Welcome" stroke="none" stroke-width="1" fill="none" fill-rule="evenodd">
        <g id="Artboard" transform="translate(-161.000000, -1082.000000)">
            <g id="Group-8" transform="translate(571.000000, 1172.000000) rotate(-4.000000) translate(-571.000000, -1172.000000) translate(169.000000, 1035.000000)">
                <g id="Group-13" transform="translate(0.000000, 27.000000)">
                    <polygon id="Rectangle-5" fill="#FFFFFF" points="7 27.1494141 114.176758 10 138.223633 103.516602 23.9589844 133.267578"></polygon>
                    <g id="Combined-Shape" transform="translate(81.163176, 123.336672) rotate(-10.000000) translate(-81.163176, -123.336672) ">
                        <use fill="black" fill-opacity="1" filter="url(#filter-2)" xlink:href="#path-1"></use>
                        <use fill="#8B572A" fill-rule="evenodd" xlink:href="#path-1"></use>
                        <path stroke="#5E330E" stroke-width="1" d="M19.3950093,19.8962296 L19.3950093,9.79922257 L139.354861,9.57781461 L139.354861,15.6949508 L142.915317,116.207332 L134.094981,117.228682 L95.0961891,120.496033 L94.5392081,120.542701 L94.6473916,121.091064 L114.255683,220.482053 L106.037818,223.544808 L89.8156843,121.486813 L89.7417846,121.02189 L89.273256,121.067673 L72.1082671,122.745 L71.7180447,122.783132 L71.6620244,123.17119 L55.3571048,236.116952 L47.2148946,237.025639 L66.8774954,123.889616 L66.9898004,123.243427 L66.3369464,123.306304 L24.9429811,127.292971 L24.4977998,127.335847 L24.4909728,127.783036 L24.4582872,129.924047 L19.8433045,130.458439 L19.8433045,128.329257 L19.7604664,119.056317 L19.8433044,20.398801 L19.8437396,19.8802914 L19.3950093,19.8962296 Z M26.1375863,20.1347093 L24.6291616,118.73307 L24.620908,119.272572 L25.1594766,119.239795 L134.182868,112.604709 L134.652494,112.576128 L134.652494,112.105632 L134.652494,17.0364926 L134.652494,16.5218402 L134.138056,16.5367011 L26.6230899,19.6425662 L26.1449041,19.6563799 L26.1375863,20.1347093 Z"></path>
                    </g>
                </g>
            </g>
        </g>
    </g>
</svg>