<?xml version="1.0" encoding="utf-8"?>
<!-- Generator: Adobe Illustrator 17.1.0, SVG Export Plug-In . SVG Version: 6.00 Build 0)  -->
<!DOCTYPE svg PUBLIC "-//W3C//DTD SVG 1.1//EN" "http://www.w3.org/Graphics/SVG/1.1/DTD/svg11.dtd">
<svg version="1.1" id="Laag_1" xmlns="http://www.w3.org/2000/svg" xmlns:xlink="http://www.w3.org/1999/xlink" x="0px" y="0px"
	 viewBox="0 0 1080 1920" enable-background="new 0 0 1080 1920" xml:space="preserve">
<polygon fill="#AFAFAF" points="158.3,653.4 549,827.2 904.9,1023.6 511.6,925 "/>
<path fill="#FFFFFF" stroke="#1D1D1B" stroke-miterlimit="10" d="M384.6,760.4"/>
<g>
	<path fill="#FFFFFF" d="M350.6,871.6c0,0,262.4-236.8,277.6-244.8l-160.3,410L350.6,871.6z"/>
	<polygon fill="#CECECE" points="667.2,1024.7 628.1,626.7 468,1032.5 	"/>
</g>
<g>
	<path fill="#FFFFFF" d="M158.3,653.4l380.6,237l-226.1,150.2c0,0-101.5-76.3-107.4-80.8C199.5,955.3,158.3,653.4,158.3,653.4z"/>
	<path fill="#CECECE" d="M493.2,1130.6c4.8-0.5,45.7-240.2,45.7-240.2l-226.1,150.2C312.8,1040.6,485,1131.4,493.2,1130.6z"/>
	<polygon fill="#F2F2F2" points="904.9,1023.6 538.9,890.4 493.2,1130.6 600.9,1172.4 	"/>
	<path fill="#FFFFFF" d="M610.3,1167.8c11.4,5.4,5.2,10.4-9.5,4.6c-10.7-4.2-56.6-14.4-77.4-21.4c-20.8-6.9-34.7-3.5-55.5-13.9
		c-20.8-10.4-43.7-27.5-61.1-35.1c-17.4-7.6-64.2-28-92.2-47.3s-47.9-52.8-65.1-54c-17.2-1.2-29.4-26.2-43.7-36.6
		c-11.4-8.3-4.2-13.2,9.4-4.4c13.6,8.8,50.7,40.9,61,41s31.3,16.8,39.3,22.9c8,6.1,29.5,23.8,49.3,31.2
		c19.9,7.3,69.4,43.3,78.7,47.3c9.3,4,28.9,22.9,45.7,21.3C506.1,1121.8,594.4,1160.2,610.3,1167.8z"/>
</g>
</svg>
