<?xml version="1.0" encoding="utf-8"?>
<!-- Generator: Adobe Illustrator 17.1.0, SVG Export Plug-In . SVG Version: 6.00 Build 0)  -->
<!DOCTYPE svg PUBLIC "-//W3C//DTD SVG 1.1//EN" "http://www.w3.org/Graphics/SVG/1.1/DTD/svg11.dtd">
<svg version="1.1" id="Laag_1" xmlns="http://www.w3.org/2000/svg" xmlns:xlink="http://www.w3.org/1999/xlink" x="0px" y="0px"
	 viewBox="0 0 1080 1920" enable-background="new 0 0 1080 1920" xml:space="preserve">
<g id="_x33_vs3gW.tif">
	<g>
		<g>
			<path d="M492,664c0.7,0,1.3,0,2,0c1.1,2.3,1.3,4.8,1,7.3c-0.9,7-0.9,6.9,5.3,4.4c2.2-0.9,4.5-1.9,7.7-1.1c-4,3.4-9.6,3.5-12.3,9
				c4-0.9,7.2-1.6,10.4-2.2c1-0.2,3.6-0.3,2.3,1.4c-2.2,2.8,0.1,2.8,1.4,3.9c6,4.7,11.2,10.5,13.5,17.6c5.4,16.3,5.7,33,1.8,49.8
				c-0.7,2.9-1,4.2,3,3.6c11.2-1.8,21.6,10.1,18.6,21c-2.3,8.5-8.1,14.1-16.2,17.1c-2.9,1.1-3.9,2.8-4.5,5.7
				c-0.8,3.8,1.5,7.3,0.8,10.8c-2.6,11.9-6.2,23.4-18.7,29c-4.5,2-2.2,5.7-2.2,8.7c0.1,3.1,2.4,3.6,4.9,3.5c8.5-0.4,17-0.6,25.5-1.2
				c12.2-0.8,22.4-5.8,30.9-14.5c12.2-12.3,21.8-26.4,29.2-42c3.8-8,6.3-16.5,8.9-24.9c0.5-1.6,0.8-3.4,1.9-4.6
				c2.6-3,2.6-6.3,1.8-9.9c-0.8-4-0.9-8-0.2-11.9c0.9-4.7,6.5-7.7,8.6-4.8c3.7,5.3,5.3,1.7,6.7-1.2c1.9-4.2,4.6-7.7,7.5-11.1
				c2.8-3.2,6.3-6.1,10.8-3.7c2.4,1.3,4,1.4,6.4,0.3c4.1-1.8,6.9,0.1,7.3,4.5c0.1,1.3,0,2.6,0,4c2.8,0.4,6-2.3,8,1.1
				c2.1,3.6,0,6.7-1.8,9.7c-0.6,1-1.3,1.9-2.1,2.8c-1.7,1.9-1.3,2.9,1,4c4.2,2,4.7,5.1,1.8,8.8c-2.2,2.9-5.2,4.7-8.4,6.1
				c-8.3,3.6-14.9,9.3-20.9,15.9c-1.1,1.2-2.3,2.4-2.6,4.2c-0.9,5.2-3.4,9.8-6,14.2c-9.8,16.5-20.7,32.3-32,47.8
				c-4.1,5.7-9,10.7-14,15.6c-7.4,7.1-15.9,12.1-26.3,13.4c-4.3,0.5-4.5,2.5-3.3,5.7c3.5,9.7,7,19.4,10.3,29.2
				c0.8,2.4,2.2,2.8,4.5,2.8c7.9-0.1,15.5-1.7,23.2-2.7c18.4-2.5,36.1-6.2,52.7-15.5c10.3-5.7,21.2-10.4,30.7-17.5
				c4.4-3.3,9.5-5.6,14.4-8c4.1-2,7.7-4.6,10.4-8.4c4.1-5.7,6.2-6.4,13.2-4.3c3.3,1,6.6,2.4,10,3c4.2,0.8,6.3-1.4,6-5.5
				c-0.1-2.2-0.4-4.3-0.3-6.5c0.2-3.9-1.2-5.2-5.3-4.8c-6.5,0.7-13.3,1.5-19.7,0.5c-12-1.9-26.2-20.7-26-33c0-2.8,0.5-4.8,4-3.2
				c2.1,0.9,4.2,0.6,6.4,0.2c9.6-1.8,15.8-7.5,18.6-16.8c5.9-19.6,6.5-39.3,0.9-59.1c-1-3.4-2.8-6.9-1.1-10.7
				c2.1-4.6,4-9.2,7.3-13.1c5.3-6.3,12-10.3,20.5-9c4.9,0.8,9.6,3.5,14.6,0.3c0.8-0.5,2.3-0.2,3.4,0.1c9.2,2.3,17.9,5.5,24.3,12.9
				c14.9,17,18.2,36.7,11.8,57.9c-3.5,11.5-5.7,23.3-7.8,35.1c-1.5,8.5,2.3,12.6,10.6,12.8c3.5,0.1,4,1.9,3.2,4.5
				c-0.8,2.9-2.2,5.6-3,8.5c-3.5,14-20,23.2-33.4,18.5c-1.4-0.5-2.5-1-2.8,1.2c-0.6,4.6,2,8.1,6.6,8.4c10,0.6,19.8,2.3,29.8,3.5
				c7.9,0.9,13.1,5,16.9,11.7c5.9,10.3,12,20.4,18,30.6c2.3,3.9,4.2,8,5.5,12.3c2.5,8.5,0.8,16-5.8,21.9
				c-13.7,12.2-28.1,23.6-43.7,33.2c-3.5,2.1-4.2,3.9-2.6,7.5c4.5,10.6,8.6,21.4,14.6,31.2c12.3,20.3,15.6,42.5,15.8,65.5
				c0,1.3,0,2.7,0.2,4c1.1,7.5,0.2,8.7-7.4,10c-1.3,0.2-2.7,0.2-4,0.4c-2.5,0.4-3.9,1.6-3.5,4.4c1.8,13.7,2.7,27.5,3.1,41.3
				c0.4,14.3,3,28.5,0.9,42.9c-0.3,2.3,0.7,3.8,2.5,5.1c9.9,7,17.9,16.2,27.3,23.9c6,4.9,11.1,7.6,18.7,6.1c5.7-1.1,7.4-2.9,4.8-8.4
				c-2.4-4.9-5.6-9.5-8.3-14.2c-0.7-1.1-2-2.1-1.3-4.2c4.4,3.2,7,7.6,10,11.4c0.6,0.8,1.1,1.9,2.3,1.7c1.2-0.3,1-1.5,1.2-2.5
				c0.8-5.3,1.1-10.6,0.4-15.9c-0.4-2.9-1.9-5.8-1.1-9.7c6.3,7.8,5.3,16.4,6.1,25.6c2.6-7,4.8-13,7.1-19c0.5-1.2,1.1-3.4,2.9-2.7
				c1.8,0.7,0.9,2.6,0.3,4c-1.8,4.5-2.9,9.1-3.6,14.5c3.6-2.7,4.9-7.4,10-8c-1.4,5.7-5.7,9.4-7.6,14.6c2.1-0.3,3-2.3,5.2-1.7
				c-0.5,3.1-3.7,3.8-4.9,6.1c-1.3,2.4-1.4,4.9-0.7,7.6c2.4-1,2-4,4.5-4.4c1.2,2.7-1.7,4.8-1.2,7.4c2.4-0.2,4-3.7,5.9-2.1
				c1.9,1.7-2.3,3.2-1.6,5.5c3.3-0.6,3.6-0.6,3.4,2c-0.1,2.2,1.1,3.4,2.5,4.6c4.2,3.5,7.3,7.7,9.7,12.5c0,0.7,0,1.3,0,2
				c-4,3.1-8.7,3.1-13.3,3.1c-62.6,0.1-125.3,0.2-187.9,0.2c-151.1,0-302.3,0-453.4,0c-10.5,0-21-0.9-31.4,0.6
				c-2.6,0.4-5.3-0.2-7.9-0.7c-4.3-0.9-4.9-2.5-2.4-6.2c2.3-3.5,6-5.2,9.4-7.2c5.1-3.2,5.4-4.3,1.3-8.6c-3.3-3.5-7.1-6.6-11.5-10.6
				c5,0.9,7.3,4.8,11.7,6.3c-1.8-5.1-3.2-9.4-5.1-14.9c5.2,3.1,5.7,8,8.5,11.3c0-4.6-0.5-9.1-0.9-13.5c-0.1-1.2-0.7-3.2,1-3.4
				c1.9-0.3,1.9,1.9,2.1,3.2c0.5,3.7,0.8,7.5,2.7,10.9c1.9-1,1.5-4.8,4.1-3.7c2.3,1,1.3,3.8,1.1,5.9c-0.3,2.1-1.1,4.3,0.1,7
				c1.5-4.1,1.9-4.8,2.7-4.4c1.7,0.8,1.4,2.5,1.6,3.9c0,0.2,0,0.3,0.1,0.5c0.2,2,1.4,2.9,3.4,2.9c1.3,0,3.1,0.4,3.6-1.1
				c0.6-1.7-1.3-2.5-2.3-3.5c-9.2-8.9-11.8-19.6-7.6-31.6c7.5-21.5,37.9-28,55.6-12.2c14.7,13.1,13.3,35.3-2.9,46.6
				c-1.4,1-3.3,1.5-4.3,3.5c8.7,2.3,17.3,0.4,25.9,0.3c2.3,0,3-1.8,3.4-3.7c1.8-7.5,7.1-11.3,14.2-13.2c4.5-1.2,9.1-2,13.3-4.2
				c2.3-1.3,4.4-1.9,4.2-5.2c-0.2-3.4-2.6-3.8-5-4.5c-6.8-1.9-8-3.6-8-10.5c0-7.3,0.3-14.7-0.7-22c-2.8-21.4-2.9-42.8,0.4-64.2
				c1.2-7.7,3.9-15.2,4.5-23c0.3-4-1.2-5.4-5.3-5.8c-21.2-2.2-40.4-9.2-57.1-22.9c-4.1-3.3-6.4-7.1-5.3-12.6
				c0.4-1.9,0.3-3.9-2.1-4.3c-6.7-1.1-12.5-3.4-16.9-9c-1.7-2.1-7-15-6-17.6c0.2-0.6,0.6-1.2,1.1-1.7c1-1,1.3-2.1,1.4-3.6
				c0.8-8,7.1-12.2,14.8-9.9c2,0.6,3.5,1,4.5-1.4c1-2.6,2.8-4.1,5.8-3.7c2.9,0.4,4.4,2.4,5.2,4.9c1.1,3.6,1.9,7.3,2.8,11
				c5.6-3,6.8-2.6,9,3.4c0.3,0.8,0.5,1.6,0.8,2.4c2.9,11.1,10.2,18.4,19.9,23.8c13.2,7.4,27.8,7.3,42.3,7.6c2.2,0,4.5-1.2,6.7-1.7
				c2.4-0.5,3.4-1.9,3.2-4.3c-0.2-2.9-2.5-2.4-4.1-2.3c-13.7,1.3-24.3-7.1-35.9-11.8c-8.4-3.4-9.6-17-2.4-20.1
				c6.2-2.7,5.1-6.1,4-10.5c-0.6-2.4-1.2-4.9-1.3-7.4c-0.2-4.4-1.9-7.9-5.1-10.9c-2.8-2.7-4.7-6-3.5-10.3c0.3-1-0.1-2.4-0.5-3.4
				c-1.6-3.3-0.6-6.2,1.1-9c1.8-3,4.3-5.5,6.9-7.9c3.1-2.8,3.2-4.3-1.3-5.1c-2.3-0.4-4.5-1.6-5.1-4.2c-0.6-2.7,1.2-4.4,3.1-5.8
				c3.6-2.8,7.6-5.2,12-5.9c4.8-0.7,4.8-1.9,1.9-5.3c-3-3.4-2.3-5.5,1.7-5.8c9.7-0.7,19.1,0.6,26.6,7.5c2.8,2.6,4.3,2.7,6.7-0.2
				c2.7-3.3,6.2-6.3,10.5-5.7c3.1,0.4,5.7,0.1,8.6-0.9c5.5-1.9,8.1-0.5,9.3,5.2c0.5,2.5,1.8,4.3,3.8,5.7c2.9,2,4,4.8,3.7,8.2
				c-0.3,3.3-0.4,6.6-0.7,10c-1.2,12.3-3.5,24.4-3.4,36.8c0,3-0.7,6.6,4.6,4.5c1.4-0.6,2.9,0.3,4.2,1.2c5.9,4.1,6.1,15.2,0,19
				c-3.1,2-4.6,4.4-5.7,7.7c-3,9.6-8.8,16.4-19.5,17.4c-2.3,0.2-3.4,1-2.9,3.4c0.3,1.5,0.4,3,0.5,4.5c0,3.3,1.6,4.6,4.8,3.8
				c4.2-1.1,8.4-2.1,12.5-3.4c3.3-1,6.2-1.1,9.6,0.1c8.7,3.2,17.8,4.2,27,1.7c8.9-2.4,17.1-6.4,25.6-9.9c2.4-1,3-2.9,3-5.2
				c-0.1-8.8-0.1-17.7,1.5-26.4c0.4-1.9-0.3-3.1-2.1-3.9c-7-3.3-7.2-3.6-4.7-11.1c9.7-29.2,9.5-59.7,11.3-89.9
				c0.2-3.2-1.4-4.9-4.5-5.6c-4.1-0.8-8-2.2-11.8-4.1c-22.7-11-43-25.4-59.8-44.4c-10.4-11.7-20.1-24-32.8-33.6
				c-2.3-1.7-4.3-4.2-2.9-7.3c1.4-3.1-0.4-4.1-2.6-5.3c-4.6-2.3-9.5-2.8-14.5-3.6c-5.1-0.8-10.2-1.7-14.6-4.8
				c-4.6-3.3-4.7-6.3-0.3-10c-1.1-0.5-2.2-1-3.2-1.5c-2-0.9-4.3-1.7-4.2-4.3c0.1-2.6,2.6-2.7,4.5-3.1c2.8-0.6,2.8-1.9,1.8-4.3
				c-1.8-4.4-0.1-6.6,4.7-6.7c2.3,0,4.5,0.3,6.9,0.4c-0.3-2.4-3.7-4-1.6-6.5c2-2.3,4.8-1.9,7.5-1.2c1.9,0.5,3.8,1.1,5.7,1.9
				c7,2.9,13.4,6.7,18.6,12.3c0.7,0.8,1.4,2.4,2.7,1.8c1.6-0.6,0.8-2.3,0.7-3.6c-0.2-2.8-0.5-5.6-0.5-8.5c0-2.2,1.1-3.9,3.3-4.5
				c2.6-0.7,3.5,1.3,4.4,3.1c2.9,6.2,4.2,12.6,3.3,19.4c-0.2,2-0.5,3.9,1.1,5.6c10,10.7,16.7,23.7,24.2,36c5.5,9,11.3,17.8,19,25
				c5.7,5.3,11.9,10.2,17.7,15.4c6.8,6.1,15,9.1,24.4,7.8c6.1-0.8,12.3-0.9,18.4,0.6c5.4,1.4,10.8,2.2,16.3,1c2-0.4,4.9,0.6,5.4-2.3
				c0.6-3.1,0.2-6.4-2.9-8.5c-1.2-0.8-2.6-1.5-4-2.1c-8.3-3.3-12.9-9.7-14.9-18.1c-0.7-3.1-1.5-6.2-1.9-9.3
				c-0.5-3.9-2.2-6.4-5.8-8.5c-9.7-5.7-16.1-14.3-18.9-25.4c-1-4.1-1.1-8.5,2.6-11.6c3.7-3.1,8-2.8,12.3-1.2
				c0.6,0.2,1.3,0.5,1.8,0.8c3.7,2.2,5,1,4.8-3.1c-0.7-12.6-1.5-25.2-1.8-37.8c-0.1-4.2-1.3-7.3-5.1-9.5c-4.8-2.7-5.9-7.1-4.1-12.1
				c4-11.1,11.1-19.2,22.9-22.4c0.3-1.5-2.6-1.3-1.6-3c0.8-1.4,2.3-1.1,3.6-1.1c3,0.1,5.5,2.1,8.6,2.9c0.2-4.4-3.4-7.4-3.6-12.1
				c4.4,2.3,5.4,6.4,7.7,9.8C491.1,673.6,489.8,668.4,492,664z M663.8,1199.5c-0.5,4.2-3.2,6.9-4.8,10.1c-1.2,2.4-0.9,3.6,2.1,4.1
				c16.9,2.7,18.9,2.1,31.1-9.7c1-0.9,1.9-1.9,2.9-2.8c5.4-4.8,9.4-11.3,16.4-14.4c1.9-0.9,2.2-2.6,1.8-4.7
				c-4.4-26.2-5-52.7-5.5-79.1c-0.1-4.2-1.1-6.2-5.9-5.1c-4.8,1.1-7.7-1.3-8.1-6.2c-0.2-2.3,0-4.7,0.3-7c2.2-17,4.3-34,4.6-51.2
				c0.2-9.3,2.2-18.5,7.3-26.2c5.1-7.7,6.9-16.4,9.8-24.9c6.9-20.3-1.5-37-12.3-53.1c-3.4-5.1-8.1-9.3-10.6-15
				c-0.9-2.2-2.3-2.6-4.3-1.6c-8.8,4.2-18.3,6-27.7,8.3c-29,7.3-58.4,11.7-88.2,13.3c-3.7,0.2-4.6,1.6-3.6,5.1
				c3.1,10.7,6.8,21.2,10.7,31.7c1.3,3.5,1.1,6-3.1,6.6c-4.2,0.5-4.7,2.8-4.3,6.6c1.2,11,5.4,21.3,7.8,32c5.2,23.3,6.7,47.1,8,70.8
				c1.5,27.7,0.3,55.3-3.2,82.7c-1.2,9.2-1.3,10.1,7.3,13c14.7,4.8,24.3,15.6,32.8,27.3c3.6,5,7,6.2,12.4,5.1
				c5.5-1.1,5.9-1.6,3.8-6.9c-1.9-4.9-4.8-9.2-8.2-14.7c6.2,2.7,7.2,8.6,11.2,11.8c1.8-5.9,1.4-11.4,1.4-17.1
				c4.2,5.1,2.9,11.6,4.2,18.2c2.1-4.3,3.5-7.8,6-10.8c0.8-1,1.8-2.5,3.2-1.9c1.7,0.8,0.4,2.3,0.1,3.5c-0.5,2-2,3.8-2,6.2
				C659.5,1202.6,660.3,1199.4,663.8,1199.5z M529.6,1219.7c2.5,0,5-0.2,7.5,0.1c4.5,0.5,6.2-0.8,5.8-5.7
				c-0.8-9.4,1.3-18.8,1.8-28.2c0.3-5.3,1-10.6,0.6-15.9c-0.6-7.8-1.6-15.6-1.5-23.4c0.7-34.5-3.7-68.8-4.8-103.2
				c-0.1-4.4-1.4-5.8-5.9-5.3c-12.2,1.3-24.4,3.7-36.7,0.6c-2.9-0.7-3.7,1.4-4.2,3.7c-1.8,9.3-1.4,18.6-0.7,27.9
				c2.1,28.9,4.4,57.8,7,86.6c0.8,9.4,1,19,5.6,27.7c5.3,10,8.5,20.3,6.2,31.7c-0.8,3.9,1,4.8,4.4,4.3
				C519.6,1219.7,524.6,1219.7,529.6,1219.7z M446.1,1053.7c-4.9,5-8.9,8.7-13.7,11.4c-7.1,4-14.6,7.4-22.6,9
				c-5.1,1-6.6,3.5-5.4,8.3c0.7,3.1,1,6.2,1.5,9.4c3.4,22.4,6.8,44.7,3.8,67.5c-1,7.3-1.1,14.9,0.5,22.4c2,9.1,0.6,11.1-8.7,12.5
				c-1.2,0.2-2.4,0.1-3.5,0.4c-2,0.6-5.1-0.4-5.1,3.3c0,5.4,1.9,8.4,5.9,8.5c6.4,0.2,12,2.3,17.2,6c5.2,3.6,5.5,3.7,8-2.1
				c7-16.1,26.2-23.7,40.8-17.4c1.4,0.6,3,1.5,4.5,0.9C459.8,1147.8,447.7,1102.3,446.1,1053.7z M740.4,1114.7
				c0,15.3-0.3,30.8-3.4,45.7c-3.7,17.5-3,34.7-0.2,52.1c0.5,3.1,1.1,5.6,5,5.4c9-0.3,18-0.6,27-0.8c4.3-0.1,5.4-2.3,4.9-6.2
				c-1.2-8.5-0.4-16.9,0.8-25.4c0.4-2.5,0.6-5.1,0.1-7.5c-3-16.9-5.9-33.7-9.5-50.5c-1.7-8-3.9-15.8-5.2-23.9
				c-1.8-11.9-2.7-12.5-14.7-11.6c-3.3,0.2-4.8,1.7-4.7,5C740.5,1103,740.4,1108.9,740.4,1114.7z M363.4,1223.8
				C363.4,1223.8,363.4,1223.8,363.4,1223.8c1.2,0,2.3,0,3.5,0c6.9,0,6.9,0,6.8-6.8c0-4.2,0.8-8.1,5.1-9.9c1.9-0.8,4-1.1,3.5-3.9
				c-0.4-2.6-1.1-4.6-4.4-5.1c-4.8-0.8-7.4-4.2-8.3-8.8c-0.8-3.8-1.1-7.6-0.6-11.4c1.2-10-0.3-19.9-1.1-29.9c-0.3-4-2.3-4.9-5.8-5
				c-4.2-0.1-3.9,2.7-3.9,5.4c0.1,13-0.3,26,0.8,38.9c0.5,6.1-1.2,8.4-6.5,9.1c-7.5,0.9-7.4,0.9-5.5,8.2c0.5,1.9,1.3,3.3,2.7,4.6
				c2.5,2.1,3.7,5,4.7,8.1c0.8,2.4-1.6,5.7,0.7,6.9c2.1,1,5.2-0.1,7.8-0.2C363.1,1223.8,363.2,1223.8,363.4,1223.8z M766.6,958
				c1.3-0.9,1.9-1.2,2.4-1.7c12.2-11.5,24.4-23.1,36.7-34.7c2.2-2.1,2-3.8,0.2-6c-5.2-6.1-11.8-10.8-17.5-16.4
				c-1.9-1.9-2.8-0.5-3.7,1.2c-3.6,6.4-6.9,12.9-8.3,20.2c-1.6,8.4-3.9,16.5-7.1,24.4C767.7,948.9,766.5,952.9,766.6,958z"/>
		</g>
	</g>
</g>
</svg>
