<svg id="Layer_1" data-name="Layer 1" xmlns="http://www.w3.org/2000/svg" viewBox="0 0 163.35 195.95"><defs><style>.cls-1{fill:#f8f8f8;}.cls-2{fill:#d17022;}.cls-3{fill:#f0802a;}.cls-4{fill:#247a7b;}.cls-5{fill:#ecc925;}</style></defs><title>robot-1</title><polygon class="cls-1" points="46.58 5.33 54.71 32.24 61.16 26.91 46.58 5.33"/><polygon class="cls-1" points="111.91 5.33 103.78 32.24 97.33 26.91 111.91 5.33"/><path class="cls-2" d="M44.7,187.82c-5.44-14.54-5.1-27.19,1-37.58,10.07-17.18,32.19-20.76,33.13-20.91l2.3,15L80,136.81l1.18,7.48C81,144.32,65.08,147,58.71,158c-3.64,6.26-3.58,14.52.17,24.56Z" transform="translate(-40.86 -30.43)"/><path class="cls-2" d="M200.36,187.82c5.44-14.54,5.1-27.19-1-37.58-10.07-17.18-32.19-20.76-33.13-20.91l-2.3,15,1.15-7.48-1.18,7.48c0.16,0,16.06,2.71,22.43,13.67,3.64,6.26,3.58,14.52-.17,24.56Z" transform="translate(-40.86 -30.43)"/><path class="cls-3" d="M170.7,108.64c0-.64,0-1.27,0-1.92,0-30.68-22.67-55.55-50.65-55.55S69.46,76,69.46,106.73c0,0.64,0,1.28,0,1.92H170.7Z" transform="translate(-40.86 -30.43)"/><rect class="cls-3" x="31.03" y="97.28" width="96.43" height="64.75"/><path class="cls-2" d="M100.9,218a8.41,8.41,0,0,1-8.41,8.41H79.6A8.41,8.41,0,0,1,71.19,218V205.07a8.41,8.41,0,0,1,8.41-8.41H92.49a8.41,8.41,0,0,1,8.41,8.41V218Z" transform="translate(-40.86 -30.43)"/><path class="cls-2" d="M169,218a8.41,8.41,0,0,1-8.41,8.41H147.72a8.41,8.41,0,0,1-8.41-8.41V205.07a8.41,8.41,0,0,1,8.41-8.41h12.89a8.41,8.41,0,0,1,8.41,8.41V218Z" transform="translate(-40.86 -30.43)"/><circle class="cls-1" cx="79.24" cy="49.48" r="19.76"/><circle class="cls-4" cx="79.24" cy="49.48" r="14.16"/><circle class="cls-5" cx="79.24" cy="49.48" r="7.15"/><path class="cls-5" d="M65.86,188.93a11.92,11.92,0,0,1-11.92,11.92h0A11.92,11.92,0,0,1,42,188.93h0A11.92,11.92,0,0,1,53.94,177h0a11.92,11.92,0,0,1,11.92,11.92h0Z" transform="translate(-40.86 -30.43)"/><path class="cls-5" d="M179.2,188.93a11.92,11.92,0,0,0,11.92,11.92h0A11.92,11.92,0,0,0,203,188.93h0A11.92,11.92,0,0,0,191.12,177h0a11.92,11.92,0,0,0-11.92,11.92h0Z" transform="translate(-40.86 -30.43)"/><circle class="cls-4" cx="55.52" cy="131.26" r="6.1"/><circle class="cls-4" cx="79.24" cy="131.26" r="6.1"/><circle class="cls-4" cx="102.97" cy="131.26" r="6.1"/><circle class="cls-4" cx="47.01" cy="5.33" r="5.33"/><circle class="cls-4" cx="111.48" cy="5.33" r="5.33"/></svg>