<?xml version="1.0" encoding="UTF-8"?>
<svg width="1006px" height="928px" viewBox="0 0 1006 928" version="1.1" xmlns="http://www.w3.org/2000/svg" xmlns:xlink="http://www.w3.org/1999/xlink">
    <!-- Generator: Sketch 43.2 (39069) - http://www.bohemiancoding.com/sketch -->
    <title>Group 6</title>
    <desc>Created with Sketch.</desc>
    <defs></defs>
    <g id="Welcome" stroke="none" stroke-width="1" fill="none" fill-rule="evenodd">
        <g id="Night-start" transform="translate(-53.000000, -3.000000)" stroke="#979797" fill="#D8D8D8">
            <g id="Group-6" transform="translate(-100.000000, -100.000000)">
                <g id="Group-6-Copy-6" transform="translate(695.000000, 838.000000) rotate(109.000000) translate(-695.000000, -838.000000) translate(615.000000, 758.000000)">
                    <circle id="Oval-3" cx="3.1496063" cy="148.661417" r="3.1496063"></circle>
                    <circle id="Oval-4" cx="73.0708661" cy="86.2992126" r="7.55905512"></circle>
                    <circle id="Oval-5" cx="34.9606299" cy="4.09448819" r="4.09448819"></circle>
                    <circle id="Oval-6" cx="87.8740157" cy="158.425197" r="1.57480315"></circle>
                    <circle id="Oval-7" cx="157.480315" cy="59.8425197" r="2.51968504"></circle>
                </g>
                <g id="Group-6-Copy-5" transform="translate(154.000000, 0.000000)">
                    <circle id="Oval-3" cx="2.48031496" cy="117.070866" r="2.48031496"></circle>
                    <circle id="Oval-6" cx="69.2007874" cy="124.759843" r="1.24015748"></circle>
                </g>
                <g id="Group-6-Copy-2" transform="translate(922.426498, 607.024925) rotate(25.000000) translate(-922.426498, -607.024925) translate(659.926498, 442.524925)">
                    <circle id="Oval-3" cx="276" cy="311" r="5"></circle>
                    <circle id="Oval-5" cx="326.5" cy="81.5" r="6.5"></circle>
                    <circle id="Oval-6" cx="410.5" cy="326.5" r="2.5"></circle>
                    <circle id="Oval-6-Copy-2" cx="138.5" cy="2.5" r="2.5"></circle>
                    <circle id="Oval-6-Copy" cx="453.5" cy="126.5" r="2.5"></circle>
                    <circle id="Oval-7" cx="521" cy="170" r="4"></circle>
                    <circle id="Oval-7-Copy" cx="4" cy="218" r="4"></circle>
                </g>
                <g id="Group-6-Copy-7" transform="translate(1028.716723, 944.465367) rotate(-26.000000) translate(-1028.716723, -944.465367) translate(892.716723, 858.965367)">
                    <circle id="Oval-3" cx="142.792165" cy="160.899867" r="2.58681458"></circle>
                    <circle id="Oval-5" cx="168.918992" cy="42.1650777" r="3.36285896"></circle>
                    <circle id="Oval-6" cx="212.377477" cy="168.918992" r="1.29340729"></circle>
                    <circle id="Oval-6-Copy-2" cx="71.6547639" cy="1.29340729" r="1.29340729"></circle>
                    <circle id="Oval-6-Copy" cx="234.624083" cy="65.4464089" r="1.29340729"></circle>
                    <circle id="Oval-7" cx="269.546079" cy="87.9516958" r="2.06945167"></circle>
                    <circle id="Oval-7-Copy" cx="2.06945167" cy="112.785116" r="2.06945167"></circle>
                </g>
                <g id="Group-6-Copy-4" transform="translate(307.426498, 556.024925) rotate(25.000000) translate(-307.426498, -556.024925) translate(44.926498, 391.524925)">
                    <circle id="Oval-3" cx="276" cy="311" r="5"></circle>
                    <circle id="Oval-5" cx="326.5" cy="81.5" r="6.5"></circle>
                    <circle id="Oval-6" cx="410.5" cy="326.5" r="2.5"></circle>
                    <circle id="Oval-6-Copy-2" cx="138.5" cy="2.5" r="2.5"></circle>
                    <circle id="Oval-6-Copy" cx="453.5" cy="126.5" r="2.5"></circle>
                    <circle id="Oval-7" cx="521" cy="170" r="4"></circle>
                </g>
                <g id="Group-6-Copy-8" transform="translate(398.731938, 825.340701) rotate(25.000000) translate(-398.731938, -825.340701) translate(263.731938, 740.840701)">
                    <circle id="Oval-3" cx="141.511482" cy="159.456778" r="2.5636138"></circle>
                    <circle id="Oval-5" cx="167.403981" cy="41.7869049" r="3.33269794"></circle>
                    <circle id="Oval-6" cx="210.472693" cy="167.403981" r="1.2818069"></circle>
                    <circle id="Oval-6-Copy-2" cx="71.0121023" cy="1.2818069" r="1.2818069"></circle>
                    <circle id="Oval-6-Copy" cx="232.519772" cy="64.8594292" r="1.2818069"></circle>
                    <circle id="Oval-7" cx="267.128558" cy="87.1628692" r="2.05089104"></circle>
                    <circle id="Oval-7-Copy" cx="2.05089104" cy="111.773562" r="2.05089104"></circle>
                </g>
                <g id="Group-6-Copy-3" transform="translate(540.143813, 246.527391) rotate(25.000000) translate(-540.143813, -246.527391) translate(354.643813, 130.527391)">
                    <circle id="Oval-3" cx="194.52454" cy="219.192508" r="3.5239953"></circle>
                    <circle id="Oval-5" cx="230.116893" cy="57.4411234" r="4.58119389"></circle>
                    <circle id="Oval-6" cx="289.320014" cy="230.116893" r="1.76199765"></circle>
                    <circle id="Oval-6-Copy-2" cx="97.6146698" cy="1.76199765" r="1.76199765"></circle>
                    <circle id="Oval-6-Copy" cx="319.626374" cy="89.157081" r="1.76199765"></circle>
                    <circle id="Oval-7" cx="367.20031" cy="119.81584" r="2.81919624"></circle>
                    <circle id="Oval-7-Copy" cx="2.81919624" cy="153.646195" r="2.81919624"></circle>
                </g>
                <g id="Group-6-Copy-9" transform="translate(922.143813, 699.527391) rotate(25.000000) translate(-922.143813, -699.527391) translate(736.643813, 583.527391)">
                    <circle id="Oval-3" cx="194.52454" cy="219.192508" r="3.5239953"></circle>
                    <circle id="Oval-5" cx="230.116893" cy="57.4411234" r="4.58119389"></circle>
                    <circle id="Oval-6" cx="289.320014" cy="230.116893" r="1.76199765"></circle>
                    <circle id="Oval-6-Copy-2" cx="97.6146698" cy="1.76199765" r="1.76199765"></circle>
                    <circle id="Oval-6-Copy" cx="319.626374" cy="89.157081" r="1.76199765"></circle>
                    <circle id="Oval-7" cx="367.20031" cy="119.81584" r="2.81919624"></circle>
                    <circle id="Oval-7-Copy" cx="2.81919624" cy="153.646195" r="2.81919624"></circle>
                </g>
            </g>
        </g>
    </g>
</svg>