<?xml version="1.0" encoding="UTF-8"?>
<svg width="2078px" height="1920px" viewBox="0 0 2078 1920" version="1.1" xmlns="http://www.w3.org/2000/svg" xmlns:xlink="http://www.w3.org/1999/xlink">
    <!-- Generator: Sketch 43.2 (39069) - http://www.bohemiancoding.com/sketch -->
    <title>boom copy 2</title>
    <desc>Created with Sketch.</desc>
    <defs></defs>
    <g id="Welcome" stroke="none" stroke-width="1" fill="none" fill-rule="evenodd">
        <g id="Artboard" transform="translate(-4738.000000, 0.000000)">
            <g id="boom-copy-2" transform="translate(5777.000000, 688.500000) scale(-1, 1) translate(-5777.000000, -688.500000) translate(4738.000000, -568.000000)">
                <path d="M1221.7078,2106.95854 C1221.7078,2063.50258 1271.15971,2027.98206 1331.93648,2027.98206 C1354.9637,2027.98206 1376.48094,2033.27235 1394.22323,2041.96354 C1454.6225,2042.34142 1503.31942,2077.48406 1503.31942,2120.94002 C1503.31942,2164.39598 1453.86751,2199.9165 1393.09074,2199.9165 C1370.06352,2199.9165 1348.54628,2194.62621 1330.80399,2185.93502 C1270.78221,2185.17927 1221.7078,2150.4145 1221.7078,2106.95854 Z" id="Shape" fill="#477831" fill-rule="nonzero"></path>
                <path d="M1289.65699,2140.2118 C1289.65699,2140.2118 1144.69873,2268.3124 1129.97641,2294.76386 C1113.36661,2324.61621 1115.63158,2348.42252 1115.63158,2348.42252 L1108.08167,2276.62572 L1283.23956,2131.14273 L1289.65699,2140.2118 Z" id="Shape" fill="#624213" fill-rule="nonzero"></path>
                <g id="Group" transform="translate(129.792641, 400.550576)" fill-rule="nonzero" fill="#477831">
                    <path d="M1520.37251,1127.12114 C1578.88431,1127.12114 1626.44874,1174.73376 1626.44874,1233.30483 C1626.44874,1291.87591 1578.88431,1339.48852 1520.37251,1339.48852 C1461.86072,1339.48852 1414.29629,1291.87591 1414.29629,1233.30483 C1414.29629,1174.35588 1461.86072,1127.12114 1520.37251,1127.12114 Z" id="Shape"></path>
                    <path d="M0.953275851,980.882392 C0.953275851,922.311317 48.5177042,874.698701 107.029501,874.698701 C165.541298,874.698701 213.105726,922.311317 213.105726,980.882392 C213.105726,999.398409 208.57578,1016.40291 200.27088,1031.51803 C225.563076,1050.7898 241.795381,1081.39791 241.795381,1115.40692 C241.795381,1173.978 194.230953,1221.59062 135.719156,1221.59062 C77.2073593,1221.59062 29.642931,1173.978 29.642931,1115.40692 C29.642931,1096.89091 34.1728766,1079.8864 42.4777768,1064.77129 C17.1855808,1045.49951 0.953275851,1015.26928 0.953275851,980.882392 Z" id="Shape"></path>
                    <path d="M439.603004,1191.36038 C520.764528,1191.36038 587.95872,1250.68721 600.416071,1328.15218 C612.873421,1283.18471 653.642931,1250.30934 702.339846,1250.30934 C724.234583,1250.30934 744.619338,1257.11114 761.229138,1268.44748 C780.481407,1240.48451 812.568521,1221.96849 849.185581,1221.96849 C861.642931,1221.96849 873.722786,1224.23576 885.04765,1228.39242 C947.711897,1206.4755 1147.0295,1118.42995 1161.37433,1127.12114 C1176.09665,1085.93245 1192.70645,1212.89942 1238.7609,1212.89942 C1297.2727,1212.89942 1344.83712,1260.51204 1344.83712,1319.08311 C1344.83712,1377.65419 1297.2727,1425.2668 1238.7609,1425.2668 C1218.37614,1425.2668 1199.87887,1419.59864 1183.64656,1409.77381 C1168.92424,1450.9625 1130.04221,1480.43698 1083.61026,1480.43698 C1025.09847,1480.43698 977.534038,1432.82436 977.534038,1374.25329 C977.534038,1360.64968 968.474147,1345.53457 954.88431,1330.79733 C953.751824,1388.23477 906.564891,1434.71375 848.808085,1434.71375 C826.913348,1434.71375 806.528593,1427.91195 789.541298,1416.57561 C770.289029,1444.53858 738.201915,1463.05459 701.96235,1463.05459 C692.524964,1463.05459 683.842568,1461.92096 675.160172,1459.65369 C666.477777,1495.55209 634.390662,1522.38143 595.886125,1522.38143 C569.461443,1522.38143 545.679229,1509.53358 530.956906,1489.88393 C504.909719,1507.64419 473.2001,1518.22477 438.848013,1518.22477 C348.626597,1518.22477 275.769973,1444.91646 275.769973,1354.98151 C276.147468,1264.29082 349.381588,1191.36038 439.603004,1191.36038 Z" id="Shape"></path>
                    <ellipse id="Oval" cx="1718.18014" cy="899.260765" rx="163.07804" ry="163.243254"></ellipse>
                    <ellipse id="Oval" cx="1606.44148" cy="90.602054" rx="90.2214156" ry="90.3128186"></ellipse>
                    <path d="M95.704637,197.5415 C95.704637,147.661617 136.096652,107.228682 185.926053,107.228682 C235.755454,107.228682 276.147468,147.661617 276.147468,197.5415 C276.147468,247.421383 235.755454,287.854319 185.926053,287.854319 C136.096652,287.854319 95.704637,247.421383 95.704637,197.5415 Z" id="Shape"></path>
                </g>
                <path d="M1074.86207,2053.29988 C1084.67695,1993.21729 1100.90926,1925.19927 1167.34846,1864.36093 C1213.02541,1822.41648 1428.19782,1700.36192 1428.19782,1700.36192 L1402.52813,1669.37593 L1088.45191,1862.47154 C1088.45191,1862.09366 1086.56443,1904.41598 1074.86207,2053.29988 Z" id="Shape" fill="#624213" fill-rule="nonzero"></path>
                <path d="M1441.78766,2498.06217 L630.927405,2512.79941 C630.927405,2512.79941 726.056261,2492.394 809.482759,2462.91952 C904.611615,2429.28839 922.731397,2427.77688 957.838475,2325.74985 C1000.11797,2204.45104 961.990926,2097.13371 949.533575,2043.09717 C937.453721,1989.06063 832.132486,1868.51758 832.132486,1868.51758 L584.495463,1774.80386 L618.092559,1748.35241 C618.092559,1748.35241 786.455535,1813.72529 804.575318,1808.435 C823.072595,1803.52258 761.91833,1726.81337 761.91833,1726.81337 L800.800363,1696.20526 C800.800363,1696.20526 938.963702,1932.75683 944.626134,1939.18075 C950.288566,1945.60468 965.010889,1965.6322 985.395644,1955.4295 C1005.7804,1945.2268 1000.49546,1627.80936 1000.49546,1627.80936 L1106.57169,1650.10416 C1106.57169,1650.10416 1097.5118,1786.89596 1108.45917,1795.20927 C1119.78403,1803.52258 1249.26497,1735.12668 1257.19238,1721.52308 C1265.49728,1708.29735 1245.11252,1615.33939 1245.11252,1615.33939 L1271.53721,1606.27032 C1271.53721,1606.27032 1278.70962,1692.0486 1290.03448,1700.36192 C1301.35935,1708.67523 1384.03085,1654.26081 1384.03085,1654.26081 L1406.30309,1690.91497 C1406.30309,1690.91497 1233.03267,1789.91898 1166.59347,1845.08915 C1100.15426,1900.25933 1081.65699,1962.60918 1082.03448,2020.80238 C1082.41198,2078.99558 1080.14701,2218.8104 1098.26679,2222.96706 C1116.76407,2227.12371 1261.34483,2123.96305 1261.34483,2123.96305 L1275.68966,2139.45604 C1275.68966,2139.45604 1131.86388,2258.86546 1120.53902,2277.38147 C1109.21416,2295.89749 1100.15426,2385.45455 1209.25045,2437.6017 C1318.72414,2489.37098 1441.78766,2498.06217 1441.78766,2498.06217 Z" id="Shape" fill="#815719" fill-rule="nonzero"></path>
                <path d="M1241.71506,1926.71078 C1254.9274,1926.71078 1267.00726,1930.11168 1277.95463,1935.77985 C1277.95463,1935.77985 1277.95463,1935.77985 1277.95463,1935.40197 C1277.95463,1892.32389 1313.06171,1857.18125 1356.09619,1857.18125 C1373.46098,1857.18125 1389.69328,1862.84942 1402.52813,1872.67424 C1416.87296,1853.40247 1439.52269,1840.9325 1465.19238,1840.9325 C1508.22686,1840.9325 1543.33394,1876.07514 1543.33394,1919.15322 C1543.33394,1928.97805 1541.44646,1938.425 1538.049,1947.11619 C1578.44102,1966.38796 1606.37568,2007.19877 1606.37568,2055.18927 C1606.37568,2121.3179 1552.77132,2174.59868 1487.08711,2174.59868 C1457.64247,2174.59868 1430.84029,2164.0181 1410.07804,2146.25784 C1393.09074,2160.6172 1371.19601,2168.93052 1347.41379,2168.93052 C1297.2069,2168.93052 1256.05989,2131.14273 1250.39746,2082.77435 C1247.75499,2083.15223 1244.73503,2083.15223 1242.09256,2083.15223 C1199.05808,2083.15223 1163.951,2048.00959 1163.951,2004.93151 C1163.5735,1961.47555 1198.68058,1926.71078 1241.71506,1926.71078 Z" id="Shape" fill="#619700" fill-rule="nonzero"></path>
                <path d="M310.433757,592.423908 C303.261343,592.423908 295.711434,592.801786 288.53902,593.557542 C279.479129,564.083065 275.326679,532.7192 273.816697,504.378357 C279.479129,536.875856 292.313975,566.728211 310.433757,592.423908 Z" id="Shape"></path>
                <path d="M126.970962,947.251258 C129.61343,946.117625 132.255898,944.606113 134.898367,943.472479 C113.758621,914.753759 99.4137931,881.122625 94.5063521,844.090591 C92.9963702,833.887888 92.2413793,823.307306 92.2413793,812.726725 C92.2413793,698.985477 178.310345,605.271757 288.916515,593.557542 C296.088929,592.801786 303.261343,592.423908 310.811252,592.423908 C292.69147,566.728211 279.856624,536.875856 274.194192,504.756235 C271.551724,458.277253 275.704174,420.867341 276.08167,417.466439 C279.856624,401.21769 285.141561,385.724696 291.936479,371.365335 C327.421053,296.923389 402.920145,245.531994 490.876588,245.531994 C537.30853,245.531994 580.720508,259.891354 616.205082,284.831296 C640.742287,224.370831 699.631579,181.292751 768.713249,180.159117 C800.045372,76.2426937 896.306715,0.667113247 1010.31034,0.667113247 C1065.04719,0.667113247 1115.63158,18.0494967 1156.77858,47.5239731 C1183.58076,66.7957461 1206.23049,90.602054 1223.97278,118.565019 C1229.25771,118.187141 1234.92015,117.809263 1240.20508,117.809263 C1287.76951,117.809263 1330.4265,137.836792 1361.00363,169.578536 C1361.38113,170.334291 1362.13612,170.712169 1362.51361,171.467925 C1378.74592,154.841297 1397.24319,140.481937 1417.25045,128.767722 C1454.6225,107.228682 1497.65699,94.7587109 1543.71143,94.7587109 C1683.38475,94.7587109 1796.2559,208.122082 1796.2559,347.559027 C1796.2559,366.075045 1794.36842,383.835306 1790.59347,401.21769 C1786.06352,422.000974 1779.2686,441.650625 1769.83122,460.166642 C1763.79129,472.258735 1756.99637,483.97295 1749.06897,494.931409 C1747.93648,496.820799 1746.4265,498.33231 1745.29401,500.2217 C1747.55898,499.843822 1750.20145,499.843822 1752.46642,499.465944 C1762.6588,498.33231 1772.85118,497.576555 1783.42105,497.576555 C1937.06171,497.576555 2063.52269,615.852338 2076.73503,766.247743 C2077.49002,774.938935 2077.86751,783.630127 2077.86751,792.321318 C2077.86751,890.191695 2030.30309,976.725735 1957.06897,1030.3844 C1979.3412,1058.72524 1992.55354,1094.62364 1992.55354,1133.16719 C1992.55354,1161.88591 1985.38113,1189.09312 1972.54628,1212.52155 C1956.69147,1241.61814 1932.53176,1265.80233 1903.08711,1281.29532 C1928.75681,1321.35038 1943.47913,1368.963 1943.47913,1419.97651 C1943.47913,1447.93948 1938.94918,1475.14669 1930.64428,1500.46451 C1897.04719,1603.2473 1800.40835,1677.31137 1686.78221,1677.31137 C1671.6824,1677.31137 1657.33757,1675.79985 1642.99274,1673.53259 C1612.41561,1708.29735 1567.49365,1730.59215 1517.28675,1730.59215 C1459.90744,1730.59215 1409.32305,1701.87343 1379.12341,1657.66171 C1376.10345,1658.03959 1373.46098,1658.03959 1370.44102,1658.03959 C1330.4265,1658.03959 1296.07441,1633.09965 1282.10708,1597.95701 C1241.71506,1650.48203 1178.67332,1684.49105 1107.32668,1684.49105 C1049.94737,1684.49105 997.852995,1662.57413 958.593466,1626.67573 C942.738657,1656.90596 911.029038,1677.68924 874.789474,1677.68924 C854.404719,1677.68924 835.529946,1671.26532 820.052632,1659.92898 C810.615245,1711.69825 765.315789,1750.99756 710.956443,1750.99756 C684.154265,1750.99756 659.239564,1741.55061 639.987296,1725.67974 C600.350272,1784.62869 533.15608,1823.55011 456.901996,1823.55011 C335.348457,1823.55011 236.822142,1724.92398 236.822142,1603.2473 C236.822142,1565.83738 246.259528,1530.69474 262.491833,1499.70875 C245.882033,1468.72276 236.822142,1433.58012 236.822142,1396.17021 C236.822142,1386.72326 237.577132,1376.89843 238.709619,1367.82936 C232.669691,1368.20724 226.629764,1368.58512 220.589837,1368.58512 C138.295826,1368.58512 66.5716878,1323.23977 28.8221416,1256.35538 C10.7023593,1224.23576 0.509981851,1187.5816 0.509981851,1148.2823 C0.132486388,1058.34736 52.2268603,982.393903 126.970962,947.251258 Z" id="Shape" fill="#619700" fill-rule="nonzero"></path>
                <g id="Group" opacity="0.6" transform="translate(0.000000, 46.567625)" fill-rule="nonzero" fill="#F6F8F7">
                    <path d="M2076.73503,718.924363 C2042.38294,671.311747 1952.91652,551.90233 1919.31942,551.524452 C1949.51906,570.418347 1966.88385,653.551486 1963.86388,673.956892 C1916.29946,561.727155 1822.68058,498.999424 1822.68058,498.999424 C1822.68058,498.999424 1846.84029,552.658086 1822.68058,557.570499 C1809.84574,508.446371 1765.67877,463.856779 1752.84392,452.142564 C1763.0363,451.00893 1773.22868,450.253174 1783.79855,450.253174 C1937.4392,450.253174 2063.52269,568.528958 2076.73503,718.924363 Z" id="Shape" opacity="0.2"></path>
                    <path d="M91.8638838,766.536978 C91.8638838,652.79573 177.932849,559.08201 288.53902,547.367795 C293.446461,562.860789 299.486388,577.975905 307.413793,591.957388 C212.662432,594.980411 133.76588,703.431369 94.1288566,797.900844 C92.9963702,787.698141 91.8638838,777.11756 91.8638838,766.536978 Z" id="Shape" opacity="0.2"></path>
                    <path d="M126.970962,900.683634 C131.500907,904.462413 140.183303,912.397849 146.600726,925.245697 C48.0744102,1017.82578 30.3321234,1141.01398 28.4446461,1208.27625 C10.3248639,1176.15662 0.132486388,1139.50247 0.132486388,1100.20317 C0.132486388,1011.77974 52.2268603,935.826279 126.970962,900.683634 Z" id="Shape" opacity="0.2"></path>
                    <path d="M1972.54628,1165.19817 C1956.69147,1194.29476 1932.53176,1218.47895 1903.08711,1233.97194 C1928.75681,1274.027 1943.47913,1321.63962 1943.47913,1372.65313 C1943.47913,1400.6161 1938.94918,1427.82331 1930.64428,1453.14113 C1910.63702,1389.65764 1866.84755,1292.9209 1774.36116,1237.75072 C1834.38294,1241.90738 1927.62432,1192.0275 1972.54628,1165.19817 Z" id="Shape" opacity="0.2"></path>
                </g>
            </g>
        </g>
    </g>
</svg>