<?xml version="1.0" encoding="UTF-8"?>
<svg width="320px" height="543px" viewBox="0 0 320 543" version="1.1" xmlns="http://www.w3.org/2000/svg" xmlns:xlink="http://www.w3.org/1999/xlink">
    <!-- Generator: Sketch 43.2 (39069) - http://www.bohemiancoding.com/sketch -->
    <title>boom</title>
    <desc>Created with Sketch.</desc>
    <defs></defs>
    <g id="Welcome" stroke="none" stroke-width="1" fill="none" fill-rule="evenodd">
        <g id="Day-start" transform="translate(-760.000000, -714.000000)">
            <g id="boom" transform="translate(760.000000, 714.000000)">
                <path d="M263.94029,454.864414 C263.94029,445.488288 274.615245,437.824324 287.734846,437.824324 C292.705626,437.824324 297.350454,438.965766 301.180399,440.840991 C314.218512,440.922523 324.73049,448.504955 324.73049,457.881081 C324.73049,467.257207 314.055535,474.921171 300.935935,474.921171 C295.965154,474.921171 291.320327,473.77973 287.490381,471.904505 C274.533757,471.741441 263.94029,464.240541 263.94029,454.864414 Z" id="Shape" fill="#477831" fill-rule="nonzero"></path>
                <path d="M278.608167,462.039189 C278.608167,462.039189 247.316697,489.678378 244.138657,495.385586 C240.553176,501.826577 241.042105,506.963063 241.042105,506.963063 L239.412341,491.472072 L277.222868,460.082432 L278.608167,462.039189 Z" id="Shape" fill="#624213" fill-rule="nonzero"></path>
                <g id="Group" transform="translate(27.705989, 86.423423)" fill-rule="nonzero" fill="#477831">
                    <path d="M0.733393829,211.90045 C0.733393829,199.263063 11.0009074,188.99009 23.6315789,188.99009 C36.2622505,188.99009 46.5297641,199.263063 46.5297641,211.90045 C46.5297641,215.895495 45.5519056,219.564414 43.7591652,222.825676 C49.2188748,226.983784 52.7228675,233.587838 52.7228675,240.925676 C52.7228675,253.563063 42.4553539,263.836036 29.8246824,263.836036 C17.1940109,263.836036 6.92649728,253.563063 6.92649728,240.925676 C6.92649728,236.930631 7.90435572,233.261712 9.69709619,230.00045 C4.23738657,225.842342 0.733393829,219.31982 0.733393829,211.90045 Z" id="Shape"></path>
                    <path d="M95.422686,257.313514 C112.94265,257.313514 127.44755,270.113964 130.136661,286.827928 C132.825771,277.125676 141.626497,270.032432 152.138475,270.032432 C156.864791,270.032432 161.265154,271.5 164.850635,273.945946 C169.006534,267.912613 175.933031,263.917568 183.837387,263.917568 C186.526497,263.917568 189.13412,264.406757 191.578766,265.303604 C205.105808,260.574775 248.131579,241.577928 251.228131,243.453153 C254.406171,234.566216 257.991652,261.960811 267.933212,261.960811 C280.563884,261.960811 290.831397,272.233784 290.831397,284.871171 C290.831397,297.508559 280.563884,307.781532 267.933212,307.781532 C263.532849,307.781532 259.539927,306.558559 256.035935,304.438739 C252.857895,313.325676 244.46461,319.685135 234.441561,319.685135 C221.810889,319.685135 211.543376,309.412162 211.543376,296.774775 C211.543376,293.83964 209.587659,290.578378 206.654083,287.398649 C206.409619,299.791441 196.223593,309.81982 183.755898,309.81982 C179.029583,309.81982 174.62922,308.352252 170.96225,305.906306 C166.806352,311.93964 159.879855,315.934685 152.056987,315.934685 C150.019782,315.934685 148.145554,315.69009 146.271325,315.200901 C144.397096,322.946396 137.470599,328.735135 129.158802,328.735135 C123.454628,328.735135 118.320871,325.963063 115.142831,321.723423 C109.520145,325.555405 102.675136,327.838288 95.2597096,327.838288 C75.784029,327.838288 60.0568058,312.021171 60.0568058,292.616667 C60.138294,273.049099 75.9470054,257.313514 95.422686,257.313514 Z" id="Shape"></path>
                    <path d="M21.1869328,42.8855856 C21.1869328,32.1234234 29.9061706,23.3995495 40.6626134,23.3995495 C51.4190563,23.3995495 60.138294,32.1234234 60.138294,42.8855856 C60.138294,53.6477477 51.4190563,62.3716216 40.6626134,62.3716216 C29.9061706,62.3716216 21.1869328,53.6477477 21.1869328,42.8855856 Z" id="Shape"></path>
                </g>
                <path d="M232.241379,443.286937 C234.360073,430.323423 237.864065,415.647748 252.205989,402.521171 C262.066062,393.471171 308.514338,367.136486 308.514338,367.136486 L302.97314,360.450901 L235.174955,402.113514 C235.174955,402.031982 234.767514,411.163514 232.241379,443.286937 Z" id="Shape" fill="#624213" fill-rule="nonzero"></path>
                <path d="M311.447913,539.24955 L136.411252,542.429279 C136.411252,542.429279 156.946279,538.026577 174.955172,531.667117 C195.4902,524.410811 199.401633,524.084685 206.980036,502.071171 C216.106715,475.89955 207.876407,452.744595 205.187296,441.085586 C202.579673,429.426577 179.844465,403.418018 179.844465,403.418018 L126.388203,383.198198 L133.640653,377.490991 C133.640653,377.490991 169.984392,391.595946 173.895826,390.454505 C177.888748,389.394595 164.687659,372.843694 164.687659,372.843694 L173.080944,366.23964 C173.080944,366.23964 202.905626,417.278378 204.127949,418.664414 C205.350272,420.05045 208.528312,424.371622 212.928675,422.17027 C217.329038,419.968919 216.188203,351.482432 216.188203,351.482432 L239.086388,356.292793 C239.086388,356.292793 237.130672,385.807207 239.493829,387.600901 C241.938475,389.394595 269.888929,374.637387 271.600181,371.702252 C273.392922,368.848649 268.992559,348.791892 268.992559,348.791892 L274.696733,346.835135 C274.696733,346.835135 276.245009,365.342793 278.689655,367.136486 C281.134301,368.93018 298.980218,357.18964 298.980218,357.18964 L303.788022,365.098198 C303.788022,365.098198 266.384936,386.459459 252.043013,398.363063 C237.701089,410.266667 233.708167,423.719369 233.789655,436.275225 C233.871143,448.831081 233.382214,478.997748 237.293648,479.894595 C241.28657,480.791441 272.496552,458.533333 272.496552,458.533333 L275.593103,461.876126 C275.593103,461.876126 244.546098,487.64009 242.101452,491.635135 C239.656806,495.63018 237.701089,514.953153 261.25118,526.204505 C284.882759,537.374324 311.447913,539.24955 311.447913,539.24955 Z" id="Shape" fill="#815719" fill-rule="nonzero"></path>
                <path d="M268.259165,415.973874 C271.111252,415.973874 273.718875,416.707658 276.082033,417.930631 C276.082033,417.930631 276.082033,417.930631 276.082033,417.849099 C276.082033,408.554505 283.660436,400.972072 292.950091,400.972072 C296.698548,400.972072 300.202541,402.195045 302.97314,404.314865 C306.069691,400.156757 310.958984,397.466216 316.500181,397.466216 C325.789837,397.466216 333.36824,405.048649 333.36824,414.343243 C333.36824,416.463063 332.960799,418.501351 332.227405,420.376577 C340.946642,424.534685 346.97677,433.34009 346.97677,443.694595 C346.97677,457.962613 335.405445,469.458559 321.226497,469.458559 C314.870417,469.458559 309.084755,467.175676 304.602904,463.343694 C300.935935,466.441892 296.209619,468.235586 291.075862,468.235586 C280.237931,468.235586 271.355717,460.082432 270.133394,449.646396 C269.562976,449.727928 268.911071,449.727928 268.340653,449.727928 C259.050998,449.727928 251.472595,442.145495 251.472595,432.850901 C251.391107,423.474775 258.96951,415.973874 268.259165,415.973874 Z" id="Shape" fill="#619700" fill-rule="nonzero"></path>
                <path d="M306.232668,27.9653153 C301.913793,30.4927928 297.920871,33.590991 294.416878,37.1783784 C294.33539,37.0153153 294.172414,36.9337838 294.090926,36.7707207 L294.090926,27.15 C294.009437,27.2315315 298.654265,27.2315315 306.232668,27.9653153 Z" id="Shape"></path>
                <path d="M67.2277677,128.086036 C65.6794918,128.086036 64.0497278,128.167568 62.5014519,128.330631 C60.545735,121.971171 59.6493648,115.204054 59.323412,109.089189 C60.545735,116.100901 63.3163339,122.541892 67.2277677,128.086036 Z" id="Shape"></path>
                <path d="M59.8123412,90.3369369 C59.730853,91.0707207 58.8344828,99.1423423 59.4049002,109.170721 C58.915971,106.48018 58.6715064,103.626577 58.6715064,100.772973 C58.5900181,97.1855856 58.9974592,93.6797297 59.8123412,90.3369369 Z" id="Shape" fill="#FCFCFC" fill-rule="nonzero"></path>
                <path d="M27.6245009,204.644144 C28.1949183,204.39955 28.7653358,204.073423 29.3357532,203.828829 C24.7724138,197.632432 21.6758621,190.376126 20.6165154,182.386036 C20.2905626,180.184685 20.1275862,177.901802 20.1275862,175.618919 C20.1275862,151.077928 38.7068966,130.858108 62.5829401,128.330631 C64.131216,128.167568 65.6794918,128.086036 67.3092559,128.086036 C63.3978221,122.541892 60.6272232,116.100901 59.4049002,109.170721 C58.8344828,99.1423423 59.730853,91.0707207 59.8123412,90.3369369 C60.6272232,86.8310811 61.7680581,83.4882883 63.2348457,80.3900901 C70.8947368,64.3283784 87.1923775,53.2400901 106.179129,53.2400901 C116.202178,53.2400901 125.573321,56.3382883 133.233212,61.7193694 C138.529946,48.6743243 151.242105,39.3797297 166.154446,39.1351351 C172.917967,16.713964 193.697459,0.407657658 218.306897,0.407657658 C230.122686,0.407657658 241.042105,4.15810811 249.924319,10.5175676 C255.709982,14.6756757 260.599274,19.8121622 264.42922,25.8454955 C265.570054,25.763964 266.792377,25.6824324 267.933212,25.6824324 C278.200726,25.6824324 287.408893,30.0036036 294.009437,36.8522523 C294.090926,37.0153153 294.253902,37.0968468 294.33539,37.2599099 C297.839383,33.6725225 301.832305,30.5743243 306.15118,28.0468468 C314.218512,23.3995495 323.508167,20.709009 333.449728,20.709009 C363.600363,20.709009 387.965336,45.1684685 387.965336,75.2536036 C387.965336,79.2486486 387.557895,83.0806306 386.743013,86.8310811 C385.765154,91.3153153 384.298367,95.554955 382.261162,99.55 C380.95735,102.159009 379.490563,104.686486 377.77931,107.050901 C377.534846,107.458559 377.208893,107.784685 376.964428,108.192342 C377.453358,108.110811 378.023775,108.110811 378.512704,108.029279 C380.712886,107.784685 382.913067,107.621622 385.194737,107.621622 C418.360436,107.621622 445.658984,133.140991 448.511071,165.590541 C448.674047,167.465766 448.755535,169.340991 448.755535,171.216216 C448.755535,192.332883 438.488022,211.003604 422.67931,222.581081 C427.487114,228.695946 430.339201,236.441441 430.339201,244.757658 C430.339201,250.954054 428.790926,256.824324 426.020327,261.879279 C422.597822,268.157207 417.382577,273.375225 411.026497,276.718018 C416.567695,285.36036 419.745735,295.633333 419.745735,306.64009 C419.745735,312.673423 418.767877,318.543694 416.975136,324.006306 C409.722686,346.182883 388.861706,362.163063 364.333757,362.163063 C361.074229,362.163063 357.977677,361.836937 354.881125,361.347748 C348.280581,368.848649 338.583485,373.659009 327.745554,373.659009 C315.359347,373.659009 304.439927,367.462613 297.920871,357.923423 C297.268966,358.004955 296.698548,358.004955 296.046642,358.004955 C287.408893,358.004955 279.993466,352.623874 276.978403,345.041441 C268.259165,356.374324 254.650635,363.712162 239.249365,363.712162 C226.863158,363.712162 215.617786,358.983333 207.143013,351.237838 C203.720508,357.76036 196.875499,362.244595 189.052632,362.244595 C184.652269,362.244595 180.577858,360.858559 177.236842,358.412613 C175.199637,369.582432 165.421053,378.061712 153.686751,378.061712 C147.901089,378.061712 142.522868,376.023423 138.366969,372.599099 C129.810708,385.318018 115.305808,393.715766 98.8451906,393.715766 C72.6059891,393.715766 51.3375681,372.436036 51.3375681,346.182883 C51.3375681,338.111261 53.3747731,330.528829 56.8787659,323.843243 C53.2932849,317.157658 51.3375681,309.575225 51.3375681,301.503604 C51.3375681,299.465315 51.5005445,297.345495 51.7450091,295.388739 C50.4411978,295.47027 49.1373866,295.551802 47.8335753,295.551802 C30.069147,295.551802 14.5863884,285.768018 6.43756806,271.336937 C2.5261343,264.406757 0.325952813,256.498198 0.325952813,248.018919 C0.24446461,228.614414 11.4898367,212.226577 27.6245009,204.644144 Z" id="Shape" fill="#619700" fill-rule="nonzero"></path>
                <g id="Group" opacity="0.6" transform="translate(0.000000, 9.783784)" fill-rule="nonzero" fill="#F6F8F7">
                    <path d="M333.531216,10.8436937 C363.681851,10.8436937 388.046824,35.3031532 388.046824,65.3882883 C388.046824,69.3833333 387.639383,73.2153153 386.824501,76.9657658 C385.03176,70.0355856 375.253176,36.4445946 348.850998,27.3945946 C332.145917,21.6873874 316.500181,19.2414414 306.232668,18.2630631 C314.218512,13.5342342 323.589655,10.8436937 333.531216,10.8436937 Z" id="Shape" opacity="0.2"></path>
                    <path d="M264.347731,16.0617117 C265.488566,15.9801802 266.710889,15.8986486 267.851724,15.8986486 C278.119238,15.8986486 287.327405,20.2198198 293.927949,27.0684685 L293.927949,36.2815315 C293.927949,36.2815315 330.923593,47.5328829 325.62686,63.0238739 C296.535572,39.2166667 261.984574,44.6792793 261.984574,44.6792793 C261.984574,44.6792793 269.725953,23.318018 249.761343,0.733783784 C255.628494,4.89189189 260.599274,10.0283784 264.347731,16.0617117 Z" id="Shape" opacity="0.2"></path>
                    <path d="M20.046098,165.916667 C20.046098,141.375676 38.6254083,121.155856 62.5014519,118.628378 C63.5607985,121.971171 64.8646098,125.232432 66.5758621,128.249099 C46.122323,128.901351 29.0912886,152.300901 20.5350272,172.683784 C20.2905626,170.482432 20.046098,168.19955 20.046098,165.916667 Z" id="Shape" opacity="0.2"></path>
                    <path d="M106.179129,43.4563063 C116.202178,43.4563063 125.573321,46.5545045 133.233212,51.9355856 C138.529946,38.8905405 151.242105,29.5959459 166.154446,29.3513514 C166.154446,29.3513514 139.752269,41.4995495 135.922323,62.127027 C117.424501,47.2882883 82.5475499,58.4581081 63.2348457,70.6063063 C70.8947368,54.5445946 87.1923775,43.4563063 106.179129,43.4563063 Z" id="Shape" opacity="0.2"></path>
                    <path d="M27.6245009,194.86036 C28.6023593,195.675676 30.476588,197.387838 31.8618875,200.15991 C10.5934664,220.135135 6.76352087,246.714414 6.35607985,261.227027 C2.4446461,254.296847 0.24446461,246.388288 0.24446461,237.909009 C0.24446461,218.830631 11.4898367,202.442793 27.6245009,194.86036 Z" id="Shape" opacity="0.2"></path>
                </g>
            </g>
        </g>
    </g>
</svg>