<svg id="Layer_1" data-name="Layer 1" xmlns="http://www.w3.org/2000/svg" viewBox="0 0 1338.91 216.86"><defs><style>.cls-1{fill:#384658;}.cls-2{fill:#f0eee8;}.cls-3{fill:#dcdad6;}.cls-4,.cls-7{fill:#333745;}.cls-5{fill:#a7a5a1;}.cls-6{fill:#e7324b;}.cls-7{opacity:0.2;}.cls-8{fill:none;stroke:#e7324b;stroke-miterlimit:10;stroke-width:3px;}.cls-9{fill:#fff;}</style></defs><title>vliegtuig</title><path class="cls-1" d="M323,138.06s-43.29-17.21-50.13-17.24-120-4-120-4-17.23,13.82-14.43,21.24,6.81,7.26,6.81,7.26Z" transform="translate(-44.67 -35.57)"/><path class="cls-2" d="M571.62,49.82c-5.25,16.08-18.26,55.34-31.17,89.94q-1.54,4.14-3.08,8.14c-1.74,4.59-3.49,9-5.19,13.31-18.91,47.28-312,47.28-401.08,48.63-27.68.42-45.84-5.29-57.74-13.35a49.22,49.22,0,0,1-16.91-19.17,53.16,53.16,0,0,1-5.29-21.62c-0.13-3.88.79-12.65,4.53-13.67,11.91-3.32,42.76-5,82.44-6.75,32.69-1.43,72.49,6.08,115.53,5.65,62.84-.62,124.39-5.15,158.33-6.72,87.78-4.05,79.67-45.91,99.93-79.67,14.87-24.79,41.38-19.72,54.44-15.29A8.4,8.4,0,0,1,571.62,49.82Z" transform="translate(-44.67 -35.57)"/><path class="cls-2" d="M252.88,124.11l20-.61H301c0-4.84-3-8.8-6.86-8.92L148.3,111a3,3,0,0,0-2.76,2.08h0c-1,2.49.36,5.47,2.57,5.59Z" transform="translate(-44.67 -35.57)"/><polygon class="cls-2" points="208.98 84.33 208.99 105.35 205.38 105.5 205.38 84.12 208.98 84.33"/><polygon class="cls-3" points="184.76 84.77 182.14 120.52 176.57 120.52 173.66 84.31 184.76 84.77"/><polygon class="cls-2" points="132.51 82.67 127.44 108.67 121.88 108.67 126.94 82.34 132.51 82.67"/><polygon class="cls-4" points="9.45 59.48 9.45 122.75 0 184.39 0 121.01 9.45 59.48"/><polygon class="cls-5" points="54.69 169.64 54.69 202.62 61.59 167.68 54.69 169.64"/><polygon class="cls-5" points="192.24 169.64 192.24 202.62 199.14 167.68 192.24 169.64"/><path class="cls-6" d="M540.45,139.76q-1.54,4.14-3.08,8.14l-464,48.59a49.22,49.22,0,0,1-16.91-19.17Z" transform="translate(-44.67 -35.57)"/><circle class="cls-4" cx="54.69" cy="202.62" r="14.23"/><circle class="cls-4" cx="192.24" cy="202.62" r="14.23"/><polygon class="cls-7" points="103.44 83.1 120.04 173.84 229.75 171.43 256.36 87.93 103.44 83.1"/><polyline class="cls-8" points="495.78 104.19 650.24 104.19 693.24 75.44 693.24 128.47 650.24 104.19"/><rect class="cls-9" x="694.91" y="49.58" width="644" height="105.34"/></svg>