<svg id="Layer_1" data-name="Layer 1" xmlns="http://www.w3.org/2000/svg" viewBox="0 0 166.38 718.51"><defs><style>.cls-1{fill:#abe0f2;}.cls-2{fill:#ea2e49;}.cls-3{fill:#fefbf6;}.cls-4{fill:none;stroke:#ea2e49;stroke-linecap:round;stroke-linejoin:round;stroke-width:4px;}</style></defs><title>vuurtoren</title><rect class="cls-1" x="24.97" y="66.72" width="111.53" height="97.94"/><path class="cls-2" d="M441.87,691.18c-5.71,0-10.73,0-12.46.16-60.21,6.8-97.27-12.35-144.86-7l0.91-20.89,3.34-76.8,3.06-70.9,3.33-76.79L298.25,368l3.34-76.75,3.06-71h113l3.83,71L425.61,368l3.88,70.95,4.16,76.79,3.82,70.9,4.16,76.8Z" transform="translate(-280.35 -21.71)"/><polygon class="cls-3" points="11.99 164.67 14.04 198.6 147.28 198.6 150.69 164.67 11.99 164.67"/><polygon class="cls-3" points="145.25 346.28 17.9 346.28 21.23 269.53 141.1 269.53 145.25 346.28"/><polygon class="cls-3" points="153.29 494.02 11.5 494.02 14.84 417.23 149.14 417.23 153.29 494.02"/><polygon class="cls-3" points="161.27 641.72 5.11 641.72 8.44 564.92 157.12 564.92 161.27 641.72"/><polygon class="cls-2" points="166.38 718.51 0 718.51 5.1 641.72 161.95 641.72 166.38 718.51"/><polygon class="cls-4" points="11.99 164.67 2.43 127.09 24.98 127.09 156.84 127.09 150.69 164.67 11.99 164.67"/><polygon class="cls-2" points="11.99 44.41 11.99 46.46 11.99 74.47 150.69 74.47 150.69 72.43 150.69 44.41 11.99 44.41"/><path class="cls-2" d="M305.33,66.12s2-44.41,54.66-44.41,58.76,44.41,58.76,44.41H305.33Z" transform="translate(-280.35 -21.71)"/><line class="cls-4" x1="18.83" y1="163.29" x2="18.83" y2="128.46"/><line class="cls-4" x1="34.21" y1="163.29" x2="34.21" y2="128.46"/><line class="cls-4" x1="49.58" y1="163.29" x2="49.58" y2="128.46"/><line class="cls-4" x1="64.96" y1="163.29" x2="64.96" y2="128.46"/><line class="cls-4" x1="80.33" y1="163.29" x2="80.33" y2="128.46"/><line class="cls-4" x1="95.71" y1="163.29" x2="95.71" y2="128.46"/><line class="cls-4" x1="111.08" y1="163.29" x2="111.08" y2="128.46"/><line class="cls-4" x1="126.46" y1="163.29" x2="126.46" y2="128.46"/><line class="cls-4" x1="141.83" y1="163.29" x2="141.83" y2="128.46"/></svg>