<svg id="Layer_1" data-name="Layer 1" xmlns="http://www.w3.org/2000/svg" viewBox="0 0 1360.94 284.2"><defs><style>.cls-1{fill:#2c9ab0;}</style></defs><title>water-2</title><path class="cls-1" d="M1539.4,324.14a883.33,883.33,0,0,1-114.78,40.76c-97.85,27.5-200,39.35-303,41.93q-26.56-2.64-53.08-5.67c-237.23-27-385.8,77.83-613.47,5.67C431.4,399.31,344,373.15,275.53,345.9a88.71,88.71,0,0,1-45.4-124.15h0A88.74,88.74,0,0,1,251,195.82l19.61-16.63q4.3-3.34,8.82-6.29t9.06-5.41a153,153,0,0,1,46-15.81c37.24-6.77,77.91-2.15,115.14,7,18.61,4.61,37.06,10.17,55.51,15.69L507,175l1.56,0.47c28.19,8.41,56.39,16.57,85.1,20.84a270.34,270.34,0,0,0,37.45,3.07c28,0.24,55.62-4.54,83.11-11.09,10.14-2.42,20.26-5.07,30.37-7.81,8.45-2.29,16.89-4.64,25.33-6.94,24.16-6.61,48.29-12.88,72.48-16.59,24.55-3.76,49.18-4.87,74-1,16.13,2.52,31.77,7.12,47.26,12.31l0.65,0.22c2.61,0.87,5.23,1.76,7.84,2.67,22.25,7.71,44.36,16.1,67.37,20.79q5.85,1.2,11.69,2.06c50.83,7.65,101.67-2,152.76-13.78,10.27-2.38,20.55-4.84,30.84-7.27,12.49-2.95,25-5.84,37.53-8.47a560.55,560.55,0,0,1,57.57-9.38c4.59-.47,9.2-0.87,13.8-1.17,48.8-3.2,97.39,3.86,145.86,12.87l3.93,0.73c9.41,1.76,18.81,3.6,28.22,5.43,38.34,7.48,101,92.65,17.65,151.17" transform="translate(-219.66 -148.45)"/></svg>