<svg id="Layer_1" data-name="Layer 1" xmlns="http://www.w3.org/2000/svg" viewBox="0 0 1664.5 373.75"><defs><style>.cls-1{fill:#33bbd6;}</style></defs><title>water-1</title><path class="cls-1" d="M1682.2,175.55c0,2.41,0,4.82-.08,7.23q-0.11,5.36-.38,10.65-0.69,13.95-2.48,27.58-1.18,9.12-2.84,18.08a348.78,348.78,0,0,1-342.87,285.1H366.34c-188.75,0-342.46-150-348.45-337.27q-0.2-5.67-.19-11.37H36.2c44.47-27.78,102.48-24.23,153.51-10.83l5.22,1.4c10.59,2.9,21.14,6.12,31.67,9.43h5.3c12.45,3.7,24.89,7.46,37.37,10.94,29.38,8.19,59,14.76,89.36,15,46.2,0.39,91.44-13.86,136.56-26h5.89l4.06-1.13c39.53-10.93,79-19.09,119-12.44,16.36,2.72,32.19,7.87,47.89,13.57h4.57c12.52,4.33,25,8.87,37.64,12.73,8.08,2.47,16.22,4.67,24.49,6.35,62.51,12.72,125-4.4,188-19.08h6.79c10.24-2.5,20.5-4.91,30.78-7.06a422.38,422.38,0,0,1,57.49-8.51c45.44-3.16,90.67,3.82,135.8,12.74q7,1.38,14.08,2.83h8.14q12.08,2.34,24.15,4.68c57.32,11,114.55,20.67,171.94,13.06,26.11-3.46,52.37-10.42,78.54-17.74h5.6c9.86-3,19.7-5.93,29.52-8.74,52.38-15.05,104-25.6,153.16-4.52,7.43,3.19,14.82,7.33,20.45,13.26h19Z" transform="translate(-17.7 -150.44)"/></svg>